<svg width="230" height="27" viewBox="0 0 230 27" fill="none" xmlns="http://www.w3.org/2000/svg">
<g filter="url(#filter0_d_92_13)">
<mask id="path-1-outside-1_92_13" maskUnits="userSpaceOnUse" x="2.5" y="-1" width="225" height="21" fill="black">
<rect fill="white" x="2.5" y="-1" width="225" height="21"/>
<path d="M7.70739 0.545454V18H4.01705V0.545454H7.70739ZM25.343 0.545454V18H22.1555L14.5618 7.0142H14.4339V18H10.7436V0.545454H13.9822L21.5163 11.5227H21.6697V0.545454H25.343ZM27.7273 3.58807V0.545454H42.0625V3.58807H36.7188V18H33.071V3.58807H27.7273ZM44.4233 18V0.545454H56.1847V3.58807H48.1136V7.74716H55.5795V10.7898H48.1136V14.9574H56.2188V18H44.4233ZM59.1186 18V0.545454H66.005C67.3232 0.545454 68.4482 0.78125 69.38 1.25284C70.3175 1.71875 71.0305 2.38068 71.5192 3.23864C72.0135 4.09091 72.2607 5.09375 72.2607 6.24716C72.2607 7.40625 72.0107 8.40341 71.5107 9.23864C71.0107 10.0682 70.2862 10.7045 69.3374 11.1477C68.3942 11.5909 67.2521 11.8125 65.9112 11.8125H61.3004V8.84659H65.3146C66.0192 8.84659 66.6044 8.75 67.0703 8.55682C67.5362 8.36364 67.8828 8.07386 68.1101 7.6875C68.343 7.30114 68.4595 6.82102 68.4595 6.24716C68.4595 5.66761 68.343 5.17898 68.1101 4.78125C67.8828 4.38352 67.5334 4.08239 67.0618 3.87784C66.5959 3.66761 66.0078 3.5625 65.2976 3.5625H62.8089V18H59.1186ZM68.5447 10.0568L72.8828 18H68.8089L64.5646 10.0568H68.5447ZM78.5589 0.545454V18H74.8686V0.545454H78.5589ZM97.6349 9.27273C97.6349 11.1761 97.2741 12.7955 96.5526 14.1307C95.8366 15.4659 94.8594 16.4858 93.6207 17.1903C92.3878 17.8892 91.0014 18.2386 89.4616 18.2386C87.9105 18.2386 86.5185 17.8864 85.2855 17.1818C84.0526 16.4773 83.0781 15.4574 82.3622 14.1222C81.6463 12.7869 81.2884 11.1705 81.2884 9.27273C81.2884 7.36932 81.6463 5.75 82.3622 4.41477C83.0781 3.07955 84.0526 2.0625 85.2855 1.36364C86.5185 0.659091 87.9105 0.306818 89.4616 0.306818C91.0014 0.306818 92.3878 0.659091 93.6207 1.36364C94.8594 2.0625 95.8366 3.07955 96.5526 4.41477C97.2741 5.75 97.6349 7.36932 97.6349 9.27273ZM93.8935 9.27273C93.8935 8.03977 93.7088 7 93.3395 6.15341C92.9759 5.30682 92.4616 4.66477 91.7969 4.22727C91.1321 3.78977 90.3537 3.57102 89.4616 3.57102C88.5696 3.57102 87.7912 3.78977 87.1264 4.22727C86.4616 4.66477 85.9446 5.30682 85.5753 6.15341C85.2116 7 85.0298 8.03977 85.0298 9.27273C85.0298 10.5057 85.2116 11.5455 85.5753 12.392C85.9446 13.2386 86.4616 13.8807 87.1264 14.3182C87.7912 14.7557 88.5696 14.9744 89.4616 14.9744C90.3537 14.9744 91.1321 14.7557 91.7969 14.3182C92.4616 13.8807 92.9759 13.2386 93.3395 12.392C93.7088 11.5455 93.8935 10.5057 93.8935 9.27273ZM100.369 18V0.545454H107.255C108.573 0.545454 109.698 0.78125 110.63 1.25284C111.567 1.71875 112.281 2.38068 112.769 3.23864C113.263 4.09091 113.511 5.09375 113.511 6.24716C113.511 7.40625 113.261 8.40341 112.761 9.23864C112.261 10.0682 111.536 10.7045 110.587 11.1477C109.644 11.5909 108.502 11.8125 107.161 11.8125H102.55V8.84659H106.565C107.269 8.84659 107.854 8.75 108.32 8.55682C108.786 8.36364 109.133 8.07386 109.36 7.6875C109.593 7.30114 109.71 6.82102 109.71 6.24716C109.71 5.66761 109.593 5.17898 109.36 4.78125C109.133 4.38352 108.783 4.08239 108.312 3.87784C107.846 3.66761 107.258 3.5625 106.548 3.5625H104.059V18H100.369ZM109.795 10.0568L114.133 18H110.059L105.815 10.0568H109.795ZM121.673 18V0.545454H125.364V7.74716H132.855V0.545454H136.537V18H132.855V10.7898H125.364V18H121.673ZM139.58 18V0.545454H151.341V3.58807H143.27V7.74716H150.736V10.7898H143.27V14.9574H151.375V18H139.58ZM157.283 18H153.329L159.354 0.545454H164.11L170.127 18H166.173L161.8 4.53409H161.664L157.283 18ZM157.036 11.1392H166.377V14.0199H157.036V11.1392ZM169.43 3.58807V0.545454H183.766V3.58807H178.422V18H174.774V3.58807H169.43ZM189.817 0.545454V18H186.126V0.545454H189.817ZM207.452 0.545454V18H204.265L196.671 7.0142H196.543V18H192.853V0.545454H196.092L203.626 11.5227H203.779V0.545454H207.452ZM222.075 6.1875C221.956 5.77273 221.788 5.40625 221.572 5.08807C221.357 4.7642 221.092 4.49148 220.78 4.26989C220.473 4.04261 220.121 3.86932 219.723 3.75C219.331 3.63068 218.896 3.57102 218.419 3.57102C217.527 3.57102 216.743 3.79261 216.067 4.23579C215.396 4.67898 214.874 5.32386 214.499 6.17045C214.124 7.01136 213.936 8.03977 213.936 9.25568C213.936 10.4716 214.121 11.5057 214.49 12.358C214.859 13.2102 215.382 13.8608 216.058 14.3097C216.734 14.7528 217.533 14.9744 218.453 14.9744C219.288 14.9744 220.001 14.8267 220.592 14.5312C221.189 14.2301 221.643 13.8068 221.956 13.2614C222.274 12.7159 222.433 12.071 222.433 11.3267L223.183 11.4375H218.683V8.65909H225.987V10.858C225.987 12.392 225.663 13.7102 225.016 14.8125C224.368 15.9091 223.476 16.7557 222.339 17.3523C221.203 17.9432 219.902 18.2386 218.436 18.2386C216.8 18.2386 215.362 17.8778 214.124 17.1562C212.885 16.429 211.919 15.3977 211.226 14.0625C210.538 12.7216 210.195 11.1307 210.195 9.28977C210.195 7.875 210.399 6.61364 210.808 5.50568C211.223 4.39205 211.803 3.44886 212.547 2.67614C213.291 1.90341 214.158 1.31534 215.146 0.911931C216.135 0.508522 217.206 0.306818 218.359 0.306818C219.348 0.306818 220.268 0.451704 221.121 0.741477C221.973 1.02557 222.729 1.42898 223.388 1.9517C224.053 2.47443 224.595 3.09659 225.016 3.81818C225.436 4.53409 225.706 5.32386 225.825 6.1875H222.075Z"/>
</mask>
<path d="M7.70739 0.545454V18H4.01705V0.545454H7.70739ZM25.343 0.545454V18H22.1555L14.5618 7.0142H14.4339V18H10.7436V0.545454H13.9822L21.5163 11.5227H21.6697V0.545454H25.343ZM27.7273 3.58807V0.545454H42.0625V3.58807H36.7188V18H33.071V3.58807H27.7273ZM44.4233 18V0.545454H56.1847V3.58807H48.1136V7.74716H55.5795V10.7898H48.1136V14.9574H56.2188V18H44.4233ZM59.1186 18V0.545454H66.005C67.3232 0.545454 68.4482 0.78125 69.38 1.25284C70.3175 1.71875 71.0305 2.38068 71.5192 3.23864C72.0135 4.09091 72.2607 5.09375 72.2607 6.24716C72.2607 7.40625 72.0107 8.40341 71.5107 9.23864C71.0107 10.0682 70.2862 10.7045 69.3374 11.1477C68.3942 11.5909 67.2521 11.8125 65.9112 11.8125H61.3004V8.84659H65.3146C66.0192 8.84659 66.6044 8.75 67.0703 8.55682C67.5362 8.36364 67.8828 8.07386 68.1101 7.6875C68.343 7.30114 68.4595 6.82102 68.4595 6.24716C68.4595 5.66761 68.343 5.17898 68.1101 4.78125C67.8828 4.38352 67.5334 4.08239 67.0618 3.87784C66.5959 3.66761 66.0078 3.5625 65.2976 3.5625H62.8089V18H59.1186ZM68.5447 10.0568L72.8828 18H68.8089L64.5646 10.0568H68.5447ZM78.5589 0.545454V18H74.8686V0.545454H78.5589ZM97.6349 9.27273C97.6349 11.1761 97.2741 12.7955 96.5526 14.1307C95.8366 15.4659 94.8594 16.4858 93.6207 17.1903C92.3878 17.8892 91.0014 18.2386 89.4616 18.2386C87.9105 18.2386 86.5185 17.8864 85.2855 17.1818C84.0526 16.4773 83.0781 15.4574 82.3622 14.1222C81.6463 12.7869 81.2884 11.1705 81.2884 9.27273C81.2884 7.36932 81.6463 5.75 82.3622 4.41477C83.0781 3.07955 84.0526 2.0625 85.2855 1.36364C86.5185 0.659091 87.9105 0.306818 89.4616 0.306818C91.0014 0.306818 92.3878 0.659091 93.6207 1.36364C94.8594 2.0625 95.8366 3.07955 96.5526 4.41477C97.2741 5.75 97.6349 7.36932 97.6349 9.27273ZM93.8935 9.27273C93.8935 8.03977 93.7088 7 93.3395 6.15341C92.9759 5.30682 92.4616 4.66477 91.7969 4.22727C91.1321 3.78977 90.3537 3.57102 89.4616 3.57102C88.5696 3.57102 87.7912 3.78977 87.1264 4.22727C86.4616 4.66477 85.9446 5.30682 85.5753 6.15341C85.2116 7 85.0298 8.03977 85.0298 9.27273C85.0298 10.5057 85.2116 11.5455 85.5753 12.392C85.9446 13.2386 86.4616 13.8807 87.1264 14.3182C87.7912 14.7557 88.5696 14.9744 89.4616 14.9744C90.3537 14.9744 91.1321 14.7557 91.7969 14.3182C92.4616 13.8807 92.9759 13.2386 93.3395 12.392C93.7088 11.5455 93.8935 10.5057 93.8935 9.27273ZM100.369 18V0.545454H107.255C108.573 0.545454 109.698 0.78125 110.63 1.25284C111.567 1.71875 112.281 2.38068 112.769 3.23864C113.263 4.09091 113.511 5.09375 113.511 6.24716C113.511 7.40625 113.261 8.40341 112.761 9.23864C112.261 10.0682 111.536 10.7045 110.587 11.1477C109.644 11.5909 108.502 11.8125 107.161 11.8125H102.55V8.84659H106.565C107.269 8.84659 107.854 8.75 108.32 8.55682C108.786 8.36364 109.133 8.07386 109.36 7.6875C109.593 7.30114 109.71 6.82102 109.71 6.24716C109.71 5.66761 109.593 5.17898 109.36 4.78125C109.133 4.38352 108.783 4.08239 108.312 3.87784C107.846 3.66761 107.258 3.5625 106.548 3.5625H104.059V18H100.369ZM109.795 10.0568L114.133 18H110.059L105.815 10.0568H109.795ZM121.673 18V0.545454H125.364V7.74716H132.855V0.545454H136.537V18H132.855V10.7898H125.364V18H121.673ZM139.58 18V0.545454H151.341V3.58807H143.27V7.74716H150.736V10.7898H143.27V14.9574H151.375V18H139.58ZM157.283 18H153.329L159.354 0.545454H164.11L170.127 18H166.173L161.8 4.53409H161.664L157.283 18ZM157.036 11.1392H166.377V14.0199H157.036V11.1392ZM169.43 3.58807V0.545454H183.766V3.58807H178.422V18H174.774V3.58807H169.43ZM189.817 0.545454V18H186.126V0.545454H189.817ZM207.452 0.545454V18H204.265L196.671 7.0142H196.543V18H192.853V0.545454H196.092L203.626 11.5227H203.779V0.545454H207.452ZM222.075 6.1875C221.956 5.77273 221.788 5.40625 221.572 5.08807C221.357 4.7642 221.092 4.49148 220.78 4.26989C220.473 4.04261 220.121 3.86932 219.723 3.75C219.331 3.63068 218.896 3.57102 218.419 3.57102C217.527 3.57102 216.743 3.79261 216.067 4.23579C215.396 4.67898 214.874 5.32386 214.499 6.17045C214.124 7.01136 213.936 8.03977 213.936 9.25568C213.936 10.4716 214.121 11.5057 214.49 12.358C214.859 13.2102 215.382 13.8608 216.058 14.3097C216.734 14.7528 217.533 14.9744 218.453 14.9744C219.288 14.9744 220.001 14.8267 220.592 14.5312C221.189 14.2301 221.643 13.8068 221.956 13.2614C222.274 12.7159 222.433 12.071 222.433 11.3267L223.183 11.4375H218.683V8.65909H225.987V10.858C225.987 12.392 225.663 13.7102 225.016 14.8125C224.368 15.9091 223.476 16.7557 222.339 17.3523C221.203 17.9432 219.902 18.2386 218.436 18.2386C216.8 18.2386 215.362 17.8778 214.124 17.1562C212.885 16.429 211.919 15.3977 211.226 14.0625C210.538 12.7216 210.195 11.1307 210.195 9.28977C210.195 7.875 210.399 6.61364 210.808 5.50568C211.223 4.39205 211.803 3.44886 212.547 2.67614C213.291 1.90341 214.158 1.31534 215.146 0.911931C216.135 0.508522 217.206 0.306818 218.359 0.306818C219.348 0.306818 220.268 0.451704 221.121 0.741477C221.973 1.02557 222.729 1.42898 223.388 1.9517C224.053 2.47443 224.595 3.09659 225.016 3.81818C225.436 4.53409 225.706 5.32386 225.825 6.1875H222.075Z" fill="white"/>
<path d="M7.70739 0.545454H8.70739V-0.454546H7.70739V0.545454ZM7.70739 18V19H8.70739V18H7.70739ZM4.01705 18H3.01705V19H4.01705V18ZM4.01705 0.545454V-0.454546H3.01705V0.545454H4.01705ZM6.70739 0.545454V18H8.70739V0.545454H6.70739ZM7.70739 17H4.01705V19H7.70739V17ZM5.01705 18V0.545454H3.01705V18H5.01705ZM4.01705 1.54545H7.70739V-0.454546H4.01705V1.54545ZM25.343 0.545454H26.343V-0.454546H25.343V0.545454ZM25.343 18V19H26.343V18H25.343ZM22.1555 18L21.3329 18.5686L21.6311 19H22.1555V18ZM14.5618 7.0142L15.3844 6.44559L15.0862 6.0142H14.5618V7.0142ZM14.4339 7.0142V6.0142H13.4339V7.0142H14.4339ZM14.4339 18V19H15.4339V18H14.4339ZM10.7436 18H9.74361V19H10.7436V18ZM10.7436 0.545454V-0.454546H9.74361V0.545454H10.7436ZM13.9822 0.545454L14.8067 -0.0204225L14.5088 -0.454546H13.9822V0.545454ZM21.5163 11.5227L20.6918 12.0886L20.9898 12.5227H21.5163V11.5227ZM21.6697 11.5227V12.5227H22.6697V11.5227H21.6697ZM21.6697 0.545454V-0.454546H20.6697V0.545454H21.6697ZM24.343 0.545454V18H26.343V0.545454H24.343ZM25.343 17H22.1555V19H25.343V17ZM22.9781 17.4314L15.3844 6.44559L13.7392 7.58282L21.3329 18.5686L22.9781 17.4314ZM14.5618 6.0142H14.4339V8.0142H14.5618V6.0142ZM13.4339 7.0142V18H15.4339V7.0142H13.4339ZM14.4339 17H10.7436V19H14.4339V17ZM11.7436 18V0.545454H9.74361V18H11.7436ZM10.7436 1.54545H13.9822V-0.454546H10.7436V1.54545ZM13.1578 1.11133L20.6918 12.0886L22.3408 10.9569L14.8067 -0.0204225L13.1578 1.11133ZM21.5163 12.5227H21.6697V10.5227H21.5163V12.5227ZM22.6697 11.5227V0.545454H20.6697V11.5227H22.6697ZM21.6697 1.54545H25.343V-0.454546H21.6697V1.54545ZM27.7273 3.58807H26.7273V4.58807H27.7273V3.58807ZM27.7273 0.545454V-0.454546H26.7273V0.545454H27.7273ZM42.0625 0.545454H43.0625V-0.454546H42.0625V0.545454ZM42.0625 3.58807V4.58807H43.0625V3.58807H42.0625ZM36.7188 3.58807V2.58807H35.7188V3.58807H36.7188ZM36.7188 18V19H37.7188V18H36.7188ZM33.071 18H32.071V19H33.071V18ZM33.071 3.58807H34.071V2.58807H33.071V3.58807ZM28.7273 3.58807V0.545454H26.7273V3.58807H28.7273ZM27.7273 1.54545H42.0625V-0.454546H27.7273V1.54545ZM41.0625 0.545454V3.58807H43.0625V0.545454H41.0625ZM42.0625 2.58807H36.7188V4.58807H42.0625V2.58807ZM35.7188 3.58807V18H37.7188V3.58807H35.7188ZM36.7188 17H33.071V19H36.7188V17ZM34.071 18V3.58807H32.071V18H34.071ZM33.071 2.58807H27.7273V4.58807H33.071V2.58807ZM44.4233 18H43.4233V19H44.4233V18ZM44.4233 0.545454V-0.454546H43.4233V0.545454H44.4233ZM56.1847 0.545454H57.1847V-0.454546H56.1847V0.545454ZM56.1847 3.58807V4.58807H57.1847V3.58807H56.1847ZM48.1136 3.58807V2.58807H47.1136V3.58807H48.1136ZM48.1136 7.74716H47.1136V8.74716H48.1136V7.74716ZM55.5795 7.74716H56.5795V6.74716H55.5795V7.74716ZM55.5795 10.7898V11.7898H56.5795V10.7898H55.5795ZM48.1136 10.7898V9.78977H47.1136V10.7898H48.1136ZM48.1136 14.9574H47.1136V15.9574H48.1136V14.9574ZM56.2188 14.9574H57.2188V13.9574H56.2188V14.9574ZM56.2188 18V19H57.2188V18H56.2188ZM45.4233 18V0.545454H43.4233V18H45.4233ZM44.4233 1.54545H56.1847V-0.454546H44.4233V1.54545ZM55.1847 0.545454V3.58807H57.1847V0.545454H55.1847ZM56.1847 2.58807H48.1136V4.58807H56.1847V2.58807ZM47.1136 3.58807V7.74716H49.1136V3.58807H47.1136ZM48.1136 8.74716H55.5795V6.74716H48.1136V8.74716ZM54.5795 7.74716V10.7898H56.5795V7.74716H54.5795ZM55.5795 9.78977H48.1136V11.7898H55.5795V9.78977ZM47.1136 10.7898V14.9574H49.1136V10.7898H47.1136ZM48.1136 15.9574H56.2188V13.9574H48.1136V15.9574ZM55.2188 14.9574V18H57.2188V14.9574H55.2188ZM56.2188 17H44.4233V19H56.2188V17ZM59.1186 18H58.1186V19H59.1186V18ZM59.1186 0.545454V-0.454546H58.1186V0.545454H59.1186ZM69.38 1.25284L68.9284 2.1451L68.9349 2.14835L69.38 1.25284ZM71.5192 3.23864L70.6502 3.73355L70.6541 3.74036L71.5192 3.23864ZM71.5107 9.23864L72.3671 9.75486L72.3687 9.75227L71.5107 9.23864ZM69.3374 11.1477L68.9142 10.2417L68.9121 10.2427L69.3374 11.1477ZM61.3004 11.8125H60.3004V12.8125H61.3004V11.8125ZM61.3004 8.84659V7.84659H60.3004V8.84659H61.3004ZM67.0703 8.55682L67.4533 9.48056H67.4533L67.0703 8.55682ZM68.1101 7.6875L67.2537 7.17112L67.2482 7.18048L68.1101 7.6875ZM68.1101 4.78125L67.2418 5.27742L67.2472 5.28665L68.1101 4.78125ZM67.0618 3.87784L66.6505 4.78935L66.6572 4.79235L66.6639 4.79526L67.0618 3.87784ZM62.8089 3.5625V2.5625H61.8089V3.5625H62.8089ZM62.8089 18V19H63.8089V18H62.8089ZM68.5447 10.0568L69.4224 9.5775L69.138 9.05682H68.5447V10.0568ZM72.8828 18V19H74.5684L73.7605 17.5207L72.8828 18ZM68.809 18L67.927 18.4713L68.2095 19H68.809V18ZM64.5646 10.0568V9.05682H62.8965L63.6826 10.5281L64.5646 10.0568ZM60.1186 18V0.545454H58.1186V18H60.1186ZM59.1186 1.54545H66.005V-0.454546H59.1186V1.54545ZM66.005 1.54545C67.2064 1.54545 68.1684 1.76046 68.9284 2.14508L69.8315 0.3606C68.7279 -0.197958 67.4399 -0.454546 66.005 -0.454546V1.54545ZM68.9349 2.14835C69.7058 2.53143 70.266 3.05892 70.6502 3.73353L72.3881 2.74374C71.7951 1.70244 70.9292 0.906069 69.825 0.35733L68.9349 2.14835ZM70.6541 3.74036C71.046 4.41594 71.2607 5.23961 71.2607 6.24716H73.2607C73.2607 4.94789 72.981 3.76588 72.3842 2.73692L70.6541 3.74036ZM71.2607 6.24716C71.2607 7.26007 71.0434 8.0723 70.6526 8.725L72.3687 9.75227C72.9779 8.73452 73.2607 7.55243 73.2607 6.24716H71.2607ZM70.6542 8.72242C70.2651 9.36796 69.6984 9.87539 68.9142 10.2417L69.7605 12.0538C70.874 11.5337 71.7562 10.7684 72.3671 9.75486L70.6542 8.72242ZM68.9121 10.2427C68.1344 10.6081 67.1457 10.8125 65.9112 10.8125V12.8125C67.3585 12.8125 68.654 12.5737 69.7626 12.0528L68.9121 10.2427ZM65.9112 10.8125H61.3004V12.8125H65.9112V10.8125ZM62.3004 11.8125V8.84659H60.3004V11.8125H62.3004ZM61.3004 9.84659H65.3146V7.84659H61.3004V9.84659ZM65.3146 9.84659C66.1021 9.84659 66.828 9.73982 67.4533 9.48056L66.6873 7.63308C66.3808 7.76018 65.9362 7.84659 65.3146 7.84659V9.84659ZM67.4533 9.48056C68.0935 9.21511 68.621 8.79131 68.972 8.19452L67.2482 7.18048C67.1447 7.35642 66.9789 7.51217 66.6873 7.63308L67.4533 9.48056ZM68.9665 8.20385C69.3157 7.62456 69.4595 6.95419 69.4595 6.24716H67.4595C67.4595 6.68786 67.3703 6.97771 67.2537 7.17115L68.9665 8.20385ZM69.4595 6.24716C69.4595 5.5351 69.3161 4.86162 68.973 4.27585L67.2472 5.28665C67.37 5.49633 67.4595 5.80013 67.4595 6.24716H69.4595ZM68.9783 4.28511C68.6309 3.67716 68.1041 3.2399 67.4597 2.96042L66.6639 4.79526C66.9627 4.92487 67.1347 5.08989 67.2418 5.27739L68.9783 4.28511ZM67.4731 2.96634C66.8379 2.67972 66.0979 2.5625 65.2976 2.5625V4.5625C65.9177 4.5625 66.3539 4.65551 66.6505 4.78935L67.4731 2.96634ZM65.2976 2.5625H62.8089V4.5625H65.2976V2.5625ZM61.8089 3.5625V18H63.8089V3.5625H61.8089ZM62.8089 17H59.1186V19H62.8089V17ZM67.6671 10.5361L72.0052 18.4793L73.7605 17.5207L69.4224 9.5775L67.6671 10.5361ZM72.8828 17H68.809V19H72.8828V17ZM69.6909 17.5287L65.4466 9.58554L63.6826 10.5281L67.927 18.4713L69.6909 17.5287ZM64.5646 11.0568H68.5447V9.05682H64.5646V11.0568ZM78.559 0.545454H79.559V-0.454546H78.559V0.545454ZM78.559 18V19H79.559V18H78.559ZM74.8686 18H73.8686V19H74.8686V18ZM74.8686 0.545454V-0.454546H73.8686V0.545454H74.8686ZM77.559 0.545454V18H79.559V0.545454H77.559ZM78.559 17H74.8686V19H78.559V17ZM75.8686 18V0.545454H73.8686V18H75.8686ZM74.8686 1.54545H78.559V-0.454546H74.8686V1.54545ZM96.5526 14.1307L95.6728 13.6552L95.6712 13.6581L96.5526 14.1307ZM93.6207 17.1903L94.1139 18.0603L94.1152 18.0596L93.6207 17.1903ZM85.2855 17.1818L85.7816 16.3136L85.2855 17.1818ZM82.3622 14.1222L81.4809 14.5947L82.3622 14.1222ZM82.3622 4.41477L83.2435 4.88731V4.88731L82.3622 4.41477ZM85.2855 1.36364L85.7786 2.23361L85.7817 2.23188L85.2855 1.36364ZM93.6207 1.36364L93.1246 2.23189L93.1293 2.23457L93.6207 1.36364ZM96.5526 4.41477L95.6712 4.88731L95.6728 4.89021L96.5526 4.41477ZM93.3395 6.15341L92.4206 6.54808L92.4229 6.55326L93.3395 6.15341ZM91.7969 4.22727L91.2471 5.0626L91.7969 4.22727ZM87.1264 4.22727L87.6762 5.0626L87.1264 4.22727ZM85.5753 6.15341L84.6587 5.75355L84.6565 5.75875L85.5753 6.15341ZM85.5753 12.392L84.6564 12.7867L84.6587 12.7919L85.5753 12.392ZM87.1264 14.3182L87.6762 13.4829L87.1264 14.3182ZM91.7969 14.3182L91.2471 13.4829L91.7969 14.3182ZM93.3395 12.392L92.4229 11.9922L92.4207 11.9974L93.3395 12.392ZM96.6349 9.27273C96.6349 11.0515 96.2979 12.4986 95.6728 13.6552L97.4323 14.6061C98.2504 13.0923 98.6349 11.3007 98.6349 9.27273H96.6349ZM95.6712 13.6581C95.0385 14.8383 94.1907 15.7157 93.1263 16.3211L94.1152 18.0596C95.528 17.2559 96.6348 16.0935 97.4339 14.6032L95.6712 13.6581ZM93.1276 16.3204C92.0579 16.9267 90.844 17.2386 89.4616 17.2386V19.2386C91.1589 19.2386 92.7177 18.8517 94.1139 18.0603L93.1276 16.3204ZM89.4616 17.2386C88.068 17.2386 86.8498 16.9239 85.7816 16.3136L84.7894 18.0501C86.1871 18.8488 87.753 19.2386 89.4616 19.2386V17.2386ZM85.7816 16.3136C84.7227 15.7085 83.8769 14.831 83.2435 13.6496L81.4809 14.5947C82.2793 16.0838 83.3824 17.2461 84.7894 18.0501L85.7816 16.3136ZM83.2435 13.6496C82.6228 12.4919 82.2884 11.0464 82.2884 9.27273H80.2884C80.2884 11.2945 80.6698 13.0819 81.4809 14.5947L83.2435 13.6496ZM82.2884 9.27273C82.2884 7.49277 82.623 6.04462 83.2435 4.88731L81.4809 3.94224C80.6696 5.45538 80.2884 7.24587 80.2884 9.27273H82.2884ZM83.2435 4.88731C83.8766 3.70657 84.7215 2.83282 85.7786 2.2336L84.7924 0.493671C83.3837 1.29218 82.2796 2.45252 81.4809 3.94224L83.2435 4.88731ZM85.7817 2.23188C86.8498 1.62152 88.068 1.30682 89.4616 1.30682V-0.693182C87.753 -0.693182 86.1871 -0.303336 84.7894 0.495394L85.7817 2.23188ZM89.4616 1.30682C90.8425 1.30682 92.0554 1.62088 93.1246 2.23188L94.1169 0.495394C92.7202 -0.302697 91.1603 -0.693182 89.4616 -0.693182V1.30682ZM93.1293 2.23457C94.1919 2.83412 95.0388 3.70775 95.6712 4.88731L97.4339 3.94224C96.6345 2.45134 95.5268 1.29088 94.1121 0.492702L93.1293 2.23457ZM95.6728 4.89021C96.2979 6.04686 96.6349 7.49391 96.6349 9.27273H98.6349C98.6349 7.24472 98.2504 5.45314 97.4323 3.93933L95.6728 4.89021ZM94.8935 9.27273C94.8935 7.94583 94.6955 6.76094 94.2561 5.75356L92.4229 6.55326C92.7221 7.23906 92.8935 8.13372 92.8935 9.27273H94.8935ZM94.2583 5.75875C93.8299 4.76139 93.1995 3.95322 92.3466 3.39194L91.2471 5.0626C91.7238 5.37633 92.1218 5.85224 92.4207 6.54807L94.2583 5.75875ZM92.3466 3.39194C91.4993 2.83433 90.5247 2.57102 89.4616 2.57102V4.57102C90.1827 4.57102 90.7649 4.74522 91.2471 5.0626L92.3466 3.39194ZM89.4616 2.57102C88.3986 2.57102 87.424 2.83433 86.5767 3.39194L87.6762 5.0626C88.1584 4.74522 88.7406 4.57102 89.4616 4.57102V2.57102ZM86.5767 3.39194C85.7253 3.95224 85.0928 4.75851 84.6587 5.75356L86.4919 6.55326C86.7964 5.85513 87.198 5.37731 87.6762 5.0626L86.5767 3.39194ZM84.6565 5.75875C84.2244 6.76452 84.0298 7.94747 84.0298 9.27273H86.0298C86.0298 8.13207 86.1988 7.23548 86.4941 6.54807L84.6565 5.75875ZM84.0298 9.27273C84.0298 10.598 84.2244 11.7809 84.6565 12.7867L86.4941 11.9974C86.1988 11.31 86.0298 10.4134 86.0298 9.27273H84.0298ZM84.6587 12.7919C85.0928 13.7869 85.7253 14.5932 86.5767 15.1535L87.6762 13.4829C87.198 13.1681 86.7964 12.6903 86.4919 11.9922L84.6587 12.7919ZM86.5767 15.1535C87.424 15.7111 88.3986 15.9744 89.4616 15.9744V13.9744C88.7406 13.9744 88.1584 13.8002 87.6762 13.4829L86.5767 15.1535ZM89.4616 15.9744C90.5247 15.9744 91.4993 15.7111 92.3466 15.1535L91.2471 13.4829C90.7649 13.8002 90.1827 13.9744 89.4616 13.9744V15.9744ZM92.3466 15.1535C93.1995 14.5922 93.8299 13.7841 94.2583 12.7867L92.4207 11.9974C92.1218 12.6932 91.7238 13.1691 91.2471 13.4829L92.3466 15.1535ZM94.2561 12.7919C94.6955 11.7845 94.8935 10.5996 94.8935 9.27273H92.8935C92.8935 10.4117 92.7221 11.3064 92.4229 11.9922L94.2561 12.7919ZM100.369 18H99.3686V19H100.369V18ZM100.369 0.545454V-0.454546H99.3686V0.545454H100.369ZM110.63 1.25284L110.178 2.1451L110.185 2.14835L110.63 1.25284ZM112.769 3.23864L111.9 3.73355L111.904 3.74036L112.769 3.23864ZM112.761 9.23864L113.617 9.75486L113.619 9.75227L112.761 9.23864ZM110.587 11.1477L110.164 10.2417L110.162 10.2427L110.587 11.1477ZM102.55 11.8125H101.55V12.8125H102.55V11.8125ZM102.55 8.84659V7.84659H101.55V8.84659H102.55ZM108.32 8.55682L108.703 9.48056H108.703L108.32 8.55682ZM109.36 7.6875L108.504 7.17112L108.498 7.18048L109.36 7.6875ZM109.36 4.78125L108.492 5.27742L108.497 5.28665L109.36 4.78125ZM108.312 3.87784L107.901 4.78935L107.907 4.79235L107.914 4.79526L108.312 3.87784ZM104.059 3.5625V2.5625H103.059V3.5625H104.059ZM104.059 18V19H105.059V18H104.059ZM109.795 10.0568L110.672 9.5775L110.388 9.05682H109.795V10.0568ZM114.133 18V19H115.818L115.01 17.5207L114.133 18ZM110.059 18L109.177 18.4713L109.459 19H110.059V18ZM105.815 10.0568V9.05682H104.146L104.933 10.5281L105.815 10.0568ZM101.369 18V0.545454H99.3686V18H101.369ZM100.369 1.54545H107.255V-0.454546H100.369V1.54545ZM107.255 1.54545C108.456 1.54545 109.418 1.76046 110.178 2.14508L111.082 0.3606C109.978 -0.197958 108.69 -0.454546 107.255 -0.454546V1.54545ZM110.185 2.14835C110.956 2.53143 111.516 3.05892 111.9 3.73353L113.638 2.74374C113.045 1.70244 112.179 0.906069 111.075 0.35733L110.185 2.14835ZM111.904 3.74036C112.296 4.41594 112.511 5.23961 112.511 6.24716H114.511C114.511 4.94789 114.231 3.76588 113.634 2.73692L111.904 3.74036ZM112.511 6.24716C112.511 7.26007 112.293 8.0723 111.903 8.725L113.619 9.75227C114.228 8.73452 114.511 7.55243 114.511 6.24716H112.511ZM111.904 8.72242C111.515 9.36796 110.948 9.87539 110.164 10.2417L111.011 12.0538C112.124 11.5337 113.006 10.7684 113.617 9.75486L111.904 8.72242ZM110.162 10.2427C109.384 10.6081 108.396 10.8125 107.161 10.8125V12.8125C108.609 12.8125 109.904 12.5737 111.013 12.0528L110.162 10.2427ZM107.161 10.8125H102.55V12.8125H107.161V10.8125ZM103.55 11.8125V8.84659H101.55V11.8125H103.55ZM102.55 9.84659H106.565V7.84659H102.55V9.84659ZM106.565 9.84659C107.352 9.84659 108.078 9.73982 108.703 9.48056L107.937 7.63308C107.631 7.76018 107.186 7.84659 106.565 7.84659V9.84659ZM108.703 9.48056C109.344 9.21511 109.871 8.79131 110.222 8.19452L108.498 7.18048C108.395 7.35642 108.229 7.51217 107.937 7.63308L108.703 9.48056ZM110.216 8.20385C110.566 7.62456 110.71 6.95419 110.71 6.24716H108.71C108.71 6.68786 108.62 6.97771 108.504 7.17115L110.216 8.20385ZM110.71 6.24716C110.71 5.5351 110.566 4.86162 110.223 4.27585L108.497 5.28665C108.62 5.49633 108.71 5.80013 108.71 6.24716H110.71ZM110.228 4.28511C109.881 3.67716 109.354 3.2399 108.71 2.96042L107.914 4.79526C108.213 4.92487 108.385 5.08989 108.492 5.27739L110.228 4.28511ZM108.723 2.96634C108.088 2.67972 107.348 2.5625 106.548 2.5625V4.5625C107.168 4.5625 107.604 4.65551 107.901 4.78935L108.723 2.96634ZM106.548 2.5625H104.059V4.5625H106.548V2.5625ZM103.059 3.5625V18H105.059V3.5625H103.059ZM104.059 17H100.369V19H104.059V17ZM108.917 10.5361L113.255 18.4793L115.01 17.5207L110.672 9.5775L108.917 10.5361ZM114.133 17H110.059V19H114.133V17ZM110.941 17.5287L106.697 9.58554L104.933 10.5281L109.177 18.4713L110.941 17.5287ZM105.815 11.0568H109.795V9.05682H105.815V11.0568ZM121.673 18H120.673V19H121.673V18ZM121.673 0.545454V-0.454546H120.673V0.545454H121.673ZM125.364 0.545454H126.364V-0.454546H125.364V0.545454ZM125.364 7.74716H124.364V8.74716H125.364V7.74716ZM132.855 7.74716V8.74716H133.855V7.74716H132.855ZM132.855 0.545454V-0.454546H131.855V0.545454H132.855ZM136.537 0.545454H137.537V-0.454546H136.537V0.545454ZM136.537 18V19H137.537V18H136.537ZM132.855 18H131.855V19H132.855V18ZM132.855 10.7898H133.855V9.78977H132.855V10.7898ZM125.364 10.7898V9.78977H124.364V10.7898H125.364ZM125.364 18V19H126.364V18H125.364ZM122.673 18V0.545454H120.673V18H122.673ZM121.673 1.54545H125.364V-0.454546H121.673V1.54545ZM124.364 0.545454V7.74716H126.364V0.545454H124.364ZM125.364 8.74716H132.855V6.74716H125.364V8.74716ZM133.855 7.74716V0.545454H131.855V7.74716H133.855ZM132.855 1.54545H136.537V-0.454546H132.855V1.54545ZM135.537 0.545454V18H137.537V0.545454H135.537ZM136.537 17H132.855V19H136.537V17ZM133.855 18V10.7898H131.855V18H133.855ZM132.855 9.78977H125.364V11.7898H132.855V9.78977ZM124.364 10.7898V18H126.364V10.7898H124.364ZM125.364 17H121.673V19H125.364V17ZM139.58 18H138.58V19H139.58V18ZM139.58 0.545454V-0.454546H138.58V0.545454H139.58ZM151.341 0.545454H152.341V-0.454546H151.341V0.545454ZM151.341 3.58807V4.58807H152.341V3.58807H151.341ZM143.27 3.58807V2.58807H142.27V3.58807H143.27ZM143.27 7.74716H142.27V8.74716H143.27V7.74716ZM150.736 7.74716H151.736V6.74716H150.736V7.74716ZM150.736 10.7898V11.7898H151.736V10.7898H150.736ZM143.27 10.7898V9.78977H142.27V10.7898H143.27ZM143.27 14.9574H142.27V15.9574H143.27V14.9574ZM151.375 14.9574H152.375V13.9574H151.375V14.9574ZM151.375 18V19H152.375V18H151.375ZM140.58 18V0.545454H138.58V18H140.58ZM139.58 1.54545H151.341V-0.454546H139.58V1.54545ZM150.341 0.545454V3.58807H152.341V0.545454H150.341ZM151.341 2.58807H143.27V4.58807H151.341V2.58807ZM142.27 3.58807V7.74716H144.27V3.58807H142.27ZM143.27 8.74716H150.736V6.74716H143.27V8.74716ZM149.736 7.74716V10.7898H151.736V7.74716H149.736ZM150.736 9.78977H143.27V11.7898H150.736V9.78977ZM142.27 10.7898V14.9574H144.27V10.7898H142.27ZM143.27 15.9574H151.375V13.9574H143.27V15.9574ZM150.375 14.9574V18H152.375V14.9574H150.375ZM151.375 17H139.58V19H151.375V17ZM157.283 18V19H158.01L158.234 18.3094L157.283 18ZM153.329 18L152.384 17.6737L151.926 19H153.329V18ZM159.354 0.545454V-0.454546H158.642L158.409 0.219136L159.354 0.545454ZM164.11 0.545454L165.055 0.219549L164.823 -0.454546H164.11V0.545454ZM170.127 18V19H171.53L171.073 17.6741L170.127 18ZM166.173 18L165.221 18.3088L165.446 19H166.173V18ZM161.8 4.53409L162.752 4.22528L162.527 3.53409H161.8V4.53409ZM161.664 4.53409V3.53409H160.938L160.713 4.22473L161.664 4.53409ZM157.036 11.1392V10.1392H156.036V11.1392H157.036ZM166.377 11.1392H167.377V10.1392H166.377V11.1392ZM166.377 14.0199V15.0199H167.377V14.0199H166.377ZM157.036 14.0199H156.036V15.0199H157.036V14.0199ZM157.283 17H153.329V19H157.283V17ZM154.274 18.3263L160.3 0.871772L158.409 0.219136L152.384 17.6737L154.274 18.3263ZM159.354 1.54545H164.11V-0.454546H159.354V1.54545ZM163.165 0.871359L169.182 18.3259L171.073 17.6741L165.055 0.219549L163.165 0.871359ZM170.127 17H166.173V19H170.127V17ZM167.124 17.6912L162.752 4.22528L160.849 4.8429L165.221 18.3088L167.124 17.6912ZM161.8 3.53409H161.664V5.53409H161.8V3.53409ZM160.713 4.22473L156.332 17.6906L158.234 18.3094L162.615 4.84345L160.713 4.22473ZM157.036 12.1392H166.377V10.1392H157.036V12.1392ZM165.377 11.1392V14.0199H167.377V11.1392H165.377ZM166.377 13.0199H157.036V15.0199H166.377V13.0199ZM158.036 14.0199V11.1392H156.036V14.0199H158.036ZM169.43 3.58807H168.43V4.58807H169.43V3.58807ZM169.43 0.545454V-0.454546H168.43V0.545454H169.43ZM183.766 0.545454H184.766V-0.454546H183.766V0.545454ZM183.766 3.58807V4.58807H184.766V3.58807H183.766ZM178.422 3.58807V2.58807H177.422V3.58807H178.422ZM178.422 18V19H179.422V18H178.422ZM174.774 18H173.774V19H174.774V18ZM174.774 3.58807H175.774V2.58807H174.774V3.58807ZM170.43 3.58807V0.545454H168.43V3.58807H170.43ZM169.43 1.54545H183.766V-0.454546H169.43V1.54545ZM182.766 0.545454V3.58807H184.766V0.545454H182.766ZM183.766 2.58807H178.422V4.58807H183.766V2.58807ZM177.422 3.58807V18H179.422V3.58807H177.422ZM178.422 17H174.774V19H178.422V17ZM175.774 18V3.58807H173.774V18H175.774ZM174.774 2.58807H169.43V4.58807H174.774V2.58807ZM189.817 0.545454H190.817V-0.454546H189.817V0.545454ZM189.817 18V19H190.817V18H189.817ZM186.126 18H185.126V19H186.126V18ZM186.126 0.545454V-0.454546H185.126V0.545454H186.126ZM188.817 0.545454V18H190.817V0.545454H188.817ZM189.817 17H186.126V19H189.817V17ZM187.126 18V0.545454H185.126V18H187.126ZM186.126 1.54545H189.817V-0.454546H186.126V1.54545ZM207.452 0.545454H208.452V-0.454546H207.452V0.545454ZM207.452 18V19H208.452V18H207.452ZM204.265 18L203.442 18.5686L203.74 19H204.265V18ZM196.671 7.0142L197.494 6.44559L197.196 6.0142H196.671V7.0142ZM196.543 7.0142V6.0142H195.543V7.0142H196.543ZM196.543 18V19H197.543V18H196.543ZM192.853 18H191.853V19H192.853V18ZM192.853 0.545454V-0.454546H191.853V0.545454H192.853ZM196.092 0.545454L196.916 -0.0204225L196.618 -0.454546H196.092V0.545454ZM203.626 11.5227L202.801 12.0886L203.099 12.5227H203.626V11.5227ZM203.779 11.5227V12.5227H204.779V11.5227H203.779ZM203.779 0.545454V-0.454546H202.779V0.545454H203.779ZM206.452 0.545454V18H208.452V0.545454H206.452ZM207.452 17H204.265V19H207.452V17ZM205.088 17.4314L197.494 6.44559L195.849 7.58282L203.442 18.5686L205.088 17.4314ZM196.671 6.0142H196.543V8.0142H196.671V6.0142ZM195.543 7.0142V18H197.543V7.0142H195.543ZM196.543 17H192.853V19H196.543V17ZM193.853 18V0.545454H191.853V18H193.853ZM192.853 1.54545H196.092V-0.454546H192.853V1.54545ZM195.267 1.11133L202.801 12.0886L204.45 10.9569L196.916 -0.0204225L195.267 1.11133ZM203.626 12.5227H203.779V10.5227H203.626V12.5227ZM204.779 11.5227V0.545454H202.779V11.5227H204.779ZM203.779 1.54545H207.452V-0.454546H203.779V1.54545ZM222.075 6.1875L221.114 6.46396L221.322 7.1875H222.075V6.1875ZM221.572 5.08807L220.74 5.64279L220.745 5.64957L221.572 5.08807ZM220.78 4.26989L220.185 5.07344L220.193 5.07962L220.201 5.08562L220.78 4.26989ZM219.723 3.75L219.432 4.70668L219.436 4.70783L219.723 3.75ZM216.067 4.23579L215.519 3.39944L215.515 3.40158L216.067 4.23579ZM214.499 6.17045L215.412 6.57774L215.413 6.57545L214.499 6.17045ZM216.058 14.3097L215.505 15.1428L215.51 15.146L216.058 14.3097ZM220.592 14.5312L221.04 15.4257L221.043 15.424L220.592 14.5312ZM221.956 13.2614L221.092 12.7575L221.088 12.7643L221.956 13.2614ZM222.433 11.3267L222.579 10.3374L221.433 10.1681V11.3267H222.433ZM223.183 11.4375V12.4375L223.329 10.4482L223.183 11.4375ZM218.683 11.4375H217.683V12.4375H218.683V11.4375ZM218.683 8.65909V7.65909H217.683V8.65909H218.683ZM225.987 8.65909H226.987V7.65909H225.987V8.65909ZM225.016 14.8125L225.877 15.3211L225.878 15.3191L225.016 14.8125ZM222.339 17.3523L222.801 18.2395L222.804 18.2377L222.339 17.3523ZM214.124 17.1562L213.617 18.0186L213.62 18.0203L214.124 17.1562ZM211.226 14.0625L210.336 14.5187L210.338 14.5233L211.226 14.0625ZM210.808 5.50568L209.871 5.15665L209.87 5.15931L210.808 5.50568ZM212.547 2.67614L213.267 3.36988H213.267L212.547 2.67614ZM215.146 0.911931L214.769 -0.0139546L215.146 0.911931ZM221.121 0.741477L220.799 1.68827L220.805 1.69016L221.121 0.741477ZM223.388 1.9517L222.766 2.73521L222.77 2.73779L223.388 1.9517ZM225.016 3.81818L224.152 4.32163L224.153 4.3246L225.016 3.81818ZM225.825 6.1875V7.1875H226.973L226.816 6.05064L225.825 6.1875ZM223.036 5.91104C222.891 5.40707 222.682 4.94209 222.4 4.52657L220.745 5.64957C220.895 5.87041 221.021 6.13838 221.114 6.46396L223.036 5.91104ZM222.404 4.53337C222.122 4.10938 221.772 3.74766 221.358 3.45415L220.201 5.08562C220.412 5.2353 220.591 5.41903 220.74 5.64277L222.404 4.53337ZM221.375 3.46633C220.967 3.16444 220.509 2.94181 220.01 2.79217L219.436 4.70783C219.732 4.79682 219.979 4.92079 220.185 5.07344L221.375 3.46633ZM220.014 2.79333C219.514 2.64101 218.979 2.57102 218.419 2.57102V4.57102C218.813 4.57102 219.148 4.62035 219.432 4.70667L220.014 2.79333ZM218.419 2.57102C217.353 2.57102 216.374 2.83857 215.519 3.39944L216.615 5.07215C217.112 4.74666 217.701 4.57102 218.419 4.57102V2.57102ZM215.515 3.40158C214.662 3.96549 214.025 4.77125 213.584 5.76545L215.413 6.57545C215.723 5.87647 216.13 5.39247 216.618 5.07001L215.515 3.40158ZM213.585 5.76317C213.138 6.76632 212.936 7.94227 212.936 9.25568H214.936C214.936 8.13727 215.109 7.2564 215.412 6.57774L213.585 5.76317ZM212.936 9.25568C212.936 10.5681 213.135 11.7454 213.572 12.7556L215.408 11.9603C215.107 11.2659 214.936 10.3751 214.936 9.25568H212.936ZM213.572 12.7556C214.007 13.7589 214.646 14.5722 215.505 15.1428L216.611 13.4765C216.119 13.1494 215.711 12.6616 215.408 11.9603L213.572 12.7556ZM215.51 15.146C216.371 15.7102 217.366 15.9744 218.453 15.9744V13.9744C217.7 13.9744 217.098 13.7954 216.606 13.4733L215.51 15.146ZM218.453 15.9744C219.404 15.9744 220.278 15.8064 221.04 15.4257L220.145 13.6368C219.725 13.847 219.173 13.9744 218.453 13.9744V15.9744ZM221.043 15.424C221.803 15.0405 222.408 14.4847 222.824 13.7585L221.088 12.7643C220.879 13.1289 220.575 13.4198 220.142 13.6385L221.043 15.424ZM222.82 13.7652C223.242 13.0415 223.433 12.2162 223.433 11.3267H221.433C221.433 11.9258 221.306 12.3903 221.092 12.7575L222.82 13.7652ZM222.287 12.316L223.037 12.4268L223.329 10.4482L222.579 10.3374L222.287 12.316ZM223.183 10.4375H218.683V12.4375H223.183V10.4375ZM219.683 11.4375V8.65909H217.683V11.4375H219.683ZM218.683 9.65909H225.987V7.65909H218.683V9.65909ZM224.987 8.65909V10.858H226.987V8.65909H224.987ZM224.987 10.858C224.987 12.2496 224.694 13.3853 224.153 14.3059L225.878 15.3191C226.632 14.0352 226.987 12.5345 226.987 10.858H224.987ZM224.155 14.3039C223.602 15.2392 222.848 15.9559 221.875 16.4669L222.804 18.2377C224.104 17.5554 225.134 16.5789 225.877 15.3211L224.155 14.3039ZM221.878 16.4651C220.904 16.9718 219.765 17.2386 218.436 17.2386V19.2386C220.039 19.2386 221.503 18.9146 222.801 18.2395L221.878 16.4651ZM218.436 17.2386C216.951 17.2386 215.692 16.9128 214.627 16.2922L213.62 18.0203C215.032 18.8429 216.648 19.2386 218.436 19.2386V17.2386ZM214.63 16.2939C213.561 15.6666 212.724 14.7782 212.113 13.6017L210.338 14.5233C211.114 16.0173 212.208 17.1914 213.617 18.0186L214.63 16.2939ZM212.116 13.6063C211.515 12.4345 211.195 11.0067 211.195 9.28977H209.195C209.195 11.2547 209.562 13.0087 210.336 14.5187L212.116 13.6063ZM211.195 9.28977C211.195 7.97044 211.385 6.8296 211.746 5.85205L209.87 5.15931C209.413 6.39768 209.195 7.77956 209.195 9.28977H211.195ZM211.745 5.85471C212.117 4.85574 212.628 4.03365 213.267 3.36988L211.827 1.98239C210.977 2.86408 210.329 3.92835 209.871 5.15665L211.745 5.85471ZM213.267 3.36988C213.915 2.69706 214.665 2.1883 215.524 1.83782L214.769 -0.0139546C213.65 0.442382 212.667 1.10976 211.827 1.98239L213.267 3.36988ZM215.524 1.83782C216.383 1.48716 217.325 1.30682 218.359 1.30682V-0.693182C217.087 -0.693182 215.886 -0.470114 214.769 -0.0139546L215.524 1.83782ZM218.359 1.30682C219.249 1.30682 220.06 1.43701 220.799 1.68825L221.443 -0.205296C220.477 -0.533604 219.447 -0.693182 218.359 -0.693182V1.30682ZM220.805 1.69016C221.554 1.93991 222.205 2.28969 222.766 2.7352L224.009 1.16821C223.253 0.568264 222.392 0.111223 221.437 -0.207206L220.805 1.69016ZM222.77 2.73779C223.337 3.18364 223.795 3.7103 224.152 4.32163L225.88 3.31473C225.395 2.48288 224.768 1.76522 224.006 1.16562L222.77 2.73779ZM224.153 4.3246C224.504 4.92133 224.732 5.58451 224.835 6.32436L226.816 6.05064C226.679 5.06322 226.368 4.14685 225.878 3.31176L224.153 4.3246ZM225.825 5.1875H222.075V7.1875H225.825V5.1875Z" fill="black" mask="url(#path-1-outside-1_92_13)"/>
</g>
<defs>
<filter id="filter0_d_92_13" x="0.0170898" y="0.306885" width="229.97" height="25.9316" filterUnits="userSpaceOnUse" color-interpolation-filters="sRGB">
<feFlood flood-opacity="0" result="BackgroundImageFix"/>
<feColorMatrix in="SourceAlpha" type="matrix" values="0 0 0 0 0 0 0 0 0 0 0 0 0 0 0 0 0 0 127 0" result="hardAlpha"/>
<feOffset dy="4"/>
<feGaussianBlur stdDeviation="2"/>
<feComposite in2="hardAlpha" operator="out"/>
<feColorMatrix type="matrix" values="0 0 0 0 0 0 0 0 0 0 0 0 0 0 0 0 0 0 0.25 0"/>
<feBlend mode="normal" in2="BackgroundImageFix" result="effect1_dropShadow_92_13"/>
<feBlend mode="normal" in="SourceGraphic" in2="effect1_dropShadow_92_13" result="shape"/>
</filter>
</defs>
</svg>
