<svg width="85" height="27" viewBox="0 0 85 27" fill="none" xmlns="http://www.w3.org/2000/svg">
<g filter="url(#filter0_d_92_5)">
<mask id="path-1-outside-1_92_5" maskUnits="userSpaceOnUse" x="2.5" y="-1" width="79" height="21" fill="black">
<rect fill="white" x="2.5" y="-1" width="79" height="21"/>
<path d="M14.4858 5.56534C14.4176 4.87784 14.125 4.34375 13.608 3.96307C13.0909 3.58239 12.3892 3.39204 11.5028 3.39204C10.9006 3.39204 10.392 3.47727 9.97727 3.64773C9.5625 3.8125 9.24432 4.04261 9.02273 4.33807C8.80682 4.63352 8.69886 4.96875 8.69886 5.34375C8.6875 5.65625 8.75284 5.92898 8.89489 6.16193C9.04261 6.39489 9.24432 6.59659 9.5 6.76705C9.75568 6.93182 10.0511 7.0767 10.3864 7.2017C10.7216 7.32102 11.0795 7.4233 11.4602 7.50852L13.0284 7.88352C13.7898 8.05398 14.4886 8.28125 15.125 8.56534C15.7614 8.84943 16.3125 9.19886 16.7784 9.61364C17.2443 10.0284 17.6051 10.517 17.8608 11.0795C18.1222 11.642 18.2557 12.2869 18.2614 13.0142C18.2557 14.0824 17.983 15.0085 17.4432 15.7926C16.9091 16.571 16.1364 17.1761 15.125 17.608C14.1193 18.0341 12.9063 18.2472 11.4858 18.2472C10.0767 18.2472 8.84943 18.0312 7.80398 17.5994C6.7642 17.1676 5.9517 16.5284 5.36648 15.6818C4.78693 14.8295 4.48295 13.7756 4.45455 12.5199H8.02557C8.06534 13.1051 8.23295 13.5937 8.52841 13.9858C8.82955 14.3722 9.23011 14.6648 9.73011 14.8636C10.2358 15.0568 10.8068 15.1534 11.4432 15.1534C12.0682 15.1534 12.6108 15.0625 13.071 14.8807C13.5369 14.6989 13.8977 14.446 14.1534 14.1222C14.4091 13.7983 14.5369 13.4261 14.5369 13.0057C14.5369 12.6136 14.4205 12.2841 14.1875 12.017C13.9602 11.75 13.625 11.5227 13.1818 11.3352C12.7443 11.1477 12.2074 10.9773 11.571 10.8239L9.67045 10.3466C8.19886 9.98864 7.03693 9.42898 6.18466 8.66761C5.33239 7.90625 4.90909 6.88068 4.91477 5.59091C4.90909 4.53409 5.19034 3.6108 5.75852 2.82102C6.33239 2.03125 7.11932 1.41477 8.11932 0.971591C9.11932 0.528409 10.2557 0.306818 11.5284 0.306818C12.8239 0.306818 13.9545 0.528409 14.9205 0.971591C15.892 1.41477 16.6477 2.03125 17.1875 2.82102C17.7273 3.6108 18.0057 4.52557 18.0227 5.56534H14.4858ZM20.7436 18V0.545454H27.63C28.9538 0.545454 30.0817 0.798295 31.0135 1.30398C31.9453 1.80398 32.6555 2.5 33.1442 3.39204C33.6385 4.27841 33.8857 5.30114 33.8857 6.46023C33.8857 7.61932 33.6357 8.64205 33.1357 9.52841C32.6357 10.4148 31.9112 11.1051 30.9624 11.5994C30.0192 12.0937 28.8771 12.3409 27.5362 12.3409H23.147V9.38352H26.9396C27.6499 9.38352 28.2351 9.26136 28.6953 9.01705C29.1612 8.76705 29.5078 8.4233 29.7351 7.9858C29.968 7.54261 30.0845 7.03409 30.0845 6.46023C30.0845 5.88068 29.968 5.375 29.7351 4.94318C29.5078 4.50568 29.1612 4.16761 28.6953 3.92898C28.2294 3.68466 27.6385 3.5625 26.9226 3.5625H24.4339V18H20.7436ZM36.2827 18V0.545454H48.044V3.58807H39.973V7.74716H47.4389V10.7898H39.973V14.9574H48.0781V18H36.2827ZM50.978 18V0.545454H62.7393V3.58807H54.6683V7.74716H62.1342V10.7898H54.6683V14.9574H62.7734V18H50.978ZM71.8608 18H65.6733V0.545454H71.9119C73.6676 0.545454 75.179 0.894886 76.446 1.59375C77.7131 2.28693 78.6875 3.28409 79.3693 4.58523C80.0568 5.88636 80.4006 7.44318 80.4006 9.25568C80.4006 11.0739 80.0568 12.6364 79.3693 13.9432C78.6875 15.25 77.7074 16.2528 76.429 16.9517C75.1562 17.6506 73.6335 18 71.8608 18ZM69.3636 14.8381H71.7074C72.7983 14.8381 73.7159 14.6449 74.4602 14.2585C75.2102 13.8665 75.7727 13.2614 76.1477 12.4432C76.5284 11.6193 76.7188 10.5568 76.7188 9.25568C76.7188 7.96591 76.5284 6.91193 76.1477 6.09375C75.7727 5.27557 75.2131 4.6733 74.4688 4.28693C73.7244 3.90057 72.8068 3.70739 71.7159 3.70739H69.3636V14.8381Z"/>
</mask>
<path d="M14.4858 5.56534C14.4176 4.87784 14.125 4.34375 13.608 3.96307C13.0909 3.58239 12.3892 3.39204 11.5028 3.39204C10.9006 3.39204 10.392 3.47727 9.97727 3.64773C9.5625 3.8125 9.24432 4.04261 9.02273 4.33807C8.80682 4.63352 8.69886 4.96875 8.69886 5.34375C8.6875 5.65625 8.75284 5.92898 8.89489 6.16193C9.04261 6.39489 9.24432 6.59659 9.5 6.76705C9.75568 6.93182 10.0511 7.0767 10.3864 7.2017C10.7216 7.32102 11.0795 7.4233 11.4602 7.50852L13.0284 7.88352C13.7898 8.05398 14.4886 8.28125 15.125 8.56534C15.7614 8.84943 16.3125 9.19886 16.7784 9.61364C17.2443 10.0284 17.6051 10.517 17.8608 11.0795C18.1222 11.642 18.2557 12.2869 18.2614 13.0142C18.2557 14.0824 17.983 15.0085 17.4432 15.7926C16.9091 16.571 16.1364 17.1761 15.125 17.608C14.1193 18.0341 12.9063 18.2472 11.4858 18.2472C10.0767 18.2472 8.84943 18.0312 7.80398 17.5994C6.7642 17.1676 5.9517 16.5284 5.36648 15.6818C4.78693 14.8295 4.48295 13.7756 4.45455 12.5199H8.02557C8.06534 13.1051 8.23295 13.5937 8.52841 13.9858C8.82955 14.3722 9.23011 14.6648 9.73011 14.8636C10.2358 15.0568 10.8068 15.1534 11.4432 15.1534C12.0682 15.1534 12.6108 15.0625 13.071 14.8807C13.5369 14.6989 13.8977 14.446 14.1534 14.1222C14.4091 13.7983 14.5369 13.4261 14.5369 13.0057C14.5369 12.6136 14.4205 12.2841 14.1875 12.017C13.9602 11.75 13.625 11.5227 13.1818 11.3352C12.7443 11.1477 12.2074 10.9773 11.571 10.8239L9.67045 10.3466C8.19886 9.98864 7.03693 9.42898 6.18466 8.66761C5.33239 7.90625 4.90909 6.88068 4.91477 5.59091C4.90909 4.53409 5.19034 3.6108 5.75852 2.82102C6.33239 2.03125 7.11932 1.41477 8.11932 0.971591C9.11932 0.528409 10.2557 0.306818 11.5284 0.306818C12.8239 0.306818 13.9545 0.528409 14.9205 0.971591C15.892 1.41477 16.6477 2.03125 17.1875 2.82102C17.7273 3.6108 18.0057 4.52557 18.0227 5.56534H14.4858ZM20.7436 18V0.545454H27.63C28.9538 0.545454 30.0817 0.798295 31.0135 1.30398C31.9453 1.80398 32.6555 2.5 33.1442 3.39204C33.6385 4.27841 33.8857 5.30114 33.8857 6.46023C33.8857 7.61932 33.6357 8.64205 33.1357 9.52841C32.6357 10.4148 31.9112 11.1051 30.9624 11.5994C30.0192 12.0937 28.8771 12.3409 27.5362 12.3409H23.147V9.38352H26.9396C27.6499 9.38352 28.2351 9.26136 28.6953 9.01705C29.1612 8.76705 29.5078 8.4233 29.7351 7.9858C29.968 7.54261 30.0845 7.03409 30.0845 6.46023C30.0845 5.88068 29.968 5.375 29.7351 4.94318C29.5078 4.50568 29.1612 4.16761 28.6953 3.92898C28.2294 3.68466 27.6385 3.5625 26.9226 3.5625H24.4339V18H20.7436ZM36.2827 18V0.545454H48.044V3.58807H39.973V7.74716H47.4389V10.7898H39.973V14.9574H48.0781V18H36.2827ZM50.978 18V0.545454H62.7393V3.58807H54.6683V7.74716H62.1342V10.7898H54.6683V14.9574H62.7734V18H50.978ZM71.8608 18H65.6733V0.545454H71.9119C73.6676 0.545454 75.179 0.894886 76.446 1.59375C77.7131 2.28693 78.6875 3.28409 79.3693 4.58523C80.0568 5.88636 80.4006 7.44318 80.4006 9.25568C80.4006 11.0739 80.0568 12.6364 79.3693 13.9432C78.6875 15.25 77.7074 16.2528 76.429 16.9517C75.1562 17.6506 73.6335 18 71.8608 18ZM69.3636 14.8381H71.7074C72.7983 14.8381 73.7159 14.6449 74.4602 14.2585C75.2102 13.8665 75.7727 13.2614 76.1477 12.4432C76.5284 11.6193 76.7188 10.5568 76.7188 9.25568C76.7188 7.96591 76.5284 6.91193 76.1477 6.09375C75.7727 5.27557 75.2131 4.6733 74.4688 4.28693C73.7244 3.90057 72.8068 3.70739 71.7159 3.70739H69.3636V14.8381Z" fill="white"/>
<path d="M14.4858 5.56534L13.4907 5.66403L13.5801 6.56534H14.4858V5.56534ZM9.97727 3.64773L10.3465 4.57714L10.3574 4.57267L9.97727 3.64773ZM9.02273 4.33807L8.22267 3.73802L8.21534 3.74805L9.02273 4.33807ZM8.69886 5.34375L9.6982 5.38009L9.69886 5.36193V5.34375H8.69886ZM8.89489 6.16193L8.04109 6.68254L8.04567 6.69005L8.05038 6.69747L8.89489 6.16193ZM9.5 6.76705L8.9453 7.5991L8.95177 7.60341L8.9583 7.60762L9.5 6.76705ZM10.3864 7.2017L10.037 8.13868L10.044 8.1413L10.051 8.14381L10.3864 7.2017ZM11.4602 7.50852L11.6928 6.53594L11.6858 6.53426L11.6787 6.53268L11.4602 7.50852ZM13.0284 7.88352L12.7958 8.8561L12.8029 8.85778L12.8099 8.85937L13.0284 7.88352ZM15.125 8.56534L14.7173 9.47848L15.125 8.56534ZM16.7784 9.61364L17.4433 8.86673V8.86673L16.7784 9.61364ZM17.8608 11.0795L16.9504 11.4934L16.9539 11.5009L17.8608 11.0795ZM18.2614 13.0142L19.2614 13.0195L19.2613 13.0064L18.2614 13.0142ZM17.4432 15.7926L16.6195 15.2256L16.6186 15.2269L17.4432 15.7926ZM15.125 17.608L15.5152 18.5287L15.5177 18.5276L15.125 17.608ZM7.80398 17.5994L7.42044 18.523L7.42222 18.5237L7.80398 17.5994ZM5.36648 15.6818L4.53953 16.2441L4.54389 16.2505L5.36648 15.6818ZM4.45455 12.5199V11.5199H3.43167L3.4548 12.5425L4.45455 12.5199ZM8.02557 12.5199L9.02327 12.4521L8.95991 11.5199H8.02557V12.5199ZM8.52841 13.9858L7.7298 14.5876L7.73469 14.5941L7.73968 14.6005L8.52841 13.9858ZM9.73011 14.8636L9.36051 15.7929L9.37325 15.7978L9.73011 14.8636ZM13.071 14.8807L12.7075 13.9491L12.7036 13.9506L13.071 14.8807ZM14.1534 14.1222L14.9383 14.7418H14.9383L14.1534 14.1222ZM14.1875 12.017L13.4259 12.6652L13.4339 12.6744L14.1875 12.017ZM13.1818 11.3352L12.7879 12.2544L12.7922 12.2562L13.1818 11.3352ZM11.571 10.8239L11.3275 11.7938L11.3367 11.796L11.571 10.8239ZM9.67045 10.3466L9.91402 9.37668L9.90681 9.37492L9.67045 10.3466ZM6.18466 8.66761L5.51845 9.41337H5.51845L6.18466 8.66761ZM4.91477 5.59091L5.91481 5.59531L5.91476 5.58553L4.91477 5.59091ZM5.75852 2.82102L4.94953 2.23319L4.94677 2.23703L5.75852 2.82102ZM14.9205 0.971591L14.5034 1.88049L14.5054 1.88141L14.9205 0.971591ZM17.1875 2.82102L16.3619 3.38528L16.3619 3.38528L17.1875 2.82102ZM18.0227 5.56534V6.56534H19.0393L19.0226 5.54895L18.0227 5.56534ZM15.4809 5.46665C15.3872 4.52137 14.9648 3.72024 14.2009 3.15779L13.0151 4.76835C13.2852 4.96726 13.4481 5.23431 13.4907 5.66403L15.4809 5.46665ZM14.2009 3.15779C13.4575 2.61048 12.5231 2.39204 11.5028 2.39204V4.39204C12.2553 4.39204 12.7243 4.55429 13.0151 4.76835L14.2009 3.15779ZM11.5028 2.39204C10.8123 2.39204 10.1662 2.48893 9.59716 2.72279L10.3574 4.57267C10.6179 4.46561 10.9888 4.39204 11.5028 4.39204V2.39204ZM9.60808 2.71838C9.05794 2.93692 8.57589 3.26718 8.22273 3.73807L9.82273 4.93807C9.91274 4.81805 10.0671 4.68808 10.3465 4.57708L9.60808 2.71838ZM8.21534 3.74805C7.87099 4.21927 7.69886 4.76226 7.69886 5.34375H9.69886C9.69886 5.17524 9.74265 5.04778 9.83012 4.92808L8.21534 3.74805ZM7.69952 5.30741C7.68211 5.78638 7.78267 6.25873 8.04109 6.68254L9.74868 5.64132C9.72301 5.59923 9.69289 5.52612 9.6982 5.38009L7.69952 5.30741ZM8.05038 6.69747C8.28105 7.06122 8.58667 7.36001 8.9453 7.5991L10.0547 5.93499C9.90197 5.83317 9.80418 5.72855 9.7394 5.62639L8.05038 6.69747ZM8.9583 7.60762C9.28391 7.81745 9.64582 7.99283 10.037 8.13868L10.7357 6.26472C10.4565 6.16058 10.2275 6.04618 10.0417 5.92647L8.9583 7.60762ZM10.051 8.14381C10.4279 8.27796 10.8252 8.39111 11.2418 8.48437L11.6787 6.53268C11.3339 6.45548 11.0152 6.36409 10.7217 6.2596L10.051 8.14381ZM11.2277 8.4811L12.7958 8.8561L13.261 6.91094L11.6928 6.53594L11.2277 8.4811ZM12.8099 8.85937C13.5139 9.01697 14.1485 9.22453 14.7173 9.47848L15.5327 7.6522C14.8288 7.33796 14.0656 7.09098 13.2469 6.90768L12.8099 8.85937ZM14.7173 9.47848C15.2708 9.72555 15.7327 10.0215 16.1135 10.3605L17.4433 8.86673C16.8923 8.37618 16.2519 7.97331 15.5327 7.6522L14.7173 9.47848ZM16.1135 10.3605C16.4763 10.6835 16.753 11.059 16.9504 11.4933L18.7712 10.6657C18.4572 9.97507 18.0124 9.3733 17.4433 8.86673L16.1135 10.3605ZM16.9539 11.5009C17.1455 11.9133 17.2566 12.4132 17.2614 13.022L19.2613 13.0064C19.2547 12.1606 19.0988 11.3708 18.7677 10.6582L16.9539 11.5009ZM17.2614 13.0089C17.2566 13.9018 17.0318 14.6266 16.6195 15.2256L18.2669 16.3596C18.9341 15.3905 19.2547 14.2629 19.2613 13.0195L17.2614 13.0089ZM16.6186 15.2269C16.2087 15.8243 15.5984 16.3185 14.7323 16.6883L15.5177 18.5276C16.6743 18.0338 17.6095 17.3178 18.2678 16.3584L16.6186 15.2269ZM14.7349 16.6872C13.8836 17.0479 12.8106 17.2472 11.4858 17.2472V19.2472C13.0019 19.2472 14.355 19.0203 15.5151 18.5287L14.7349 16.6872ZM11.4858 17.2472C10.1766 17.2472 9.08435 17.0463 8.18574 16.6752L7.42222 18.5237C8.61451 19.0162 9.97684 19.2472 11.4858 19.2472V17.2472ZM8.18752 16.6759C7.30782 16.3106 6.65487 15.787 6.18907 15.1132L4.54389 16.2505C5.24854 17.2698 6.22059 18.0247 7.42044 18.523L8.18752 16.6759ZM6.1934 15.1195C5.74393 14.4585 5.4793 13.6026 5.45429 12.4973L3.4548 12.5425C3.48661 13.9485 3.82993 15.2006 4.53955 16.2441L6.1934 15.1195ZM4.45455 13.5199H8.02557V11.5199H4.45455V13.5199ZM7.02787 12.5877C7.0782 13.3282 7.29647 14.0127 7.7298 14.5876L9.32702 13.3839C9.16944 13.1748 9.05248 12.882 9.02327 12.4521L7.02787 12.5877ZM7.73968 14.6005C8.16067 15.1407 8.7121 15.5349 9.36054 15.7928L10.0997 13.9344C9.74813 13.7946 9.49842 13.6036 9.31714 13.3711L7.73968 14.6005ZM9.37325 15.7978C10.011 16.0414 10.7058 16.1534 11.4432 16.1534V14.1534C10.9078 14.1534 10.4606 14.0722 10.087 13.9295L9.37325 15.7978ZM11.4432 16.1534C12.1622 16.1534 12.8349 16.0492 13.4385 15.8107L12.7036 13.9506C12.3867 14.0758 11.9742 14.1534 11.4432 14.1534V16.1534ZM13.4346 15.8123C14.0311 15.5795 14.5512 15.2321 14.9383 14.7418L13.3685 13.5025C13.2443 13.6599 13.0428 13.8182 12.7075 13.9491L13.4346 15.8123ZM14.9383 14.7418C15.3361 14.2379 15.5369 13.6464 15.5369 13.0057H13.5369C13.5369 13.2059 13.482 13.3587 13.3685 13.5025L14.9383 14.7418ZM15.5369 13.0057C15.5369 12.3995 15.3502 11.8286 14.9411 11.3597L13.4339 12.6744C13.4907 12.7395 13.5369 12.8277 13.5369 13.0057H15.5369ZM14.949 11.3689C14.5903 10.9474 14.1076 10.6411 13.5715 10.4143L12.7922 12.2562C13.1424 12.4044 13.3301 12.5526 13.426 12.6652L14.949 11.3689ZM13.5757 10.4161C13.0715 10.2 12.4776 10.0138 11.8054 9.85171L11.3367 11.796C11.9372 11.9408 12.4171 12.0955 12.7879 12.2544L13.5757 10.4161ZM11.8146 9.85398L9.91401 9.3767L9.4269 11.3165L11.3275 11.7937L11.8146 9.85398ZM9.90681 9.37492C8.54489 9.04365 7.54724 8.54394 6.85087 7.92185L5.51845 9.41337C6.52662 10.314 7.85283 10.9336 9.4341 11.3183L9.90681 9.37492ZM6.85087 7.92185C6.24087 7.37692 5.91016 6.63974 5.91476 5.59531L3.91478 5.5865C3.90802 7.12162 4.4239 8.43558 5.51845 9.41337L6.85087 7.92185ZM5.91476 5.58553C5.91011 4.72089 6.13635 4.00818 6.57028 3.40502L4.94677 2.23703C4.24433 3.21341 3.90807 4.34729 3.91479 5.59628L5.91476 5.58553ZM6.56751 3.40885C7.02582 2.7781 7.66567 2.26644 8.52449 1.88583L7.71414 0.0573511C6.57296 0.563102 5.63895 1.2844 4.94954 2.2332L6.56751 3.40885ZM8.52449 1.88583C9.37772 1.5077 10.3726 1.30682 11.5284 1.30682V-0.693182C10.1388 -0.693182 8.86092 -0.45088 7.71414 0.0573511L8.52449 1.88583ZM11.5284 1.30682C12.7108 1.30682 13.6938 1.509 14.5034 1.88049L15.3375 0.0626945C14.2153 -0.452178 12.9369 -0.693182 11.5284 -0.693182V1.30682ZM14.5054 1.88141C15.3311 2.258 15.9366 2.76297 16.3619 3.38528L18.0131 2.25677C17.3589 1.29953 16.453 0.571543 15.3355 0.0617714L14.5054 1.88141ZM16.3619 3.38528C16.7816 3.99933 17.0087 4.71991 17.0229 5.58173L19.0226 5.54895C19.0026 4.33123 18.673 3.22226 18.0131 2.25676L16.3619 3.38528ZM18.0227 4.56534H14.4858V6.56534H18.0227V4.56534ZM20.7436 18H19.7436V19H20.7436V18ZM20.7436 0.545454V-0.454546H19.7436V0.545454H20.7436ZM31.0135 1.30398L30.5365 2.1829L30.5407 2.18514L31.0135 1.30398ZM33.1442 3.39204L32.2671 3.87248L32.2708 3.87911L33.1442 3.39204ZM30.9624 11.5994L30.5003 10.7126L30.4982 10.7137L30.9624 11.5994ZM23.147 12.3409H22.147V13.3409H23.147V12.3409ZM23.147 9.38352V8.38352H22.147V9.38352H23.147ZM28.6953 9.01705L29.1642 9.90031L29.1681 9.89821L28.6953 9.01705ZM29.7351 7.9858L28.8499 7.52051L28.8477 7.52481L29.7351 7.9858ZM29.7351 4.94318L28.8477 5.40417L28.8513 5.4111L28.855 5.41797L29.7351 4.94318ZM28.6953 3.92898L28.2309 4.81464L28.2394 4.81902L28.6953 3.92898ZM24.4339 3.5625V2.5625H23.4339V3.5625H24.4339ZM24.4339 18V19H25.4339V18H24.4339ZM21.7436 18V0.545454H19.7436V18H21.7436ZM20.7436 1.54545H27.63V-0.454546H20.7436V1.54545ZM27.63 1.54545C28.828 1.54545 29.7832 1.77407 30.5365 2.18289L31.4905 0.425059C30.3802 -0.177481 29.0797 -0.454546 27.63 -0.454546V1.54545ZM30.5407 2.18514C31.3089 2.59737 31.8754 3.15731 32.2671 3.87246L34.0212 2.91163C33.4357 1.84268 32.5817 1.01058 31.4863 0.422817L30.5407 2.18514ZM32.2708 3.87911C32.6709 4.59651 32.8857 5.44709 32.8857 6.46023H34.8857C34.8857 5.15518 34.6061 3.96031 34.0175 2.90498L32.2708 3.87911ZM32.8857 6.46023C32.8857 7.47145 32.6689 8.32048 32.2647 9.03709L34.0066 10.0197C34.6024 8.96361 34.8857 7.76719 34.8857 6.46023H32.8857ZM32.2647 9.03709C31.8648 9.7459 31.2867 10.3029 30.5003 10.7126L31.4244 12.4863C32.5357 11.9073 33.4065 11.0836 34.0066 10.0197L32.2647 9.03709ZM30.4982 10.7137C29.7306 11.116 28.7564 11.3409 27.5362 11.3409V13.3409C28.9978 13.3409 30.3078 13.0715 31.4266 12.4852L30.4982 10.7137ZM27.5362 11.3409H23.147V13.3409H27.5362V11.3409ZM24.147 12.3409V9.38352H22.147V12.3409H24.147ZM23.147 10.3835H26.9396V8.38352H23.147V10.3835ZM26.9396 10.3835C27.7568 10.3835 28.5167 10.244 29.1642 9.9003L28.2264 8.13379C27.9534 8.27871 27.5429 8.38352 26.9396 8.38352V10.3835ZM29.1681 9.89821C29.7978 9.56031 30.2956 9.07601 30.6225 8.44678L28.8477 7.52481C28.72 7.77058 28.5246 7.97378 28.2225 8.13589L29.1681 9.89821ZM30.6203 8.45107C30.939 7.84466 31.0845 7.17233 31.0845 6.46023H29.0845C29.0845 6.89585 28.9971 7.24056 28.8499 7.52052L30.6203 8.45107ZM31.0845 6.46023C31.0845 5.74497 30.94 5.07042 30.6152 4.46839L28.855 5.41797C28.9961 5.67958 29.0845 6.0164 29.0845 6.46023H31.0845ZM30.6225 4.48219C30.2934 3.84861 29.7899 3.36609 29.1512 3.03893L28.2394 4.81902C28.5325 4.96914 28.7223 5.16275 28.8477 5.40417L30.6225 4.48219ZM29.1597 3.04336C28.5083 2.70175 27.7447 2.5625 26.9226 2.5625V4.5625C27.5323 4.5625 27.9505 4.66757 28.2309 4.8146L29.1597 3.04336ZM26.9226 2.5625H24.4339V4.5625H26.9226V2.5625ZM23.4339 3.5625V18H25.4339V3.5625H23.4339ZM24.4339 17H20.7436V19H24.4339V17ZM36.2827 18H35.2827V19H36.2827V18ZM36.2827 0.545454V-0.454546H35.2827V0.545454H36.2827ZM48.044 0.545454H49.044V-0.454546H48.044V0.545454ZM48.044 3.58807V4.58807H49.044V3.58807H48.044ZM39.973 3.58807V2.58807H38.973V3.58807H39.973ZM39.973 7.74716H38.973V8.74716H39.973V7.74716ZM47.4389 7.74716H48.4389V6.74716H47.4389V7.74716ZM47.4389 10.7898V11.7898H48.4389V10.7898H47.4389ZM39.973 10.7898V9.78977H38.973V10.7898H39.973ZM39.973 14.9574H38.973V15.9574H39.973V14.9574ZM48.0781 14.9574H49.0781V13.9574H48.0781V14.9574ZM48.0781 18V19H49.0781V18H48.0781ZM37.2827 18V0.545454H35.2827V18H37.2827ZM36.2827 1.54545H48.044V-0.454546H36.2827V1.54545ZM47.044 0.545454V3.58807H49.044V0.545454H47.044ZM48.044 2.58807H39.973V4.58807H48.044V2.58807ZM38.973 3.58807V7.74716H40.973V3.58807H38.973ZM39.973 8.74716H47.4389V6.74716H39.973V8.74716ZM46.4389 7.74716V10.7898H48.4389V7.74716H46.4389ZM47.4389 9.78977H39.973V11.7898H47.4389V9.78977ZM38.973 10.7898V14.9574H40.973V10.7898H38.973ZM39.973 15.9574H48.0781V13.9574H39.973V15.9574ZM47.0781 14.9574V18H49.0781V14.9574H47.0781ZM48.0781 17H36.2827V19H48.0781V17ZM50.978 18H49.978V19H50.978V18ZM50.978 0.545454V-0.454546H49.978V0.545454H50.978ZM62.7393 0.545454H63.7393V-0.454546H62.7393V0.545454ZM62.7393 3.58807V4.58807H63.7393V3.58807H62.7393ZM54.6683 3.58807V2.58807H53.6683V3.58807H54.6683ZM54.6683 7.74716H53.6683V8.74716H54.6683V7.74716ZM62.1342 7.74716H63.1342V6.74716H62.1342V7.74716ZM62.1342 10.7898V11.7898H63.1342V10.7898H62.1342ZM54.6683 10.7898V9.78977H53.6683V10.7898H54.6683ZM54.6683 14.9574H53.6683V15.9574H54.6683V14.9574ZM62.7734 14.9574H63.7734V13.9574H62.7734V14.9574ZM62.7734 18V19H63.7734V18H62.7734ZM51.978 18V0.545454H49.978V18H51.978ZM50.978 1.54545H62.7393V-0.454546H50.978V1.54545ZM61.7393 0.545454V3.58807H63.7393V0.545454H61.7393ZM62.7393 2.58807H54.6683V4.58807H62.7393V2.58807ZM53.6683 3.58807V7.74716H55.6683V3.58807H53.6683ZM54.6683 8.74716H62.1342V6.74716H54.6683V8.74716ZM61.1342 7.74716V10.7898H63.1342V7.74716H61.1342ZM62.1342 9.78977H54.6683V11.7898H62.1342V9.78977ZM53.6683 10.7898V14.9574H55.6683V10.7898H53.6683ZM54.6683 15.9574H62.7734V13.9574H54.6683V15.9574ZM61.7734 14.9574V18H63.7734V14.9574H61.7734ZM62.7734 17H50.978V19H62.7734V17ZM65.6733 18H64.6733V19H65.6733V18ZM65.6733 0.545454V-0.454546H64.6733V0.545454H65.6733ZM76.446 1.59375L75.963 2.46939L75.9661 2.47104L76.446 1.59375ZM79.3693 4.58523L78.4836 5.04938L78.4852 5.05241L79.3693 4.58523ZM79.3693 13.9432L78.4843 13.4776L78.4827 13.4806L79.3693 13.9432ZM76.429 16.9517L75.9493 16.0743L75.9477 16.0752L76.429 16.9517ZM69.3636 14.8381H68.3636V15.8381H69.3636V14.8381ZM74.4602 14.2585L74.9209 15.1461L74.9235 15.1447L74.4602 14.2585ZM76.1477 12.4432L75.2399 12.0237L75.2387 12.0265L76.1477 12.4432ZM76.1477 6.09375L75.2386 6.51041L75.2411 6.5156L76.1477 6.09375ZM74.4688 4.28693L74.9295 3.39938H74.9295L74.4688 4.28693ZM69.3636 3.70739V2.70739H68.3636V3.70739H69.3636ZM71.8608 17H65.6733V19H71.8608V17ZM66.6733 18V0.545454H64.6733V18H66.6733ZM65.6733 1.54545H71.9119V-0.454546H65.6733V1.54545ZM71.9119 1.54545C73.5345 1.54545 74.8724 1.8678 75.9631 2.46938L76.929 0.718115C75.4856 -0.0780315 73.8007 -0.454546 71.9119 -0.454546V1.54545ZM75.9661 2.47104C77.0569 3.06784 77.8916 3.91979 78.4836 5.04938L80.2551 4.12108C79.4834 2.64839 78.3692 1.50602 76.926 0.716456L75.9661 2.47104ZM78.4852 5.05241C79.0809 6.17994 79.4006 7.56884 79.4006 9.25568H81.4006C81.4006 7.31753 81.0327 5.59279 80.2535 4.11805L78.4852 5.05241ZM79.4006 9.25568C79.4006 10.9486 79.0808 12.3438 78.4843 13.4776L80.2543 14.4088C81.0329 12.9289 81.4006 11.1991 81.4006 9.25568H79.4006ZM78.4827 13.4806C77.8914 14.6141 77.0518 15.4715 75.9493 16.0743L76.9086 17.8292C78.3629 17.0341 79.4837 15.8859 80.2559 14.4057L78.4827 13.4806ZM75.9477 16.0752C74.8517 16.677 73.5021 17 71.8608 17V19C73.7649 19 75.4608 18.6242 76.9103 17.8283L75.9477 16.0752ZM69.3636 15.8381H71.7074V13.8381H69.3636V15.8381ZM71.7074 15.8381C72.912 15.8381 73.998 15.6252 74.9209 15.1461L73.9995 13.371C73.4338 13.6646 72.6846 13.8381 71.7074 13.8381V15.8381ZM74.9235 15.1447C75.883 14.6432 76.5957 13.866 77.0568 12.8598L75.2387 12.0265C74.9498 12.6568 74.5375 13.0898 73.997 13.3723L74.9235 15.1447ZM77.0555 12.8626C77.5174 11.8631 77.7188 10.6435 77.7188 9.25568H75.7188C75.7188 10.4702 75.5395 11.3755 75.24 12.0237L77.0555 12.8626ZM77.7188 9.25568C77.7188 7.87823 77.5171 6.66631 77.0544 5.6719L75.2411 6.5156C75.5397 7.15755 75.7188 8.05359 75.7188 9.25568H77.7188ZM77.0568 5.6771C76.5962 4.67222 75.8864 3.89613 74.9295 3.39938L74.008 5.17448C74.5397 5.45046 74.9492 5.87891 75.2387 6.5104L77.0568 5.6771ZM74.9295 3.39938C74.0065 2.92028 72.9205 2.70739 71.7159 2.70739V4.70739C72.6931 4.70739 73.4424 4.88085 74.008 5.17448L74.9295 3.39938ZM71.7159 2.70739H69.3636V4.70739H71.7159V2.70739ZM68.3636 3.70739V14.8381H70.3636V3.70739H68.3636Z" fill="black" mask="url(#path-1-outside-1_92_5)"/>
</g>
<defs>
<filter id="filter0_d_92_5" x="0.45459" y="0.306885" width="83.9458" height="25.9402" filterUnits="userSpaceOnUse" color-interpolation-filters="sRGB">
<feFlood flood-opacity="0" result="BackgroundImageFix"/>
<feColorMatrix in="SourceAlpha" type="matrix" values="0 0 0 0 0 0 0 0 0 0 0 0 0 0 0 0 0 0 127 0" result="hardAlpha"/>
<feOffset dy="4"/>
<feGaussianBlur stdDeviation="2"/>
<feComposite in2="hardAlpha" operator="out"/>
<feColorMatrix type="matrix" values="0 0 0 0 0 0 0 0 0 0 0 0 0 0 0 0 0 0 0.25 0"/>
<feBlend mode="normal" in2="BackgroundImageFix" result="effect1_dropShadow_92_5"/>
<feBlend mode="normal" in="SourceGraphic" in2="effect1_dropShadow_92_5" result="shape"/>
</filter>
</defs>
</svg>
