<svg width="170" height="27" viewBox="0 0 170 27" fill="none" xmlns="http://www.w3.org/2000/svg">
<g filter="url(#filter0_d_92_8)">
<mask id="path-1-outside-1_92_8" maskUnits="userSpaceOnUse" x="3" y="-1" width="164" height="21" fill="black">
<rect fill="white" x="3" y="-1" width="164" height="21"/>
<path d="M4.51705 18V0.545454H11.5057C12.7898 0.545454 13.8608 0.735795 14.7188 1.11648C15.5767 1.49716 16.2216 2.02557 16.6534 2.7017C17.0852 3.37216 17.3011 4.14489 17.3011 5.01989C17.3011 5.7017 17.1648 6.30114 16.892 6.81818C16.6193 7.32955 16.2443 7.75 15.767 8.07955C15.2955 8.40341 14.7557 8.63352 14.1477 8.76989V8.94034C14.8125 8.96875 15.4347 9.15625 16.0142 9.50284C16.5994 9.84943 17.0739 10.3352 17.4375 10.9602C17.8011 11.5795 17.983 12.3182 17.983 13.1761C17.983 14.1023 17.7528 14.929 17.2926 15.6562C16.8381 16.3778 16.1648 16.9489 15.2727 17.3693C14.3807 17.7898 13.2813 18 11.9744 18H4.51705ZM8.20739 14.983H11.2159C12.2443 14.983 12.9943 14.7869 13.4659 14.3949C13.9375 13.9972 14.1733 13.4687 14.1733 12.8097C14.1733 12.3267 14.0568 11.9006 13.8239 11.5312C13.5909 11.1619 13.2585 10.8722 12.8267 10.6619C12.4006 10.4517 11.892 10.3466 11.3011 10.3466H8.20739V14.983ZM8.20739 7.84943H10.9432C11.4489 7.84943 11.8977 7.76136 12.2898 7.58523C12.6875 7.40341 13 7.14773 13.2273 6.81818C13.4602 6.48864 13.5767 6.09375 13.5767 5.63352C13.5767 5.00284 13.3523 4.49432 12.9034 4.10795C12.4602 3.72159 11.8295 3.52841 11.0114 3.52841H8.20739V7.84943ZM20.3842 18V0.545454H32.1456V3.58807H24.0746V7.74716H31.5405V10.7898H24.0746V14.9574H32.1797V18H20.3842ZM44.5483 5.56534C44.4801 4.87784 44.1875 4.34375 43.6705 3.96307C43.1534 3.58239 42.4517 3.39204 41.5653 3.39204C40.9631 3.39204 40.4545 3.47727 40.0398 3.64773C39.625 3.8125 39.3068 4.04261 39.0852 4.33807C38.8693 4.63352 38.7614 4.96875 38.7614 5.34375C38.75 5.65625 38.8153 5.92898 38.9574 6.16193C39.1051 6.39489 39.3068 6.59659 39.5625 6.76705C39.8182 6.93182 40.1136 7.0767 40.4489 7.2017C40.7841 7.32102 41.142 7.4233 41.5227 7.50852L43.0909 7.88352C43.8523 8.05398 44.5511 8.28125 45.1875 8.56534C45.8239 8.84943 46.375 9.19886 46.8409 9.61364C47.3068 10.0284 47.6676 10.517 47.9233 11.0795C48.1847 11.642 48.3182 12.2869 48.3239 13.0142C48.3182 14.0824 48.0455 15.0085 47.5057 15.7926C46.9716 16.571 46.1989 17.1761 45.1875 17.608C44.1818 18.0341 42.9688 18.2472 41.5483 18.2472C40.1392 18.2472 38.9119 18.0312 37.8665 17.5994C36.8267 17.1676 36.0142 16.5284 35.429 15.6818C34.8494 14.8295 34.5455 13.7756 34.517 12.5199H38.0881C38.1278 13.1051 38.2955 13.5937 38.5909 13.9858C38.892 14.3722 39.2926 14.6648 39.7926 14.8636C40.2983 15.0568 40.8693 15.1534 41.5057 15.1534C42.1307 15.1534 42.6733 15.0625 43.1335 14.8807C43.5994 14.6989 43.9602 14.446 44.2159 14.1222C44.4716 13.7983 44.5994 13.4261 44.5994 13.0057C44.5994 12.6136 44.483 12.2841 44.25 12.017C44.0227 11.75 43.6875 11.5227 43.2443 11.3352C42.8068 11.1477 42.2699 10.9773 41.6335 10.8239L39.733 10.3466C38.2614 9.98864 37.0994 9.42898 36.2472 8.66761C35.3949 7.90625 34.9716 6.88068 34.9773 5.59091C34.9716 4.53409 35.2528 3.6108 35.821 2.82102C36.3949 2.03125 37.1818 1.41477 38.1818 0.971591C39.1818 0.528409 40.3182 0.306818 41.5909 0.306818C42.8864 0.306818 44.017 0.528409 44.983 0.971591C45.9545 1.41477 46.7102 2.03125 47.25 2.82102C47.7898 3.6108 48.0682 4.52557 48.0852 5.56534H44.5483ZM50.1413 3.58807V0.545454H64.4766V3.58807H59.1328V18H55.4851V3.58807H50.1413ZM75.4006 18H71.446L77.4716 0.545454H82.2273L88.2443 18H84.2898L79.9176 4.53409H79.7812L75.4006 18ZM75.1534 11.1392H84.4943V14.0199H75.1534V11.1392ZM99.4155 5.56534C99.3473 4.87784 99.0547 4.34375 98.5376 3.96307C98.0206 3.58239 97.3189 3.39204 96.4325 3.39204C95.8303 3.39204 95.3217 3.47727 94.907 3.64773C94.4922 3.8125 94.174 4.04261 93.9524 4.33807C93.7365 4.63352 93.6286 4.96875 93.6286 5.34375C93.6172 5.65625 93.6825 5.92898 93.8246 6.16193C93.9723 6.39489 94.174 6.59659 94.4297 6.76705C94.6854 6.93182 94.9808 7.0767 95.3161 7.2017C95.6513 7.32102 96.0092 7.4233 96.3899 7.50852L97.9581 7.88352C98.7195 8.05398 99.4183 8.28125 100.055 8.56534C100.691 8.84943 101.242 9.19886 101.708 9.61364C102.174 10.0284 102.535 10.517 102.79 11.0795C103.052 11.642 103.185 12.2869 103.191 13.0142C103.185 14.0824 102.913 15.0085 102.373 15.7926C101.839 16.571 101.066 17.1761 100.055 17.608C99.049 18.0341 97.8359 18.2472 96.4155 18.2472C95.0064 18.2472 93.7791 18.0312 92.7337 17.5994C91.6939 17.1676 90.8814 16.5284 90.2962 15.6818C89.7166 14.8295 89.4126 13.7756 89.3842 12.5199H92.9553C92.995 13.1051 93.1626 13.5937 93.4581 13.9858C93.7592 14.3722 94.1598 14.6648 94.6598 14.8636C95.1655 15.0568 95.7365 15.1534 96.3729 15.1534C96.9979 15.1534 97.5405 15.0625 98.0007 14.8807C98.4666 14.6989 98.8274 14.446 99.0831 14.1222C99.3388 13.7983 99.4666 13.4261 99.4666 13.0057C99.4666 12.6136 99.3501 12.2841 99.1172 12.017C98.8899 11.75 98.5547 11.5227 98.1115 11.3352C97.674 11.1477 97.1371 10.9773 96.5007 10.8239L94.6001 10.3466C93.1286 9.98864 91.9666 9.42898 91.1143 8.66761C90.2621 7.90625 89.8388 6.88068 89.8445 5.59091C89.8388 4.53409 90.12 3.6108 90.6882 2.82102C91.2621 2.03125 92.049 1.41477 93.049 0.971591C94.049 0.528409 95.1854 0.306818 96.4581 0.306818C97.7536 0.306818 98.8842 0.528409 99.8501 0.971591C100.822 1.41477 101.577 2.03125 102.117 2.82102C102.657 3.6108 102.935 4.52557 102.952 5.56534H99.4155ZM115.142 5.56534C115.074 4.87784 114.781 4.34375 114.264 3.96307C113.747 3.58239 113.045 3.39204 112.159 3.39204C111.557 3.39204 111.048 3.47727 110.634 3.64773C110.219 3.8125 109.901 4.04261 109.679 4.33807C109.463 4.63352 109.355 4.96875 109.355 5.34375C109.344 5.65625 109.409 5.92898 109.551 6.16193C109.699 6.39489 109.901 6.59659 110.156 6.76705C110.412 6.93182 110.707 7.0767 111.043 7.2017C111.378 7.32102 111.736 7.4233 112.116 7.50852L113.685 7.88352C114.446 8.05398 115.145 8.28125 115.781 8.56534C116.418 8.84943 116.969 9.19886 117.435 9.61364C117.901 10.0284 118.261 10.517 118.517 11.0795C118.778 11.642 118.912 12.2869 118.918 13.0142C118.912 14.0824 118.639 15.0085 118.099 15.7926C117.565 16.571 116.793 17.1761 115.781 17.608C114.776 18.0341 113.563 18.2472 112.142 18.2472C110.733 18.2472 109.506 18.0312 108.46 17.5994C107.42 17.1676 106.608 16.5284 106.023 15.6818C105.443 14.8295 105.139 13.7756 105.111 12.5199H108.682C108.722 13.1051 108.889 13.5937 109.185 13.9858C109.486 14.3722 109.886 14.6648 110.386 14.8636C110.892 15.0568 111.463 15.1534 112.099 15.1534C112.724 15.1534 113.267 15.0625 113.727 14.8807C114.193 14.6989 114.554 14.446 114.81 14.1222C115.065 13.7983 115.193 13.4261 115.193 13.0057C115.193 12.6136 115.077 12.2841 114.844 12.017C114.616 11.75 114.281 11.5227 113.838 11.3352C113.401 11.1477 112.864 10.9773 112.227 10.8239L110.327 10.3466C108.855 9.98864 107.693 9.42898 106.841 8.66761C105.989 7.90625 105.565 6.88068 105.571 5.59091C105.565 4.53409 105.847 3.6108 106.415 2.82102C106.989 2.03125 107.776 1.41477 108.776 0.971591C109.776 0.528409 110.912 0.306818 112.185 0.306818C113.48 0.306818 114.611 0.528409 115.577 0.971591C116.548 1.41477 117.304 2.03125 117.844 2.82102C118.384 3.6108 118.662 4.52557 118.679 5.56534H115.142ZM121.4 18V0.545454H133.161V3.58807H125.09V7.74716H132.556V10.7898H125.09V14.9574H133.195V18H121.4ZM135.43 3.58807V0.545454H149.766V3.58807H144.422V18H140.774V3.58807H135.43ZM161.595 5.56534C161.527 4.87784 161.234 4.34375 160.717 3.96307C160.2 3.58239 159.499 3.39204 158.612 3.39204C158.01 3.39204 157.501 3.47727 157.087 3.64773C156.672 3.8125 156.354 4.04261 156.132 4.33807C155.916 4.63352 155.808 4.96875 155.808 5.34375C155.797 5.65625 155.862 5.92898 156.004 6.16193C156.152 6.39489 156.354 6.59659 156.609 6.76705C156.865 6.93182 157.161 7.0767 157.496 7.2017C157.831 7.32102 158.189 7.4233 158.57 7.50852L160.138 7.88352C160.899 8.05398 161.598 8.28125 162.234 8.56534C162.871 8.84943 163.422 9.19886 163.888 9.61364C164.354 10.0284 164.714 10.517 164.97 11.0795C165.232 11.642 165.365 12.2869 165.371 13.0142C165.365 14.0824 165.092 15.0085 164.553 15.7926C164.018 16.571 163.246 17.1761 162.234 17.608C161.229 18.0341 160.016 18.2472 158.595 18.2472C157.186 18.2472 155.959 18.0312 154.913 17.5994C153.874 17.1676 153.061 16.5284 152.476 15.6818C151.896 14.8295 151.592 13.7756 151.564 12.5199H155.135C155.175 13.1051 155.342 13.5937 155.638 13.9858C155.939 14.3722 156.339 14.6648 156.839 14.8636C157.345 15.0568 157.916 15.1534 158.553 15.1534C159.178 15.1534 159.72 15.0625 160.18 14.8807C160.646 14.6989 161.007 14.446 161.263 14.1222C161.518 13.7983 161.646 13.4261 161.646 13.0057C161.646 12.6136 161.53 12.2841 161.297 12.017C161.07 11.75 160.734 11.5227 160.291 11.3352C159.854 11.1477 159.317 10.9773 158.68 10.8239L156.78 10.3466C155.308 9.98864 154.146 9.42898 153.294 8.66761C152.442 7.90625 152.018 6.88068 152.024 5.59091C152.018 4.53409 152.3 3.6108 152.868 2.82102C153.442 2.03125 154.229 1.41477 155.229 0.971591C156.229 0.528409 157.365 0.306818 158.638 0.306818C159.933 0.306818 161.064 0.528409 162.03 0.971591C163.001 1.41477 163.757 2.03125 164.297 2.82102C164.837 3.6108 165.115 4.52557 165.132 5.56534H161.595Z"/>
</mask>
<path d="M4.51705 18V0.545454H11.5057C12.7898 0.545454 13.8608 0.735795 14.7188 1.11648C15.5767 1.49716 16.2216 2.02557 16.6534 2.7017C17.0852 3.37216 17.3011 4.14489 17.3011 5.01989C17.3011 5.7017 17.1648 6.30114 16.892 6.81818C16.6193 7.32955 16.2443 7.75 15.767 8.07955C15.2955 8.40341 14.7557 8.63352 14.1477 8.76989V8.94034C14.8125 8.96875 15.4347 9.15625 16.0142 9.50284C16.5994 9.84943 17.0739 10.3352 17.4375 10.9602C17.8011 11.5795 17.983 12.3182 17.983 13.1761C17.983 14.1023 17.7528 14.929 17.2926 15.6562C16.8381 16.3778 16.1648 16.9489 15.2727 17.3693C14.3807 17.7898 13.2813 18 11.9744 18H4.51705ZM8.20739 14.983H11.2159C12.2443 14.983 12.9943 14.7869 13.4659 14.3949C13.9375 13.9972 14.1733 13.4687 14.1733 12.8097C14.1733 12.3267 14.0568 11.9006 13.8239 11.5312C13.5909 11.1619 13.2585 10.8722 12.8267 10.6619C12.4006 10.4517 11.892 10.3466 11.3011 10.3466H8.20739V14.983ZM8.20739 7.84943H10.9432C11.4489 7.84943 11.8977 7.76136 12.2898 7.58523C12.6875 7.40341 13 7.14773 13.2273 6.81818C13.4602 6.48864 13.5767 6.09375 13.5767 5.63352C13.5767 5.00284 13.3523 4.49432 12.9034 4.10795C12.4602 3.72159 11.8295 3.52841 11.0114 3.52841H8.20739V7.84943ZM20.3842 18V0.545454H32.1456V3.58807H24.0746V7.74716H31.5405V10.7898H24.0746V14.9574H32.1797V18H20.3842ZM44.5483 5.56534C44.4801 4.87784 44.1875 4.34375 43.6705 3.96307C43.1534 3.58239 42.4517 3.39204 41.5653 3.39204C40.9631 3.39204 40.4545 3.47727 40.0398 3.64773C39.625 3.8125 39.3068 4.04261 39.0852 4.33807C38.8693 4.63352 38.7614 4.96875 38.7614 5.34375C38.75 5.65625 38.8153 5.92898 38.9574 6.16193C39.1051 6.39489 39.3068 6.59659 39.5625 6.76705C39.8182 6.93182 40.1136 7.0767 40.4489 7.2017C40.7841 7.32102 41.142 7.4233 41.5227 7.50852L43.0909 7.88352C43.8523 8.05398 44.5511 8.28125 45.1875 8.56534C45.8239 8.84943 46.375 9.19886 46.8409 9.61364C47.3068 10.0284 47.6676 10.517 47.9233 11.0795C48.1847 11.642 48.3182 12.2869 48.3239 13.0142C48.3182 14.0824 48.0455 15.0085 47.5057 15.7926C46.9716 16.571 46.1989 17.1761 45.1875 17.608C44.1818 18.0341 42.9688 18.2472 41.5483 18.2472C40.1392 18.2472 38.9119 18.0312 37.8665 17.5994C36.8267 17.1676 36.0142 16.5284 35.429 15.6818C34.8494 14.8295 34.5455 13.7756 34.517 12.5199H38.0881C38.1278 13.1051 38.2955 13.5937 38.5909 13.9858C38.892 14.3722 39.2926 14.6648 39.7926 14.8636C40.2983 15.0568 40.8693 15.1534 41.5057 15.1534C42.1307 15.1534 42.6733 15.0625 43.1335 14.8807C43.5994 14.6989 43.9602 14.446 44.2159 14.1222C44.4716 13.7983 44.5994 13.4261 44.5994 13.0057C44.5994 12.6136 44.483 12.2841 44.25 12.017C44.0227 11.75 43.6875 11.5227 43.2443 11.3352C42.8068 11.1477 42.2699 10.9773 41.6335 10.8239L39.733 10.3466C38.2614 9.98864 37.0994 9.42898 36.2472 8.66761C35.3949 7.90625 34.9716 6.88068 34.9773 5.59091C34.9716 4.53409 35.2528 3.6108 35.821 2.82102C36.3949 2.03125 37.1818 1.41477 38.1818 0.971591C39.1818 0.528409 40.3182 0.306818 41.5909 0.306818C42.8864 0.306818 44.017 0.528409 44.983 0.971591C45.9545 1.41477 46.7102 2.03125 47.25 2.82102C47.7898 3.6108 48.0682 4.52557 48.0852 5.56534H44.5483ZM50.1413 3.58807V0.545454H64.4766V3.58807H59.1328V18H55.4851V3.58807H50.1413ZM75.4006 18H71.446L77.4716 0.545454H82.2273L88.2443 18H84.2898L79.9176 4.53409H79.7812L75.4006 18ZM75.1534 11.1392H84.4943V14.0199H75.1534V11.1392ZM99.4155 5.56534C99.3473 4.87784 99.0547 4.34375 98.5376 3.96307C98.0206 3.58239 97.3189 3.39204 96.4325 3.39204C95.8303 3.39204 95.3217 3.47727 94.907 3.64773C94.4922 3.8125 94.174 4.04261 93.9524 4.33807C93.7365 4.63352 93.6286 4.96875 93.6286 5.34375C93.6172 5.65625 93.6825 5.92898 93.8246 6.16193C93.9723 6.39489 94.174 6.59659 94.4297 6.76705C94.6854 6.93182 94.9808 7.0767 95.3161 7.2017C95.6513 7.32102 96.0092 7.4233 96.3899 7.50852L97.9581 7.88352C98.7195 8.05398 99.4183 8.28125 100.055 8.56534C100.691 8.84943 101.242 9.19886 101.708 9.61364C102.174 10.0284 102.535 10.517 102.79 11.0795C103.052 11.642 103.185 12.2869 103.191 13.0142C103.185 14.0824 102.913 15.0085 102.373 15.7926C101.839 16.571 101.066 17.1761 100.055 17.608C99.049 18.0341 97.8359 18.2472 96.4155 18.2472C95.0064 18.2472 93.7791 18.0312 92.7337 17.5994C91.6939 17.1676 90.8814 16.5284 90.2962 15.6818C89.7166 14.8295 89.4126 13.7756 89.3842 12.5199H92.9553C92.995 13.1051 93.1626 13.5937 93.4581 13.9858C93.7592 14.3722 94.1598 14.6648 94.6598 14.8636C95.1655 15.0568 95.7365 15.1534 96.3729 15.1534C96.9979 15.1534 97.5405 15.0625 98.0007 14.8807C98.4666 14.6989 98.8274 14.446 99.0831 14.1222C99.3388 13.7983 99.4666 13.4261 99.4666 13.0057C99.4666 12.6136 99.3501 12.2841 99.1172 12.017C98.8899 11.75 98.5547 11.5227 98.1115 11.3352C97.674 11.1477 97.1371 10.9773 96.5007 10.8239L94.6001 10.3466C93.1286 9.98864 91.9666 9.42898 91.1143 8.66761C90.2621 7.90625 89.8388 6.88068 89.8445 5.59091C89.8388 4.53409 90.12 3.6108 90.6882 2.82102C91.2621 2.03125 92.049 1.41477 93.049 0.971591C94.049 0.528409 95.1854 0.306818 96.4581 0.306818C97.7536 0.306818 98.8842 0.528409 99.8501 0.971591C100.822 1.41477 101.577 2.03125 102.117 2.82102C102.657 3.6108 102.935 4.52557 102.952 5.56534H99.4155ZM115.142 5.56534C115.074 4.87784 114.781 4.34375 114.264 3.96307C113.747 3.58239 113.045 3.39204 112.159 3.39204C111.557 3.39204 111.048 3.47727 110.634 3.64773C110.219 3.8125 109.901 4.04261 109.679 4.33807C109.463 4.63352 109.355 4.96875 109.355 5.34375C109.344 5.65625 109.409 5.92898 109.551 6.16193C109.699 6.39489 109.901 6.59659 110.156 6.76705C110.412 6.93182 110.707 7.0767 111.043 7.2017C111.378 7.32102 111.736 7.4233 112.116 7.50852L113.685 7.88352C114.446 8.05398 115.145 8.28125 115.781 8.56534C116.418 8.84943 116.969 9.19886 117.435 9.61364C117.901 10.0284 118.261 10.517 118.517 11.0795C118.778 11.642 118.912 12.2869 118.918 13.0142C118.912 14.0824 118.639 15.0085 118.099 15.7926C117.565 16.571 116.793 17.1761 115.781 17.608C114.776 18.0341 113.563 18.2472 112.142 18.2472C110.733 18.2472 109.506 18.0312 108.46 17.5994C107.42 17.1676 106.608 16.5284 106.023 15.6818C105.443 14.8295 105.139 13.7756 105.111 12.5199H108.682C108.722 13.1051 108.889 13.5937 109.185 13.9858C109.486 14.3722 109.886 14.6648 110.386 14.8636C110.892 15.0568 111.463 15.1534 112.099 15.1534C112.724 15.1534 113.267 15.0625 113.727 14.8807C114.193 14.6989 114.554 14.446 114.81 14.1222C115.065 13.7983 115.193 13.4261 115.193 13.0057C115.193 12.6136 115.077 12.2841 114.844 12.017C114.616 11.75 114.281 11.5227 113.838 11.3352C113.401 11.1477 112.864 10.9773 112.227 10.8239L110.327 10.3466C108.855 9.98864 107.693 9.42898 106.841 8.66761C105.989 7.90625 105.565 6.88068 105.571 5.59091C105.565 4.53409 105.847 3.6108 106.415 2.82102C106.989 2.03125 107.776 1.41477 108.776 0.971591C109.776 0.528409 110.912 0.306818 112.185 0.306818C113.48 0.306818 114.611 0.528409 115.577 0.971591C116.548 1.41477 117.304 2.03125 117.844 2.82102C118.384 3.6108 118.662 4.52557 118.679 5.56534H115.142ZM121.4 18V0.545454H133.161V3.58807H125.09V7.74716H132.556V10.7898H125.09V14.9574H133.195V18H121.4ZM135.43 3.58807V0.545454H149.766V3.58807H144.422V18H140.774V3.58807H135.43ZM161.595 5.56534C161.527 4.87784 161.234 4.34375 160.717 3.96307C160.2 3.58239 159.499 3.39204 158.612 3.39204C158.01 3.39204 157.501 3.47727 157.087 3.64773C156.672 3.8125 156.354 4.04261 156.132 4.33807C155.916 4.63352 155.808 4.96875 155.808 5.34375C155.797 5.65625 155.862 5.92898 156.004 6.16193C156.152 6.39489 156.354 6.59659 156.609 6.76705C156.865 6.93182 157.161 7.0767 157.496 7.2017C157.831 7.32102 158.189 7.4233 158.57 7.50852L160.138 7.88352C160.899 8.05398 161.598 8.28125 162.234 8.56534C162.871 8.84943 163.422 9.19886 163.888 9.61364C164.354 10.0284 164.714 10.517 164.97 11.0795C165.232 11.642 165.365 12.2869 165.371 13.0142C165.365 14.0824 165.092 15.0085 164.553 15.7926C164.018 16.571 163.246 17.1761 162.234 17.608C161.229 18.0341 160.016 18.2472 158.595 18.2472C157.186 18.2472 155.959 18.0312 154.913 17.5994C153.874 17.1676 153.061 16.5284 152.476 15.6818C151.896 14.8295 151.592 13.7756 151.564 12.5199H155.135C155.175 13.1051 155.342 13.5937 155.638 13.9858C155.939 14.3722 156.339 14.6648 156.839 14.8636C157.345 15.0568 157.916 15.1534 158.553 15.1534C159.178 15.1534 159.72 15.0625 160.18 14.8807C160.646 14.6989 161.007 14.446 161.263 14.1222C161.518 13.7983 161.646 13.4261 161.646 13.0057C161.646 12.6136 161.53 12.2841 161.297 12.017C161.07 11.75 160.734 11.5227 160.291 11.3352C159.854 11.1477 159.317 10.9773 158.68 10.8239L156.78 10.3466C155.308 9.98864 154.146 9.42898 153.294 8.66761C152.442 7.90625 152.018 6.88068 152.024 5.59091C152.018 4.53409 152.3 3.6108 152.868 2.82102C153.442 2.03125 154.229 1.41477 155.229 0.971591C156.229 0.528409 157.365 0.306818 158.638 0.306818C159.933 0.306818 161.064 0.528409 162.03 0.971591C163.001 1.41477 163.757 2.03125 164.297 2.82102C164.837 3.6108 165.115 4.52557 165.132 5.56534H161.595Z" fill="white"/>
<path d="M4.51705 18H3.51705V19H4.51705V18ZM4.51705 0.545454V-0.454546H3.51705V0.545454H4.51705ZM14.7188 1.11648L14.3132 2.03054L14.7188 1.11648ZM16.6534 2.7017L15.8106 3.23996L15.8127 3.24318L16.6534 2.7017ZM16.892 6.81818L17.7744 7.28877L17.7765 7.28473L16.892 6.81818ZM15.767 8.07955L16.3332 8.90388L16.3352 8.90244L15.767 8.07955ZM14.1477 8.76989L13.9289 7.79413L13.1477 7.96934V8.76989H14.1477ZM14.1477 8.94034H13.1477V9.89852L14.105 9.93943L14.1477 8.94034ZM16.0142 9.50284L15.5009 10.3611L15.5046 10.3633L16.0142 9.50284ZM17.4375 10.9602L16.5731 11.4631L16.5752 11.4666L17.4375 10.9602ZM17.2926 15.6562L16.4476 15.1215L16.4465 15.1233L17.2926 15.6562ZM15.2727 17.3693L14.8464 16.4648L14.8464 16.4648L15.2727 17.3693ZM8.20739 14.983H7.20739V15.983H8.20739V14.983ZM13.4659 14.3949L14.1052 15.1639L14.1106 15.1593L13.4659 14.3949ZM13.8239 11.5312L12.9781 12.0648L13.8239 11.5312ZM12.8267 10.6619L12.3843 11.5588L12.389 11.561L12.8267 10.6619ZM8.20739 10.3466V9.34659H7.20739V10.3466H8.20739ZM8.20739 7.84943H7.20739V8.84943H8.20739V7.84943ZM12.2898 7.58523L12.6996 8.49741L12.7055 8.4947L12.2898 7.58523ZM13.2273 6.81818L12.4106 6.24091L12.4041 6.25045L13.2273 6.81818ZM12.9034 4.10795L12.2463 4.86174L12.251 4.86585L12.9034 4.10795ZM8.20739 3.52841V2.52841H7.20739V3.52841H8.20739ZM5.51705 18V0.545454H3.51705V18H5.51705ZM4.51705 1.54545H11.5057V-0.454546H4.51705V1.54545ZM11.5057 1.54545C12.6984 1.54545 13.6207 1.7233 14.3132 2.03054L15.1243 0.202416C14.1008 -0.251711 12.8811 -0.454546 11.5057 -0.454546V1.54545ZM14.3132 2.03054C15.0228 2.34542 15.5015 2.75587 15.8106 3.23995L17.4962 2.16345C16.9417 1.29526 16.1306 0.648897 15.1243 0.202416L14.3132 2.03054ZM15.8127 3.24318C16.1305 3.73662 16.3011 4.31754 16.3011 5.01989H18.3011C18.3011 3.97223 18.04 3.0077 17.4941 2.16023L15.8127 3.24318ZM16.3011 5.01989C16.3011 5.56622 16.1927 6.00061 16.0075 6.35163L17.7765 7.28473C18.1368 6.60166 18.3011 5.83718 18.3011 5.01989H16.3011ZM16.0097 6.34759C15.8121 6.71802 15.5449 7.01771 15.1989 7.25665L16.3352 8.90244C16.9437 8.48229 17.4265 7.94107 17.7744 7.28877L16.0097 6.34759ZM15.2009 7.25521C14.8434 7.50075 14.4236 7.68316 13.9289 7.79413L14.3666 9.74564C15.0877 9.58389 15.7475 9.30607 16.3332 8.90388L15.2009 7.25521ZM13.1477 8.76989V8.94034H15.1477V8.76989H13.1477ZM14.105 9.93943C14.6011 9.96063 15.0619 10.0985 15.5009 10.3611L16.5275 8.64461C15.8074 8.214 15.0239 7.97687 14.1904 7.94125L14.105 9.93943ZM15.5046 10.3633C15.9337 10.6174 16.2897 10.976 16.5732 11.4631L18.3018 10.4573C17.858 9.69446 17.2651 9.08146 16.5238 8.64241L15.5046 10.3633ZM16.5752 11.4666C16.8325 11.9049 16.983 12.4614 16.983 13.1761H18.983C18.983 12.1749 18.7697 11.2542 18.2998 10.4539L16.5752 11.4666ZM16.983 13.1761C16.983 13.928 16.7988 14.5665 16.4476 15.1215L18.1376 16.191C18.7068 15.2915 18.983 14.2766 18.983 13.1761H16.983ZM16.4465 15.1233C16.1087 15.6595 15.5935 16.1126 14.8464 16.4648L15.6991 18.2739C16.7361 17.7851 17.5675 17.0962 18.1387 16.1892L16.4465 15.1233ZM14.8464 16.4648C14.1236 16.8054 13.1796 17 11.9744 17V19C13.3829 19 14.6377 18.7741 15.6991 18.2739L14.8464 16.4648ZM11.9744 17H4.51705V19H11.9744V17ZM8.20739 15.983H11.2159V13.983H8.20739V15.983ZM11.2159 15.983C12.3325 15.983 13.3673 15.7773 14.1052 15.1639L12.8266 13.6259C12.6213 13.7966 12.1561 13.983 11.2159 13.983V15.983ZM14.1106 15.1593C14.8245 14.5573 15.1733 13.7405 15.1733 12.8097H13.1733C13.1733 13.197 13.0505 13.437 12.8212 13.6305L14.1106 15.1593ZM15.1733 12.8097C15.1733 12.1586 15.0139 11.5434 14.6697 10.9977L12.9781 12.0648C13.0998 12.2577 13.1733 12.4948 13.1733 12.8097H15.1733ZM14.6697 10.9977C14.3276 10.4554 13.8464 10.0461 13.2644 9.76282L12.389 11.561C12.6707 11.6982 12.8542 11.8684 12.9781 12.0648L14.6697 10.9977ZM13.2691 9.76513C12.676 9.47251 12.0089 9.34659 11.3011 9.34659V11.3466C11.7751 11.3466 12.1251 11.4309 12.3843 11.5587L13.2691 9.76513ZM11.3011 9.34659H8.20739V11.3466H11.3011V9.34659ZM7.20739 10.3466V14.983H9.20739V10.3466H7.20739ZM8.20739 8.84943H10.9432V6.84943H8.20739V8.84943ZM10.9432 8.84943C11.5655 8.84943 12.1579 8.74075 12.6996 8.4974L11.88 6.67306C11.6375 6.78198 11.3323 6.84943 10.9432 6.84943V8.84943ZM12.7055 8.4947C13.2518 8.24499 13.7114 7.87763 14.0505 7.38591L12.4041 6.25045C12.2886 6.41783 12.1232 6.56182 11.874 6.67575L12.7055 8.4947ZM14.0439 7.39542C14.4124 6.87402 14.5767 6.27039 14.5767 5.63352H12.5767C12.5767 5.91711 12.508 6.10325 12.4107 6.24095L14.0439 7.39542ZM14.5767 5.63352C14.5767 4.73312 14.2411 3.93996 13.5558 3.35005L12.251 4.86585C12.4634 5.04867 12.5767 5.27256 12.5767 5.63352H14.5767ZM13.5605 3.35418C12.8749 2.75645 11.9768 2.52841 11.0114 2.52841V4.52841C11.6823 4.52841 12.0455 4.68673 12.2463 4.86173L13.5605 3.35418ZM11.0114 2.52841H8.20739V4.52841H11.0114V2.52841ZM7.20739 3.52841V7.84943H9.20739V3.52841H7.20739ZM20.3842 18H19.3842V19H20.3842V18ZM20.3842 0.545454V-0.454546H19.3842V0.545454H20.3842ZM32.1456 0.545454H33.1456V-0.454546H32.1456V0.545454ZM32.1456 3.58807V4.58807H33.1456V3.58807H32.1456ZM24.0746 3.58807V2.58807H23.0746V3.58807H24.0746ZM24.0746 7.74716H23.0746V8.74716H24.0746V7.74716ZM31.5405 7.74716H32.5405V6.74716H31.5405V7.74716ZM31.5405 10.7898V11.7898H32.5405V10.7898H31.5405ZM24.0746 10.7898V9.78977H23.0746V10.7898H24.0746ZM24.0746 14.9574H23.0746V15.9574H24.0746V14.9574ZM32.1797 14.9574H33.1797V13.9574H32.1797V14.9574ZM32.1797 18V19H33.1797V18H32.1797ZM21.3842 18V0.545454H19.3842V18H21.3842ZM20.3842 1.54545H32.1456V-0.454546H20.3842V1.54545ZM31.1456 0.545454V3.58807H33.1456V0.545454H31.1456ZM32.1456 2.58807H24.0746V4.58807H32.1456V2.58807ZM23.0746 3.58807V7.74716H25.0746V3.58807H23.0746ZM24.0746 8.74716H31.5405V6.74716H24.0746V8.74716ZM30.5405 7.74716V10.7898H32.5405V7.74716H30.5405ZM31.5405 9.78977H24.0746V11.7898H31.5405V9.78977ZM23.0746 10.7898V14.9574H25.0746V10.7898H23.0746ZM24.0746 15.9574H32.1797V13.9574H24.0746V15.9574ZM31.1797 14.9574V18H33.1797V14.9574H31.1797ZM32.1797 17H20.3842V19H32.1797V17ZM44.5483 5.56534L43.5532 5.66403L43.6426 6.56534H44.5483V5.56534ZM40.0398 3.64773L40.409 4.57714L40.4199 4.57267L40.0398 3.64773ZM39.0852 4.33807L38.2852 3.73802L38.2778 3.74805L39.0852 4.33807ZM38.7614 5.34375L39.7607 5.38009L39.7614 5.36193V5.34375H38.7614ZM38.9574 6.16193L38.1036 6.68254L38.1082 6.69005L38.1129 6.69747L38.9574 6.16193ZM39.5625 6.76705L39.0078 7.5991L39.0143 7.60341L39.0208 7.60762L39.5625 6.76705ZM40.4489 7.2017L40.0995 8.13868L40.1065 8.1413L40.1135 8.14381L40.4489 7.2017ZM41.5227 7.50852L41.7553 6.53594L41.7483 6.53426L41.7412 6.53268L41.5227 7.50852ZM43.0909 7.88352L42.8583 8.8561L42.8654 8.85778L42.8724 8.85937L43.0909 7.88352ZM45.1875 8.56534L44.7799 9.47848L45.1875 8.56534ZM46.8409 9.61364L47.5058 8.86673L47.5058 8.86673L46.8409 9.61364ZM47.9233 11.0795L47.0129 11.4934L47.0164 11.5009L47.9233 11.0795ZM48.3239 13.0142L49.3239 13.0195L49.3238 13.0064L48.3239 13.0142ZM47.5057 15.7926L46.682 15.2256L46.6811 15.2269L47.5057 15.7926ZM45.1875 17.608L45.5777 18.5287L45.5802 18.5276L45.1875 17.608ZM37.8665 17.5994L37.4829 18.523L37.4847 18.5237L37.8665 17.5994ZM35.429 15.6818L34.602 16.2441L34.6064 16.2505L35.429 15.6818ZM34.517 12.5199V11.5199H33.4942L33.5173 12.5425L34.517 12.5199ZM38.0881 12.5199L39.0858 12.4521L39.0224 11.5199H38.0881V12.5199ZM38.5909 13.9858L37.7923 14.5876L37.7972 14.5941L37.8022 14.6005L38.5909 13.9858ZM39.7926 14.8636L39.423 15.7929L39.4357 15.7978L39.7926 14.8636ZM43.1335 14.8807L42.77 13.9491L42.7661 13.9506L43.1335 14.8807ZM44.2159 14.1222L45.0008 14.7418L44.2159 14.1222ZM44.25 12.017L43.4884 12.6652L43.4964 12.6744L44.25 12.017ZM43.2443 11.3352L42.8504 12.2544L42.8547 12.2562L43.2443 11.3352ZM41.6335 10.8239L41.39 11.7938L41.3992 11.796L41.6335 10.8239ZM39.733 10.3466L39.9765 9.37668L39.9693 9.37492L39.733 10.3466ZM36.2472 8.66761L35.5809 9.41337L36.2472 8.66761ZM34.9773 5.59091L35.9773 5.59531L35.9773 5.58553L34.9773 5.59091ZM35.821 2.82102L35.012 2.23319L35.0093 2.23703L35.821 2.82102ZM44.983 0.971591L44.5659 1.88049L44.568 1.88141L44.983 0.971591ZM47.25 2.82102L46.4244 3.38528V3.38528L47.25 2.82102ZM48.0852 5.56534V6.56534H49.1018L49.0851 5.54895L48.0852 5.56534ZM45.5434 5.46665C45.4497 4.52137 45.0273 3.72024 44.2634 3.15779L43.0776 4.76835C43.3477 4.96726 43.5106 5.23431 43.5532 5.66403L45.5434 5.46665ZM44.2634 3.15779C43.52 2.61048 42.5856 2.39204 41.5653 2.39204V4.39204C42.3178 4.39204 42.7868 4.55429 43.0776 4.76835L44.2634 3.15779ZM41.5653 2.39204C40.8748 2.39204 40.2287 2.48893 39.6597 2.72279L40.4199 4.57267C40.6804 4.46561 41.0513 4.39204 41.5653 4.39204V2.39204ZM39.6706 2.71838C39.1204 2.93692 38.6384 3.26718 38.2852 3.73807L39.8852 4.93807C39.9752 4.81805 40.1296 4.68808 40.409 4.57708L39.6706 2.71838ZM38.2778 3.74805C37.9335 4.21927 37.7614 4.76226 37.7614 5.34375H39.7614C39.7614 5.17524 39.8051 5.04778 39.8926 4.92808L38.2778 3.74805ZM37.762 5.30741C37.7446 5.78638 37.8452 6.25873 38.1036 6.68254L39.8112 5.64132C39.7855 5.59923 39.7554 5.52612 39.7607 5.38009L37.762 5.30741ZM38.1129 6.69747C38.3435 7.06122 38.6492 7.36001 39.0078 7.5991L40.1172 5.93499C39.9645 5.83317 39.8667 5.72855 39.8019 5.62639L38.1129 6.69747ZM39.0208 7.60762C39.3464 7.81745 39.7083 7.99283 40.0995 8.13868L40.7982 6.26472C40.519 6.16058 40.29 6.04618 40.1042 5.92647L39.0208 7.60762ZM40.1135 8.14381C40.4904 8.27796 40.8877 8.39111 41.3043 8.48437L41.7412 6.53268C41.3964 6.45548 41.0777 6.36409 40.7842 6.2596L40.1135 8.14381ZM41.2902 8.4811L42.8583 8.8561L43.3235 6.91094L41.7553 6.53594L41.2902 8.4811ZM42.8724 8.85937C43.5764 9.01697 44.211 9.22453 44.7799 9.47848L45.5951 7.6522C44.8913 7.33796 44.1281 7.09098 43.3094 6.90768L42.8724 8.85937ZM44.7799 9.47848C45.3333 9.72555 45.7952 10.0215 46.176 10.3605L47.5058 8.86673C46.9548 8.37618 46.3144 7.97331 45.5951 7.6522L44.7799 9.47848ZM46.176 10.3605C46.5388 10.6835 46.8155 11.059 47.0129 11.4933L48.8337 10.6657C48.5197 9.97507 48.0749 9.3733 47.5058 8.86673L46.176 10.3605ZM47.0164 11.5009C47.208 11.9133 47.3191 12.4132 47.3239 13.022L49.3238 13.0064C49.3172 12.1606 49.1613 11.3708 48.8302 10.6582L47.0164 11.5009ZM47.3239 13.0089C47.3191 13.9018 47.0943 14.6266 46.682 15.2256L48.3294 16.3596C48.9966 15.3905 49.3172 14.2629 49.3238 13.0195L47.3239 13.0089ZM46.6811 15.2269C46.2712 15.8243 45.6609 16.3185 44.7948 16.6883L45.5802 18.5276C46.7368 18.0338 47.672 17.3178 48.3302 16.3584L46.6811 15.2269ZM44.7974 16.6872C43.9462 17.0479 42.8731 17.2472 41.5483 17.2472V19.2472C43.0644 19.2472 44.4175 19.0203 45.5776 18.5287L44.7974 16.6872ZM41.5483 17.2472C40.2391 17.2472 39.1469 17.0463 38.2482 16.6752L37.4847 18.5237C38.677 19.0162 40.0393 19.2472 41.5483 19.2472V17.2472ZM38.25 16.6759C37.3703 16.3106 36.7174 15.787 36.2516 15.1132L34.6064 16.2505C35.311 17.2698 36.2831 18.0247 37.4829 18.523L38.25 16.6759ZM36.2559 15.1195C35.8064 14.4585 35.5418 13.6026 35.5168 12.4973L33.5173 12.5425C33.5491 13.9485 33.8924 15.2006 34.6021 16.2441L36.2559 15.1195ZM34.517 13.5199H38.0881V11.5199H34.517V13.5199ZM37.0904 12.5877C37.1407 13.3282 37.359 14.0127 37.7923 14.5876L39.3895 13.3839C39.2319 13.1748 39.115 12.882 39.0858 12.4521L37.0904 12.5877ZM37.8022 14.6005C38.2232 15.1407 38.7746 15.5349 39.423 15.7928L40.1622 13.9344C39.8106 13.7946 39.5609 13.6036 39.3796 13.3711L37.8022 14.6005ZM39.4357 15.7978C40.0735 16.0414 40.7683 16.1534 41.5057 16.1534V14.1534C40.9703 14.1534 40.5231 14.0722 40.1495 13.9295L39.4357 15.7978ZM41.5057 16.1534C42.2247 16.1534 42.8974 16.0492 43.5009 15.8107L42.7661 13.9506C42.4492 14.0758 42.0367 14.1534 41.5057 14.1534V16.1534ZM43.4971 15.8123C44.0936 15.5795 44.6137 15.2321 45.0008 14.7418L43.431 13.5025C43.3068 13.6599 43.1053 13.8182 42.77 13.9491L43.4971 15.8123ZM45.0008 14.7418C45.3986 14.2379 45.5994 13.6464 45.5994 13.0057H43.5994C43.5994 13.2059 43.5445 13.3587 43.431 13.5025L45.0008 14.7418ZM45.5994 13.0057C45.5994 12.3995 45.4127 11.8286 45.0036 11.3597L43.4964 12.6744C43.5532 12.7395 43.5994 12.8277 43.5994 13.0057H45.5994ZM45.0115 11.3689C44.6528 10.9474 44.1701 10.6411 43.634 10.4143L42.8547 12.2562C43.2049 12.4044 43.3926 12.5526 43.4885 12.6652L45.0115 11.3689ZM43.6382 10.4161C43.134 10.2 42.5401 10.0138 41.8679 9.85171L41.3992 11.796C41.9997 11.9408 42.4796 12.0955 42.8504 12.2544L43.6382 10.4161ZM41.8771 9.85398L39.9765 9.3767L39.4894 11.3165L41.39 11.7937L41.8771 9.85398ZM39.9693 9.37492C38.6074 9.04365 37.6097 8.54394 36.9134 7.92185L35.5809 9.41337C36.5891 10.314 37.9153 10.9336 39.4966 11.3183L39.9693 9.37492ZM36.9134 7.92185C36.3034 7.37692 35.9727 6.63974 35.9773 5.59531L33.9773 5.5865C33.9705 7.12162 34.4864 8.43558 35.5809 9.41337L36.9134 7.92185ZM35.9773 5.58553C35.9726 4.72089 36.1988 4.00818 36.6328 3.40502L35.0093 2.23703C34.3068 3.21341 33.9706 4.34729 33.9773 5.59628L35.9773 5.58553ZM36.63 3.40885C37.0883 2.7781 37.7282 2.26644 38.587 1.88583L37.7766 0.0573511C36.6355 0.563102 35.7015 1.2844 35.012 2.2332L36.63 3.40885ZM38.587 1.88583C39.4402 1.5077 40.4351 1.30682 41.5909 1.30682V-0.693182C40.2013 -0.693182 38.9234 -0.45088 37.7766 0.0573511L38.587 1.88583ZM41.5909 1.30682C42.7733 1.30682 43.7563 1.509 44.5659 1.88049L45.4 0.0626945C44.2778 -0.452178 42.9994 -0.693182 41.5909 -0.693182V1.30682ZM44.568 1.88141C45.3936 2.258 45.9991 2.76297 46.4244 3.38528L48.0756 2.25677C47.4214 1.29953 46.5155 0.571543 45.398 0.0617714L44.568 1.88141ZM46.4244 3.38528C46.8441 3.99933 47.0712 4.71991 47.0854 5.58173L49.0851 5.54895C49.0651 4.33123 48.7355 3.22226 48.0756 2.25676L46.4244 3.38528ZM48.0852 4.56534H44.5483V6.56534H48.0852V4.56534ZM50.1413 3.58807H49.1413V4.58807H50.1413V3.58807ZM50.1413 0.545454V-0.454546H49.1413V0.545454H50.1413ZM64.4766 0.545454H65.4766V-0.454546H64.4766V0.545454ZM64.4766 3.58807V4.58807H65.4766V3.58807H64.4766ZM59.1328 3.58807V2.58807H58.1328V3.58807H59.1328ZM59.1328 18V19H60.1328V18H59.1328ZM55.4851 18H54.4851V19H55.4851V18ZM55.4851 3.58807H56.4851V2.58807H55.4851V3.58807ZM51.1413 3.58807V0.545454H49.1413V3.58807H51.1413ZM50.1413 1.54545H64.4766V-0.454546H50.1413V1.54545ZM63.4766 0.545454V3.58807H65.4766V0.545454H63.4766ZM64.4766 2.58807H59.1328V4.58807H64.4766V2.58807ZM58.1328 3.58807V18H60.1328V3.58807H58.1328ZM59.1328 17H55.4851V19H59.1328V17ZM56.4851 18V3.58807H54.4851V18H56.4851ZM55.4851 2.58807H50.1413V4.58807H55.4851V2.58807ZM75.4006 18V19H76.1268L76.3515 18.3094L75.4006 18ZM71.446 18L70.5008 17.6737L70.0429 19H71.446V18ZM77.4716 0.545454V-0.454546H76.7589L76.5263 0.219136L77.4716 0.545454ZM82.2273 0.545454L83.1727 0.219549L82.9403 -0.454546H82.2273V0.545454ZM88.2443 18V19H89.6468L89.1897 17.6741L88.2443 18ZM84.2898 18L83.3387 18.3088L83.5631 19H84.2898V18ZM79.9176 4.53409L80.8687 4.22528L80.6443 3.53409H79.9176V4.53409ZM79.7812 4.53409V3.53409H79.055L78.8303 4.22473L79.7812 4.53409ZM75.1534 11.1392V10.1392H74.1534V11.1392H75.1534ZM84.4943 11.1392H85.4943V10.1392H84.4943V11.1392ZM84.4943 14.0199V15.0199H85.4943V14.0199H84.4943ZM75.1534 14.0199H74.1534V15.0199H75.1534V14.0199ZM75.4006 17H71.446V19H75.4006V17ZM72.3913 18.3263L78.4169 0.871772L76.5263 0.219136L70.5008 17.6737L72.3913 18.3263ZM77.4716 1.54545H82.2273V-0.454546H77.4716V1.54545ZM81.2819 0.871359L87.2989 18.3259L89.1897 17.6741L83.1727 0.219549L81.2819 0.871359ZM88.2443 17H84.2898V19H88.2443V17ZM85.2409 17.6912L80.8687 4.22528L78.9665 4.8429L83.3387 18.3088L85.2409 17.6912ZM79.9176 3.53409H79.7812V5.53409H79.9176V3.53409ZM78.8303 4.22473L74.4496 17.6906L76.3515 18.3094L80.7322 4.84345L78.8303 4.22473ZM75.1534 12.1392H84.4943V10.1392H75.1534V12.1392ZM83.4943 11.1392V14.0199H85.4943V11.1392H83.4943ZM84.4943 13.0199H75.1534V15.0199H84.4943V13.0199ZM76.1534 14.0199V11.1392H74.1534V14.0199H76.1534ZM99.4155 5.56534L98.4204 5.66403L98.5098 6.56534H99.4155V5.56534ZM94.907 3.64773L95.2762 4.57714L95.2871 4.57267L94.907 3.64773ZM93.9524 4.33807L93.1524 3.73802L93.145 3.74805L93.9524 4.33807ZM93.6285 5.34375L94.6279 5.38009L94.6285 5.36193V5.34375H93.6285ZM93.8246 6.16193L92.9708 6.68254L92.9754 6.69005L92.9801 6.69747L93.8246 6.16193ZM94.4297 6.76705L93.875 7.5991L93.8815 7.60341L93.888 7.60762L94.4297 6.76705ZM95.316 7.2017L94.9667 8.13868L94.9737 8.1413L94.9807 8.14381L95.316 7.2017ZM96.3899 7.50852L96.6225 6.53594L96.6154 6.53426L96.6084 6.53268L96.3899 7.50852ZM97.9581 7.88352L97.7255 8.8561L97.7326 8.85778L97.7396 8.85937L97.9581 7.88352ZM100.055 8.56534L99.647 9.47848L100.055 8.56534ZM101.708 9.61364L102.373 8.86673V8.86673L101.708 9.61364ZM102.79 11.0795L101.88 11.4934L101.884 11.5009L102.79 11.0795ZM103.191 13.0142L104.191 13.0195L104.191 13.0064L103.191 13.0142ZM102.373 15.7926L101.549 15.2256L101.548 15.2269L102.373 15.7926ZM100.055 17.608L100.445 18.5287L100.447 18.5276L100.055 17.608ZM92.7337 17.5994L92.3501 18.523L92.3519 18.5237L92.7337 17.5994ZM90.2962 15.6818L89.4692 16.2441L89.4736 16.2505L90.2962 15.6818ZM89.3842 12.5199V11.5199H88.3614L88.3845 12.5425L89.3842 12.5199ZM92.9553 12.5199L93.953 12.4521L93.8896 11.5199H92.9553V12.5199ZM93.4581 13.9858L92.6595 14.5876L92.6644 14.5941L92.6694 14.6005L93.4581 13.9858ZM94.6598 14.8636L94.2902 15.7929L94.3029 15.7978L94.6598 14.8636ZM98.0007 14.8807L97.6372 13.9491L97.6333 13.9506L98.0007 14.8807ZM99.0831 14.1222L99.868 14.7418L99.0831 14.1222ZM99.1172 12.017L98.3556 12.6652L98.3636 12.6744L99.1172 12.017ZM98.1115 11.3352L97.7176 12.2544L97.7219 12.2562L98.1115 11.3352ZM96.5007 10.8239L96.2571 11.7938L96.2663 11.796L96.5007 10.8239ZM94.6001 10.3466L94.8437 9.37668L94.8365 9.37492L94.6001 10.3466ZM91.1143 8.66761L90.4481 9.41337L91.1143 8.66761ZM89.8445 5.59091L90.8445 5.59531L90.8444 5.58553L89.8445 5.59091ZM90.6882 2.82102L89.8792 2.23319L89.8765 2.23703L90.6882 2.82102ZM99.8501 0.971591L99.4331 1.88049L99.4351 1.88141L99.8501 0.971591ZM102.117 2.82102L101.292 3.38528V3.38528L102.117 2.82102ZM102.952 5.56534V6.56534H103.969L103.952 5.54895L102.952 5.56534ZM100.411 5.46665C100.317 4.52137 99.8945 3.72024 99.1305 3.15779L97.9447 4.76835C98.2149 4.96726 98.3777 5.23431 98.4204 5.66403L100.411 5.46665ZM99.1305 3.15779C98.3872 2.61048 97.4528 2.39204 96.4325 2.39204V4.39204C97.185 4.39204 97.654 4.55429 97.9447 4.76835L99.1305 3.15779ZM96.4325 2.39204C95.742 2.39204 95.0959 2.48893 94.5268 2.72279L95.2871 4.57267C95.5476 4.46561 95.9185 4.39204 96.4325 4.39204V2.39204ZM94.5378 2.71838C93.9876 2.93692 93.5056 3.26718 93.1524 3.73807L94.7524 4.93807C94.8424 4.81805 94.9967 4.68808 95.2762 4.57708L94.5378 2.71838ZM93.145 3.74805C92.8007 4.21927 92.6285 4.76226 92.6285 5.34375H94.6285C94.6285 5.17524 94.6723 5.04778 94.7598 4.92808L93.145 3.74805ZM92.6292 5.30741C92.6118 5.78638 92.7124 6.25873 92.9708 6.68254L94.6784 5.64132C94.6527 5.59923 94.6226 5.52612 94.6279 5.38009L92.6292 5.30741ZM92.9801 6.69747C93.2107 7.06122 93.5164 7.36001 93.875 7.5991L94.9844 5.93499C94.8317 5.83317 94.7339 5.72855 94.6691 5.62639L92.9801 6.69747ZM93.888 7.60762C94.2136 7.81745 94.5755 7.99283 94.9667 8.13868L95.6654 6.26472C95.3861 6.16058 95.1571 6.04618 94.9714 5.92647L93.888 7.60762ZM94.9807 8.14381C95.3576 8.27796 95.7549 8.39111 96.1714 8.48437L96.6084 6.53268C96.2636 6.45548 95.9449 6.36409 95.6514 6.2596L94.9807 8.14381ZM96.1573 8.4811L97.7255 8.8561L98.1907 6.91094L96.6225 6.53594L96.1573 8.4811ZM97.7396 8.85937C98.4436 9.01697 99.0782 9.22453 99.647 9.47848L100.462 7.6522C99.7584 7.33796 98.9953 7.09098 98.1766 6.90768L97.7396 8.85937ZM99.647 9.47848C100.2 9.72555 100.662 10.0215 101.043 10.3605L102.373 8.86673C101.822 8.37618 101.182 7.97331 100.462 7.6522L99.647 9.47848ZM101.043 10.3605C101.406 10.6835 101.683 11.059 101.88 11.4933L103.701 10.6657C103.387 9.97507 102.942 9.3733 102.373 8.86673L101.043 10.3605ZM101.884 11.5009C102.075 11.9133 102.186 12.4132 102.191 13.022L104.191 13.0064C104.184 12.1606 104.028 11.3708 103.697 10.6582L101.884 11.5009ZM102.191 13.0089C102.186 13.9018 101.962 14.6266 101.549 15.2256L103.197 16.3596C103.864 15.3905 104.184 14.2629 104.191 13.0195L102.191 13.0089ZM101.548 15.2269C101.138 15.8243 100.528 16.3185 99.662 16.6883L100.447 18.5276C101.604 18.0338 102.539 17.3178 103.197 16.3584L101.548 15.2269ZM99.6645 16.6872C98.8133 17.0479 97.7403 17.2472 96.4155 17.2472V19.2472C97.9315 19.2472 99.2847 19.0203 100.445 18.5287L99.6645 16.6872ZM96.4155 17.2472C95.1063 17.2472 94.014 17.0463 93.1154 16.6752L92.3519 18.5237C93.5442 19.0162 94.9065 19.2472 96.4155 19.2472V17.2472ZM93.1172 16.6759C92.2375 16.3106 91.5846 15.787 91.1188 15.1132L89.4736 16.2505C90.1782 17.2698 91.1503 18.0247 92.3501 18.523L93.1172 16.6759ZM91.1231 15.1195C90.6736 14.4585 90.409 13.6026 90.384 12.4973L88.3845 12.5425C88.4163 13.9485 88.7596 15.2006 89.4692 16.2441L91.1231 15.1195ZM89.3842 13.5199H92.9553V11.5199H89.3842V13.5199ZM91.9576 12.5877C92.0079 13.3282 92.2262 14.0127 92.6595 14.5876L94.2567 13.3839C94.0991 13.1748 93.9822 12.882 93.953 12.4521L91.9576 12.5877ZM92.6694 14.6005C93.0904 15.1407 93.6418 15.5349 94.2902 15.7928L95.0294 13.9344C94.6778 13.7946 94.4281 13.6036 94.2468 13.3711L92.6694 14.6005ZM94.3029 15.7978C94.9407 16.0414 95.6355 16.1534 96.3729 16.1534V14.1534C95.8375 14.1534 95.3903 14.0722 95.0167 13.9295L94.3029 15.7978ZM96.3729 16.1534C97.0919 16.1534 97.7646 16.0492 98.3681 15.8107L97.6333 13.9506C97.3163 14.0758 96.9039 14.1534 96.3729 14.1534V16.1534ZM98.3643 15.8123C98.9607 15.5795 99.4809 15.2321 99.868 14.7418L98.2982 13.5025C98.174 13.6599 97.9725 13.8182 97.6372 13.9491L98.3643 15.8123ZM99.868 14.7418C100.266 14.2379 100.467 13.6464 100.467 13.0057H98.4666C98.4666 13.2059 98.4117 13.3587 98.2982 13.5025L99.868 14.7418ZM100.467 13.0057C100.467 12.3995 100.28 11.8286 99.8708 11.3597L98.3636 12.6744C98.4204 12.7395 98.4666 12.8277 98.4666 13.0057H100.467ZM99.8787 11.3689C99.52 10.9474 99.0373 10.6411 98.5011 10.4143L97.7219 12.2562C98.0721 12.4044 98.2598 12.5526 98.3556 12.6652L99.8787 11.3689ZM98.5054 10.4161C98.0012 10.2 97.4073 10.0138 96.7351 9.85171L96.2663 11.796C96.8668 11.9408 97.3468 12.0955 97.7176 12.2544L98.5054 10.4161ZM96.7443 9.85398L94.8437 9.3767L94.3566 11.3165L96.2571 11.7937L96.7443 9.85398ZM94.8365 9.37492C93.4746 9.04365 92.4769 8.54394 91.7806 7.92185L90.4481 9.41337C91.4563 10.314 92.7825 10.9336 94.3638 11.3183L94.8365 9.37492ZM91.7806 7.92185C91.1706 7.37692 90.8399 6.63974 90.8445 5.59531L88.8445 5.5865C88.8377 7.12162 89.3536 8.43558 90.4481 9.41337L91.7806 7.92185ZM90.8444 5.58553C90.8398 4.72089 91.066 4.00818 91.5 3.40502L89.8765 2.23703C89.174 3.21341 88.8378 4.34729 88.8445 5.59628L90.8444 5.58553ZM91.4972 3.40885C91.9555 2.7781 92.5954 2.26644 93.4542 1.88583L92.6438 0.0573511C91.5026 0.563102 90.5686 1.2844 89.8792 2.2332L91.4972 3.40885ZM93.4542 1.88583C94.3074 1.5077 95.3023 1.30682 96.4581 1.30682V-0.693182C95.0684 -0.693182 93.7906 -0.45088 92.6438 0.0573511L93.4542 1.88583ZM96.4581 1.30682C97.6405 1.30682 98.6235 1.509 99.4331 1.88049L100.267 0.0626945C99.145 -0.452178 97.8666 -0.693182 96.4581 -0.693182V1.30682ZM99.4351 1.88141C100.261 2.258 100.866 2.76297 101.292 3.38528L102.943 2.25677C102.289 1.29953 101.383 0.571543 100.265 0.0617714L99.4351 1.88141ZM101.292 3.38528C101.711 3.99933 101.938 4.71991 101.953 5.58173L103.952 5.54895C103.932 4.33123 103.603 3.22226 102.943 2.25676L101.292 3.38528ZM102.952 4.56534H99.4155V6.56534H102.952V4.56534ZM115.142 5.56534L114.147 5.66403L114.236 6.56534H115.142V5.56534ZM110.634 3.64773L111.003 4.57714L111.014 4.57267L110.634 3.64773ZM109.679 4.33807L108.879 3.73802L108.872 3.74805L109.679 4.33807ZM109.355 5.34375L110.354 5.38009L110.355 5.36193V5.34375H109.355ZM109.551 6.16193L108.697 6.68254L108.702 6.69005L108.707 6.69747L109.551 6.16193ZM110.156 6.76705L109.602 7.5991L109.608 7.60341L109.615 7.60762L110.156 6.76705ZM111.043 7.2017L110.693 8.13868L110.7 8.1413L110.707 8.14381L111.043 7.2017ZM112.116 7.50852L112.349 6.53594L112.342 6.53426L112.335 6.53268L112.116 7.50852ZM113.685 7.88352L113.452 8.8561L113.459 8.85778L113.466 8.85937L113.685 7.88352ZM115.781 8.56534L115.374 9.47848L115.781 8.56534ZM117.435 9.61364L118.1 8.86673V8.86673L117.435 9.61364ZM118.517 11.0795L117.607 11.4934L117.61 11.5009L118.517 11.0795ZM118.918 13.0142L119.918 13.0195L119.918 13.0064L118.918 13.0142ZM118.099 15.7926L117.276 15.2256L117.275 15.2269L118.099 15.7926ZM115.781 17.608L116.171 18.5287L116.174 18.5276L115.781 17.608ZM108.46 17.5994L108.077 18.523L108.078 18.5237L108.46 17.5994ZM106.023 15.6818L105.196 16.2441L105.2 16.2505L106.023 15.6818ZM105.111 12.5199V11.5199H104.088L104.111 12.5425L105.111 12.5199ZM108.682 12.5199L109.68 12.4521L109.616 11.5199H108.682V12.5199ZM109.185 13.9858L108.386 14.5876L108.391 14.5941L108.396 14.6005L109.185 13.9858ZM110.386 14.8636L110.017 15.7929L110.029 15.7978L110.386 14.8636ZM113.727 14.8807L113.364 13.9491L113.36 13.9506L113.727 14.8807ZM114.81 14.1222L115.595 14.7418L114.81 14.1222ZM114.844 12.017L114.082 12.6652L114.09 12.6744L114.844 12.017ZM113.838 11.3352L113.444 12.2544L113.448 12.2562L113.838 11.3352ZM112.227 10.8239L111.984 11.7938L111.993 11.796L112.227 10.8239ZM110.327 10.3466L110.57 9.37668L110.563 9.37492L110.327 10.3466ZM106.841 8.66761L106.175 9.41337L106.841 8.66761ZM105.571 5.59091L106.571 5.59531L106.571 5.58553L105.571 5.59091ZM106.415 2.82102L105.606 2.23319L105.603 2.23703L106.415 2.82102ZM115.577 0.971591L115.16 1.88049L115.162 1.88141L115.577 0.971591ZM117.844 2.82102L117.018 3.38528V3.38528L117.844 2.82102ZM118.679 5.56534V6.56534H119.696L119.679 5.54895L118.679 5.56534ZM116.137 5.46665C116.043 4.52137 115.621 3.72024 114.857 3.15779L113.671 4.76835C113.941 4.96726 114.104 5.23431 114.147 5.66403L116.137 5.46665ZM114.857 3.15779C114.114 2.61048 113.179 2.39204 112.159 2.39204V4.39204C112.912 4.39204 113.381 4.55429 113.671 4.76835L114.857 3.15779ZM112.159 2.39204C111.469 2.39204 110.822 2.48893 110.253 2.72279L111.014 4.57267C111.274 4.46561 111.645 4.39204 112.159 4.39204V2.39204ZM110.264 2.71838C109.714 2.93692 109.232 3.26718 108.879 3.73807L110.479 4.93807C110.569 4.81805 110.723 4.68808 111.003 4.57708L110.264 2.71838ZM108.872 3.74805C108.527 4.21927 108.355 4.76226 108.355 5.34375H110.355C110.355 5.17524 110.399 5.04778 110.486 4.92808L108.872 3.74805ZM108.356 5.30741C108.338 5.78638 108.439 6.25873 108.697 6.68254L110.405 5.64132C110.379 5.59923 110.349 5.52612 110.354 5.38009L108.356 5.30741ZM108.707 6.69747C108.937 7.06122 109.243 7.36001 109.602 7.5991L110.711 5.93499C110.558 5.83317 110.46 5.72855 110.396 5.62639L108.707 6.69747ZM109.615 7.60762C109.94 7.81745 110.302 7.99283 110.693 8.13868L111.392 6.26472C111.113 6.16058 110.884 6.04618 110.698 5.92647L109.615 7.60762ZM110.707 8.14381C111.084 8.27796 111.481 8.39111 111.898 8.48437L112.335 6.53268C111.99 6.45548 111.671 6.36409 111.378 6.2596L110.707 8.14381ZM111.884 8.4811L113.452 8.8561L113.917 6.91094L112.349 6.53594L111.884 8.4811ZM113.466 8.85937C114.17 9.01697 114.805 9.22453 115.374 9.47848L116.189 7.6522C115.485 7.33796 114.722 7.09098 113.903 6.90768L113.466 8.85937ZM115.374 9.47848C115.927 9.72555 116.389 10.0215 116.77 10.3605L118.1 8.86673C117.549 8.37618 116.908 7.97331 116.189 7.6522L115.374 9.47848ZM116.77 10.3605C117.133 10.6835 117.409 11.059 117.607 11.4933L119.427 10.6657C119.113 9.97507 118.669 9.3733 118.1 8.86673L116.77 10.3605ZM117.61 11.5009C117.802 11.9133 117.913 12.4132 117.918 13.022L119.918 13.0064C119.911 12.1606 119.755 11.3708 119.424 10.6582L117.61 11.5009ZM117.918 13.0089C117.913 13.9018 117.688 14.6266 117.276 15.2256L118.923 16.3596C119.59 15.3905 119.911 14.2629 119.918 13.0195L117.918 13.0089ZM117.275 15.2269C116.865 15.8243 116.255 16.3185 115.389 16.6883L116.174 18.5276C117.331 18.0338 118.266 17.3178 118.924 16.3584L117.275 15.2269ZM115.391 16.6872C114.54 17.0479 113.467 17.2472 112.142 17.2472V19.2472C113.658 19.2472 115.011 19.0203 116.171 18.5287L115.391 16.6872ZM112.142 17.2472C110.833 17.2472 109.741 17.0463 108.842 16.6752L108.078 18.5237C109.271 19.0162 110.633 19.2472 112.142 19.2472V17.2472ZM108.844 16.6759C107.964 16.3106 107.311 15.787 106.845 15.1132L105.2 16.2505C105.905 17.2698 106.877 18.0247 108.077 18.523L108.844 16.6759ZM106.85 15.1195C106.4 14.4585 106.136 13.6026 106.111 12.4973L104.111 12.5425C104.143 13.9485 104.486 15.2006 105.196 16.2441L106.85 15.1195ZM105.111 13.5199H108.682V11.5199H105.111V13.5199ZM107.684 12.5877C107.734 13.3282 107.953 14.0127 108.386 14.5876L109.983 13.3839C109.826 13.1748 109.709 12.882 109.68 12.4521L107.684 12.5877ZM108.396 14.6005C108.817 15.1407 109.368 15.5349 110.017 15.7928L110.756 13.9344C110.404 13.7946 110.155 13.6036 109.973 13.3711L108.396 14.6005ZM110.029 15.7978C110.667 16.0414 111.362 16.1534 112.099 16.1534V14.1534C111.564 14.1534 111.117 14.0722 110.743 13.9295L110.029 15.7978ZM112.099 16.1534C112.818 16.1534 113.491 16.0492 114.095 15.8107L113.36 13.9506C113.043 14.0758 112.63 14.1534 112.099 14.1534V16.1534ZM114.091 15.8123C114.687 15.5795 115.207 15.2321 115.595 14.7418L114.025 13.5025C113.901 13.6599 113.699 13.8182 113.364 13.9491L114.091 15.8123ZM115.595 14.7418C115.992 14.2379 116.193 13.6464 116.193 13.0057H114.193C114.193 13.2059 114.138 13.3587 114.025 13.5025L115.595 14.7418ZM116.193 13.0057C116.193 12.3995 116.006 11.8286 115.597 11.3597L114.09 12.6744C114.147 12.7395 114.193 12.8277 114.193 13.0057H116.193ZM115.605 11.3689C115.247 10.9474 114.764 10.6411 114.228 10.4143L113.448 12.2562C113.799 12.4044 113.986 12.5526 114.082 12.6652L115.605 11.3689ZM114.232 10.4161C113.728 10.2 113.134 10.0138 112.462 9.85171L111.993 11.796C112.593 11.9408 113.073 12.0955 113.444 12.2544L114.232 10.4161ZM112.471 9.85398L110.57 9.3767L110.083 11.3165L111.984 11.7937L112.471 9.85398ZM110.563 9.37492C109.201 9.04365 108.203 8.54394 107.507 7.92185L106.175 9.41337C107.183 10.314 108.509 10.9336 110.09 11.3183L110.563 9.37492ZM107.507 7.92185C106.897 7.37692 106.566 6.63974 106.571 5.59531L104.571 5.5865C104.564 7.12162 105.08 8.43558 106.175 9.41337L107.507 7.92185ZM106.571 5.58553C106.566 4.72089 106.793 4.00818 107.227 3.40502L105.603 2.23703C104.901 3.21341 104.564 4.34729 104.571 5.59628L106.571 5.58553ZM107.224 3.40885C107.682 2.7781 108.322 2.26644 109.181 1.88583L108.37 0.0573511C107.229 0.563102 106.295 1.2844 105.606 2.2332L107.224 3.40885ZM109.181 1.88583C110.034 1.5077 111.029 1.30682 112.185 1.30682V-0.693182C110.795 -0.693182 109.517 -0.45088 108.37 0.0573511L109.181 1.88583ZM112.185 1.30682C113.367 1.30682 114.35 1.509 115.16 1.88049L115.994 0.0626945C114.872 -0.452178 113.593 -0.693182 112.185 -0.693182V1.30682ZM115.162 1.88141C115.987 2.258 116.593 2.76297 117.018 3.38528L118.669 2.25677C118.015 1.29953 117.109 0.571543 115.992 0.0617714L115.162 1.88141ZM117.018 3.38528C117.438 3.99933 117.665 4.71991 117.679 5.58173L119.679 5.54895C119.659 4.33123 119.329 3.22226 118.669 2.25676L117.018 3.38528ZM118.679 4.56534H115.142V6.56534H118.679V4.56534ZM121.4 18H120.4V19H121.4V18ZM121.4 0.545454V-0.454546H120.4V0.545454H121.4ZM133.161 0.545454H134.161V-0.454546H133.161V0.545454ZM133.161 3.58807V4.58807H134.161V3.58807H133.161ZM125.09 3.58807V2.58807H124.09V3.58807H125.09ZM125.09 7.74716H124.09V8.74716H125.09V7.74716ZM132.556 7.74716H133.556V6.74716H132.556V7.74716ZM132.556 10.7898V11.7898H133.556V10.7898H132.556ZM125.09 10.7898V9.78977H124.09V10.7898H125.09ZM125.09 14.9574H124.09V15.9574H125.09V14.9574ZM133.195 14.9574H134.195V13.9574H133.195V14.9574ZM133.195 18V19H134.195V18H133.195ZM122.4 18V0.545454H120.4V18H122.4ZM121.4 1.54545H133.161V-0.454546H121.4V1.54545ZM132.161 0.545454V3.58807H134.161V0.545454H132.161ZM133.161 2.58807H125.09V4.58807H133.161V2.58807ZM124.09 3.58807V7.74716H126.09V3.58807H124.09ZM125.09 8.74716H132.556V6.74716H125.09V8.74716ZM131.556 7.74716V10.7898H133.556V7.74716H131.556ZM132.556 9.78977H125.09V11.7898H132.556V9.78977ZM124.09 10.7898V14.9574H126.09V10.7898H124.09ZM125.09 15.9574H133.195V13.9574H125.09V15.9574ZM132.195 14.9574V18H134.195V14.9574H132.195ZM133.195 17H121.4V19H133.195V17ZM135.43 3.58807H134.43V4.58807H135.43V3.58807ZM135.43 0.545454V-0.454546H134.43V0.545454H135.43ZM149.766 0.545454H150.766V-0.454546H149.766V0.545454ZM149.766 3.58807V4.58807H150.766V3.58807H149.766ZM144.422 3.58807V2.58807H143.422V3.58807H144.422ZM144.422 18V19H145.422V18H144.422ZM140.774 18H139.774V19H140.774V18ZM140.774 3.58807H141.774V2.58807H140.774V3.58807ZM136.43 3.58807V0.545454H134.43V3.58807H136.43ZM135.43 1.54545H149.766V-0.454546H135.43V1.54545ZM148.766 0.545454V3.58807H150.766V0.545454H148.766ZM149.766 2.58807H144.422V4.58807H149.766V2.58807ZM143.422 3.58807V18H145.422V3.58807H143.422ZM144.422 17H140.774V19H144.422V17ZM141.774 18V3.58807H139.774V18H141.774ZM140.774 2.58807H135.43V4.58807H140.774V2.58807ZM161.595 5.56534L160.6 5.66403L160.689 6.56534H161.595V5.56534ZM157.087 3.64773L157.456 4.57714L157.467 4.57267L157.087 3.64773ZM156.132 4.33807L155.332 3.73802L155.325 3.74805L156.132 4.33807ZM155.808 5.34375L156.808 5.38009L156.808 5.36193V5.34375H155.808ZM156.004 6.16193L155.15 6.68254L155.155 6.69005L155.16 6.69747L156.004 6.16193ZM156.609 6.76705L156.055 7.5991L156.061 7.60341L156.068 7.60762L156.609 6.76705ZM157.496 7.2017L157.146 8.13868L157.153 8.1413L157.16 8.14381L157.496 7.2017ZM158.57 7.50852L158.802 6.53594L158.795 6.53426L158.788 6.53268L158.57 7.50852ZM160.138 7.88352L159.905 8.8561L159.912 8.85778L159.919 8.85937L160.138 7.88352ZM162.234 8.56534L161.827 9.47848L162.234 8.56534ZM163.888 9.61364L164.553 8.86673V8.86673L163.888 9.61364ZM164.97 11.0795L164.06 11.4934L164.063 11.5009L164.97 11.0795ZM165.371 13.0142L166.371 13.0195L166.371 13.0064L165.371 13.0142ZM164.553 15.7926L163.729 15.2256L163.728 15.2269L164.553 15.7926ZM162.234 17.608L162.625 18.5287L162.627 18.5276L162.234 17.608ZM154.913 17.5994L154.53 18.523L154.532 18.5237L154.913 17.5994ZM152.476 15.6818L151.649 16.2441L151.653 16.2505L152.476 15.6818ZM151.564 12.5199V11.5199H150.541L150.564 12.5425L151.564 12.5199ZM155.135 12.5199L156.133 12.4521L156.069 11.5199H155.135V12.5199ZM155.638 13.9858L154.839 14.5876L154.844 14.5941L154.849 14.6005L155.638 13.9858ZM156.839 14.8636L156.47 15.7929L156.483 15.7978L156.839 14.8636ZM160.18 14.8807L159.817 13.9491L159.813 13.9506L160.18 14.8807ZM161.263 14.1222L162.048 14.7418L161.263 14.1222ZM161.297 12.017L160.535 12.6652L160.543 12.6744L161.297 12.017ZM160.291 11.3352L159.897 12.2544L159.902 12.2562L160.291 11.3352ZM158.68 10.8239L158.437 11.7938L158.446 11.796L158.68 10.8239ZM156.78 10.3466L157.023 9.37668L157.016 9.37492L156.78 10.3466ZM153.294 8.66761L152.628 9.41337L153.294 8.66761ZM152.024 5.59091L153.024 5.59531L153.024 5.58553L152.024 5.59091ZM152.868 2.82102L152.059 2.23319L152.056 2.23703L152.868 2.82102ZM162.03 0.971591L161.613 1.88049L161.615 1.88141L162.03 0.971591ZM164.297 2.82102L163.471 3.38528V3.38528L164.297 2.82102ZM165.132 5.56534V6.56534H166.149L166.132 5.54895L165.132 5.56534ZM162.59 5.46665C162.497 4.52137 162.074 3.72024 161.31 3.15779L160.124 4.76835C160.395 4.96726 160.557 5.23431 160.6 5.66403L162.59 5.46665ZM161.31 3.15779C160.567 2.61048 159.632 2.39204 158.612 2.39204V4.39204C159.365 4.39204 159.834 4.55429 160.124 4.76835L161.31 3.15779ZM158.612 2.39204C157.922 2.39204 157.276 2.48893 156.707 2.72279L157.467 4.57267C157.727 4.46561 158.098 4.39204 158.612 4.39204V2.39204ZM156.717 2.71838C156.167 2.93692 155.685 3.26718 155.332 3.73807L156.932 4.93807C157.022 4.81805 157.176 4.68808 157.456 4.57708L156.717 2.71838ZM155.325 3.74805C154.98 4.21927 154.808 4.76226 154.808 5.34375H156.808C156.808 5.17524 156.852 5.04778 156.939 4.92808L155.325 3.74805ZM154.809 5.30741C154.791 5.78638 154.892 6.25873 155.15 6.68254L156.858 5.64132C156.832 5.59923 156.802 5.52612 156.808 5.38009L154.809 5.30741ZM155.16 6.69747C155.39 7.06122 155.696 7.36001 156.055 7.5991L157.164 5.93499C157.011 5.83317 156.914 5.72855 156.849 5.62639L155.16 6.69747ZM156.068 7.60762C156.393 7.81745 156.755 7.99283 157.146 8.13868L157.845 6.26472C157.566 6.16058 157.337 6.04618 157.151 5.92647L156.068 7.60762ZM157.16 8.14381C157.537 8.27796 157.935 8.39111 158.351 8.48437L158.788 6.53268C158.443 6.45548 158.125 6.36409 157.831 6.2596L157.16 8.14381ZM158.337 8.4811L159.905 8.8561L160.37 6.91094L158.802 6.53594L158.337 8.4811ZM159.919 8.85937C160.623 9.01697 161.258 9.22453 161.827 9.47848L162.642 7.6522C161.938 7.33796 161.175 7.09098 160.356 6.90768L159.919 8.85937ZM161.827 9.47848C162.38 9.72555 162.842 10.0215 163.223 10.3605L164.553 8.86673C164.002 8.37618 163.361 7.97331 162.642 7.6522L161.827 9.47848ZM163.223 10.3605C163.586 10.6835 163.862 11.059 164.06 11.4933L165.881 10.6657C165.567 9.97507 165.122 9.3733 164.553 8.86673L163.223 10.3605ZM164.063 11.5009C164.255 11.9133 164.366 12.4132 164.371 13.022L166.371 13.0064C166.364 12.1606 166.208 11.3708 165.877 10.6582L164.063 11.5009ZM164.371 13.0089C164.366 13.9018 164.141 14.6266 163.729 15.2256L165.376 16.3596C166.043 15.3905 166.364 14.2629 166.371 13.0195L164.371 13.0089ZM163.728 15.2269C163.318 15.8243 162.708 16.3185 161.842 16.6883L162.627 18.5276C163.784 18.0338 164.719 17.3178 165.377 16.3584L163.728 15.2269ZM161.844 16.6872C160.993 17.0479 159.92 17.2472 158.595 17.2472V19.2472C160.111 19.2472 161.464 19.0203 162.625 18.5287L161.844 16.6872ZM158.595 17.2472C157.286 17.2472 156.194 17.0463 155.295 16.6752L154.532 18.5237C155.724 19.0162 157.086 19.2472 158.595 19.2472V17.2472ZM155.297 16.6759C154.417 16.3106 153.764 15.787 153.298 15.1132L151.653 16.2505C152.358 17.2698 153.33 18.0247 154.53 18.523L155.297 16.6759ZM153.303 15.1195C152.853 14.4585 152.589 13.6026 152.564 12.4973L150.564 12.5425C150.596 13.9485 150.939 15.2006 151.649 16.2441L153.303 15.1195ZM151.564 13.5199H155.135V11.5199H151.564V13.5199ZM154.137 12.5877C154.188 13.3282 154.406 14.0127 154.839 14.5876L156.436 13.3839C156.279 13.1748 156.162 12.882 156.133 12.4521L154.137 12.5877ZM154.849 14.6005C155.27 15.1407 155.821 15.5349 156.47 15.7928L157.209 13.9344C156.858 13.7946 156.608 13.6036 156.427 13.3711L154.849 14.6005ZM156.483 15.7978C157.12 16.0414 157.815 16.1534 158.553 16.1534V14.1534C158.017 14.1534 157.57 14.0722 157.196 13.9295L156.483 15.7978ZM158.553 16.1534C159.272 16.1534 159.944 16.0492 160.548 15.8107L159.813 13.9506C159.496 14.0758 159.084 14.1534 158.553 14.1534V16.1534ZM160.544 15.8123C161.14 15.5795 161.661 15.2321 162.048 14.7418L160.478 13.5025C160.354 13.6599 160.152 13.8182 159.817 13.9491L160.544 15.8123ZM162.048 14.7418C162.446 14.2379 162.646 13.6464 162.646 13.0057H160.646C160.646 13.2059 160.591 13.3587 160.478 13.5025L162.048 14.7418ZM162.646 13.0057C162.646 12.3995 162.46 11.8286 162.05 11.3597L160.543 12.6744C160.6 12.7395 160.646 12.8277 160.646 13.0057H162.646ZM162.058 11.3689C161.7 10.9474 161.217 10.6411 160.681 10.4143L159.902 12.2562C160.252 12.4044 160.439 12.5526 160.535 12.6652L162.058 11.3689ZM160.685 10.4161C160.181 10.2 159.587 10.0138 158.915 9.85171L158.446 11.796C159.047 11.9408 159.526 12.0955 159.897 12.2544L160.685 10.4161ZM158.924 9.85398L157.023 9.3767L156.536 11.3165L158.437 11.7937L158.924 9.85398ZM157.016 9.37492C155.654 9.04365 154.657 8.54394 153.96 7.92185L152.628 9.41337C153.636 10.314 154.962 10.9336 156.543 11.3183L157.016 9.37492ZM153.96 7.92185C153.35 7.37692 153.02 6.63974 153.024 5.59531L151.024 5.5865C151.017 7.12162 151.533 8.43558 152.628 9.41337L153.96 7.92185ZM153.024 5.58553C153.019 4.72089 153.246 4.00818 153.68 3.40502L152.056 2.23703C151.354 3.21341 151.017 4.34729 151.024 5.59628L153.024 5.58553ZM153.677 3.40885C154.135 2.7781 154.775 2.26644 155.634 1.88583L154.824 0.0573511C153.682 0.563102 152.748 1.2844 152.059 2.2332L153.677 3.40885ZM155.634 1.88583C156.487 1.5077 157.482 1.30682 158.638 1.30682V-0.693182C157.248 -0.693182 155.97 -0.45088 154.824 0.0573511L155.634 1.88583ZM158.638 1.30682C159.82 1.30682 160.803 1.509 161.613 1.88049L162.447 0.0626945C161.325 -0.452178 160.046 -0.693182 158.638 -0.693182V1.30682ZM161.615 1.88141C162.44 2.258 163.046 2.76297 163.471 3.38528L165.122 2.25677C164.468 1.29953 163.562 0.571543 162.445 0.0617714L161.615 1.88141ZM163.471 3.38528C163.891 3.99933 164.118 4.71991 164.132 5.58173L166.132 5.54895C166.112 4.33123 165.782 3.22226 165.122 2.25676L163.471 3.38528ZM165.132 4.56534H161.595V6.56534H165.132V4.56534Z" fill="black" mask="url(#path-1-outside-1_92_8)"/>
</g>
<defs>
<filter id="filter0_d_92_8" x="0.51709" y="0.306816" width="168.854" height="25.9403" filterUnits="userSpaceOnUse" color-interpolation-filters="sRGB">
<feFlood flood-opacity="0" result="BackgroundImageFix"/>
<feColorMatrix in="SourceAlpha" type="matrix" values="0 0 0 0 0 0 0 0 0 0 0 0 0 0 0 0 0 0 127 0" result="hardAlpha"/>
<feOffset dy="4"/>
<feGaussianBlur stdDeviation="2"/>
<feComposite in2="hardAlpha" operator="out"/>
<feColorMatrix type="matrix" values="0 0 0 0 0 0 0 0 0 0 0 0 0 0 0 0 0 0 0.25 0"/>
<feBlend mode="normal" in2="BackgroundImageFix" result="effect1_dropShadow_92_8"/>
<feBlend mode="normal" in="SourceGraphic" in2="effect1_dropShadow_92_8" result="shape"/>
</filter>
</defs>
</svg>
