<svg width="114" height="27" viewBox="0 0 114 27" fill="none" xmlns="http://www.w3.org/2000/svg">
<g filter="url(#filter0_d_92_6)">
<mask id="path-1-outside-1_92_6" maskUnits="userSpaceOnUse" x="3" y="-1" width="108" height="21" fill="black">
<rect fill="white" x="3" y="-1" width="108" height="21"/>
<path d="M4.51705 18V0.545454H11.4034C12.7273 0.545454 13.8551 0.798295 14.7869 1.30398C15.7188 1.80398 16.429 2.5 16.9176 3.39204C17.4119 4.27841 17.6591 5.30114 17.6591 6.46023C17.6591 7.61932 17.4091 8.64205 16.9091 9.52841C16.4091 10.4148 15.6847 11.1051 14.7358 11.5994C13.7926 12.0937 12.6506 12.3409 11.3097 12.3409H6.92045V9.38352H10.7131C11.4233 9.38352 12.0085 9.26136 12.4688 9.01705C12.9347 8.76705 13.2813 8.4233 13.5085 7.9858C13.7415 7.54261 13.858 7.03409 13.858 6.46023C13.858 5.88068 13.7415 5.375 13.5085 4.94318C13.2813 4.50568 12.9347 4.16761 12.4688 3.92898C12.0028 3.68466 11.4119 3.5625 10.696 3.5625H8.20739V18H4.51705ZM20.0561 18V0.545454H23.7464V14.9574H31.2294V18H20.0561ZM33.6733 18V0.545454H45.4347V3.58807H37.3636V7.74716H44.8295V10.7898H37.3636V14.9574H45.4688V18H33.6733ZM57.8374 5.56534C57.7692 4.87784 57.4766 4.34375 56.9595 3.96307C56.4425 3.58239 55.7408 3.39204 54.8544 3.39204C54.2521 3.39204 53.7436 3.47727 53.3288 3.64773C52.9141 3.8125 52.5959 4.04261 52.3743 4.33807C52.1584 4.63352 52.0504 4.96875 52.0504 5.34375C52.0391 5.65625 52.1044 5.92898 52.2464 6.16193C52.3942 6.39489 52.5959 6.59659 52.8516 6.76705C53.1072 6.93182 53.4027 7.0767 53.7379 7.2017C54.0732 7.32102 54.4311 7.4233 54.8118 7.50852L56.38 7.88352C57.1413 8.05398 57.8402 8.28125 58.4766 8.56534C59.1129 8.84943 59.6641 9.19886 60.13 9.61364C60.5959 10.0284 60.9567 10.517 61.2124 11.0795C61.4737 11.642 61.6072 12.2869 61.6129 13.0142C61.6072 14.0824 61.3345 15.0085 60.7947 15.7926C60.2607 16.571 59.4879 17.1761 58.4766 17.608C57.4709 18.0341 56.2578 18.2472 54.8374 18.2472C53.4283 18.2472 52.201 18.0312 51.1555 17.5994C50.1158 17.1676 49.3033 16.5284 48.718 15.6818C48.1385 14.8295 47.8345 13.7756 47.8061 12.5199H51.3771C51.4169 13.1051 51.5845 13.5937 51.88 13.9858C52.1811 14.3722 52.5817 14.6648 53.0817 14.8636C53.5874 15.0568 54.1584 15.1534 54.7947 15.1534C55.4197 15.1534 55.9624 15.0625 56.4226 14.8807C56.8885 14.6989 57.2493 14.446 57.505 14.1222C57.7607 13.7983 57.8885 13.4261 57.8885 13.0057C57.8885 12.6136 57.772 12.2841 57.5391 12.017C57.3118 11.75 56.9766 11.5227 56.5334 11.3352C56.0959 11.1477 55.5589 10.9773 54.9226 10.8239L53.022 10.3466C51.5504 9.98864 50.3885 9.42898 49.5362 8.66761C48.6839 7.90625 48.2607 6.88068 48.2663 5.59091C48.2607 4.53409 48.5419 3.6108 49.1101 2.82102C49.6839 2.03125 50.4709 1.41477 51.4709 0.971591C52.4709 0.528409 53.6072 0.306818 54.88 0.306818C56.1754 0.306818 57.3061 0.528409 58.272 0.971591C59.2436 1.41477 59.9993 2.03125 60.5391 2.82102C61.0788 3.6108 61.3572 4.52557 61.3743 5.56534H57.8374ZM74.8764 0.545454H78.5668V11.8807C78.5668 13.1534 78.2628 14.267 77.6548 15.2216C77.0526 16.1761 76.2088 16.9205 75.1236 17.4545C74.0384 17.983 72.7741 18.2472 71.331 18.2472C69.8821 18.2472 68.6151 17.983 67.5298 17.4545C66.4446 16.9205 65.6009 16.1761 64.9986 15.2216C64.3963 14.267 64.0952 13.1534 64.0952 11.8807V0.545454H67.7855V11.5653C67.7855 12.2301 67.9304 12.821 68.2202 13.3381C68.5156 13.8551 68.9304 14.2614 69.4645 14.5568C69.9986 14.8523 70.6207 15 71.331 15C72.0469 15 72.669 14.8523 73.1974 14.5568C73.7315 14.2614 74.1435 13.8551 74.4332 13.3381C74.7287 12.821 74.8764 12.2301 74.8764 11.5653V0.545454ZM81.603 18V0.545454H88.4893C89.8075 0.545454 90.9325 0.78125 91.8643 1.25284C92.8018 1.71875 93.5149 2.38068 94.0036 3.23864C94.4979 4.09091 94.745 5.09375 94.745 6.24716C94.745 7.40625 94.495 8.40341 93.995 9.23864C93.495 10.0682 92.7706 10.7045 91.8217 11.1477C90.8786 11.5909 89.7365 11.8125 88.3956 11.8125H83.7848V8.84659H87.799C88.5036 8.84659 89.0888 8.75 89.5547 8.55682C90.0206 8.36364 90.3672 8.07386 90.5945 7.6875C90.8274 7.30114 90.9439 6.82102 90.9439 6.24716C90.9439 5.66761 90.8274 5.17898 90.5945 4.78125C90.3672 4.38352 90.0178 4.08239 89.5462 3.87784C89.0803 3.66761 88.4922 3.5625 87.782 3.5625H85.2933V18H81.603ZM91.0291 10.0568L95.3672 18H91.2933L87.049 10.0568H91.0291ZM97.353 18V0.545454H109.114V3.58807H101.043V7.74716H108.509V10.7898H101.043V14.9574H109.148V18H97.353Z"/>
</mask>
<path d="M4.51705 18V0.545454H11.4034C12.7273 0.545454 13.8551 0.798295 14.7869 1.30398C15.7188 1.80398 16.429 2.5 16.9176 3.39204C17.4119 4.27841 17.6591 5.30114 17.6591 6.46023C17.6591 7.61932 17.4091 8.64205 16.9091 9.52841C16.4091 10.4148 15.6847 11.1051 14.7358 11.5994C13.7926 12.0937 12.6506 12.3409 11.3097 12.3409H6.92045V9.38352H10.7131C11.4233 9.38352 12.0085 9.26136 12.4688 9.01705C12.9347 8.76705 13.2813 8.4233 13.5085 7.9858C13.7415 7.54261 13.858 7.03409 13.858 6.46023C13.858 5.88068 13.7415 5.375 13.5085 4.94318C13.2813 4.50568 12.9347 4.16761 12.4688 3.92898C12.0028 3.68466 11.4119 3.5625 10.696 3.5625H8.20739V18H4.51705ZM20.0561 18V0.545454H23.7464V14.9574H31.2294V18H20.0561ZM33.6733 18V0.545454H45.4347V3.58807H37.3636V7.74716H44.8295V10.7898H37.3636V14.9574H45.4688V18H33.6733ZM57.8374 5.56534C57.7692 4.87784 57.4766 4.34375 56.9595 3.96307C56.4425 3.58239 55.7408 3.39204 54.8544 3.39204C54.2521 3.39204 53.7436 3.47727 53.3288 3.64773C52.9141 3.8125 52.5959 4.04261 52.3743 4.33807C52.1584 4.63352 52.0504 4.96875 52.0504 5.34375C52.0391 5.65625 52.1044 5.92898 52.2464 6.16193C52.3942 6.39489 52.5959 6.59659 52.8516 6.76705C53.1072 6.93182 53.4027 7.0767 53.7379 7.2017C54.0732 7.32102 54.4311 7.4233 54.8118 7.50852L56.38 7.88352C57.1413 8.05398 57.8402 8.28125 58.4766 8.56534C59.1129 8.84943 59.6641 9.19886 60.13 9.61364C60.5959 10.0284 60.9567 10.517 61.2124 11.0795C61.4737 11.642 61.6072 12.2869 61.6129 13.0142C61.6072 14.0824 61.3345 15.0085 60.7947 15.7926C60.2607 16.571 59.4879 17.1761 58.4766 17.608C57.4709 18.0341 56.2578 18.2472 54.8374 18.2472C53.4283 18.2472 52.201 18.0312 51.1555 17.5994C50.1158 17.1676 49.3033 16.5284 48.718 15.6818C48.1385 14.8295 47.8345 13.7756 47.8061 12.5199H51.3771C51.4169 13.1051 51.5845 13.5937 51.88 13.9858C52.1811 14.3722 52.5817 14.6648 53.0817 14.8636C53.5874 15.0568 54.1584 15.1534 54.7947 15.1534C55.4197 15.1534 55.9624 15.0625 56.4226 14.8807C56.8885 14.6989 57.2493 14.446 57.505 14.1222C57.7607 13.7983 57.8885 13.4261 57.8885 13.0057C57.8885 12.6136 57.772 12.2841 57.5391 12.017C57.3118 11.75 56.9766 11.5227 56.5334 11.3352C56.0959 11.1477 55.5589 10.9773 54.9226 10.8239L53.022 10.3466C51.5504 9.98864 50.3885 9.42898 49.5362 8.66761C48.6839 7.90625 48.2607 6.88068 48.2663 5.59091C48.2607 4.53409 48.5419 3.6108 49.1101 2.82102C49.6839 2.03125 50.4709 1.41477 51.4709 0.971591C52.4709 0.528409 53.6072 0.306818 54.88 0.306818C56.1754 0.306818 57.3061 0.528409 58.272 0.971591C59.2436 1.41477 59.9993 2.03125 60.5391 2.82102C61.0788 3.6108 61.3572 4.52557 61.3743 5.56534H57.8374ZM74.8764 0.545454H78.5668V11.8807C78.5668 13.1534 78.2628 14.267 77.6548 15.2216C77.0526 16.1761 76.2088 16.9205 75.1236 17.4545C74.0384 17.983 72.7741 18.2472 71.331 18.2472C69.8821 18.2472 68.6151 17.983 67.5298 17.4545C66.4446 16.9205 65.6009 16.1761 64.9986 15.2216C64.3963 14.267 64.0952 13.1534 64.0952 11.8807V0.545454H67.7855V11.5653C67.7855 12.2301 67.9304 12.821 68.2202 13.3381C68.5156 13.8551 68.9304 14.2614 69.4645 14.5568C69.9986 14.8523 70.6207 15 71.331 15C72.0469 15 72.669 14.8523 73.1974 14.5568C73.7315 14.2614 74.1435 13.8551 74.4332 13.3381C74.7287 12.821 74.8764 12.2301 74.8764 11.5653V0.545454ZM81.603 18V0.545454H88.4893C89.8075 0.545454 90.9325 0.78125 91.8643 1.25284C92.8018 1.71875 93.5149 2.38068 94.0036 3.23864C94.4979 4.09091 94.745 5.09375 94.745 6.24716C94.745 7.40625 94.495 8.40341 93.995 9.23864C93.495 10.0682 92.7706 10.7045 91.8217 11.1477C90.8786 11.5909 89.7365 11.8125 88.3956 11.8125H83.7848V8.84659H87.799C88.5036 8.84659 89.0888 8.75 89.5547 8.55682C90.0206 8.36364 90.3672 8.07386 90.5945 7.6875C90.8274 7.30114 90.9439 6.82102 90.9439 6.24716C90.9439 5.66761 90.8274 5.17898 90.5945 4.78125C90.3672 4.38352 90.0178 4.08239 89.5462 3.87784C89.0803 3.66761 88.4922 3.5625 87.782 3.5625H85.2933V18H81.603ZM91.0291 10.0568L95.3672 18H91.2933L87.049 10.0568H91.0291ZM97.353 18V0.545454H109.114V3.58807H101.043V7.74716H108.509V10.7898H101.043V14.9574H109.148V18H97.353Z" fill="white"/>
<path d="M4.51705 18H3.51705V19H4.51705V18ZM4.51705 0.545454V-0.454546H3.51705V0.545454H4.51705ZM14.7869 1.30398L14.31 2.1829L14.3141 2.18514L14.7869 1.30398ZM16.9176 3.39204L16.0405 3.87248L16.0442 3.87911L16.9176 3.39204ZM14.7358 11.5994L14.2738 10.7126L14.2716 10.7137L14.7358 11.5994ZM6.92045 12.3409H5.92045V13.3409H6.92045V12.3409ZM6.92045 9.38352V8.38352H5.92045V9.38352H6.92045ZM12.4688 9.01705L12.9376 9.90031L12.9416 9.89821L12.4688 9.01705ZM13.5085 7.9858L12.6233 7.52051L12.6211 7.52481L13.5085 7.9858ZM13.5085 4.94318L12.6211 5.40417L12.6247 5.4111L12.6284 5.41797L13.5085 4.94318ZM12.4688 3.92898L12.0043 4.81464L12.0129 4.81902L12.4688 3.92898ZM8.20739 3.5625V2.5625H7.20739V3.5625H8.20739ZM8.20739 18V19H9.20739V18H8.20739ZM5.51705 18V0.545454H3.51705V18H5.51705ZM4.51705 1.54545H11.4034V-0.454546H4.51705V1.54545ZM11.4034 1.54545C12.6014 1.54545 13.5566 1.77407 14.31 2.18289L15.2639 0.425059C14.1536 -0.177481 12.8531 -0.454546 11.4034 -0.454546V1.54545ZM14.3141 2.18514C15.0824 2.59737 15.6488 3.15731 16.0406 3.87246L17.7947 2.91163C17.2091 1.84268 16.3551 1.01058 15.2598 0.422817L14.3141 2.18514ZM16.0442 3.87911C16.4443 4.59651 16.6591 5.44709 16.6591 6.46023H18.6591C18.6591 5.15518 18.3795 3.96031 17.791 2.90498L16.0442 3.87911ZM16.6591 6.46023C16.6591 7.47145 16.4424 8.32048 16.0381 9.03709L17.7801 10.0197C18.3758 8.96361 18.6591 7.76719 18.6591 6.46023H16.6591ZM16.0381 9.03709C15.6383 9.7459 15.0602 10.3029 14.2738 10.7126L15.1978 12.4863C16.3092 11.9073 17.1799 11.0836 17.7801 10.0197L16.0381 9.03709ZM14.2716 10.7137C13.504 11.116 12.5299 11.3409 11.3097 11.3409V13.3409C12.7713 13.3409 14.0812 13.0715 15.2 12.4852L14.2716 10.7137ZM11.3097 11.3409H6.92045V13.3409H11.3097V11.3409ZM7.92045 12.3409V9.38352H5.92045V12.3409H7.92045ZM6.92045 10.3835H10.7131V8.38352H6.92045V10.3835ZM10.7131 10.3835C11.5302 10.3835 12.2902 10.244 12.9376 9.9003L11.9999 8.13379C11.7269 8.27871 11.3164 8.38352 10.7131 8.38352V10.3835ZM12.9416 9.89821C13.5713 9.56031 14.0691 9.07601 14.3959 8.44678L12.6211 7.52481C12.4934 7.77058 12.298 7.97378 11.9959 8.13589L12.9416 9.89821ZM14.3937 8.45107C14.7124 7.84466 14.858 7.17233 14.858 6.46023H12.858C12.858 6.89585 12.7705 7.24056 12.6234 7.52052L14.3937 8.45107ZM14.858 6.46023C14.858 5.74497 14.7134 5.07042 14.3886 4.46839L12.6284 5.41797C12.7696 5.67958 12.858 6.0164 12.858 6.46023H14.858ZM14.3959 4.48219C14.0668 3.84861 13.5634 3.36609 12.9246 3.03893L12.0129 4.81902C12.306 4.96914 12.4957 5.16275 12.6211 5.40417L14.3959 4.48219ZM12.9332 3.04336C12.2817 2.70175 11.5181 2.5625 10.696 2.5625V4.5625C11.3058 4.5625 11.724 4.66757 12.0043 4.8146L12.9332 3.04336ZM10.696 2.5625H8.20739V4.5625H10.696V2.5625ZM7.20739 3.5625V18H9.20739V3.5625H7.20739ZM8.20739 17H4.51705V19H8.20739V17ZM20.0561 18H19.0561V19H20.0561V18ZM20.0561 0.545454V-0.454546H19.0561V0.545454H20.0561ZM23.7464 0.545454H24.7464V-0.454546H23.7464V0.545454ZM23.7464 14.9574H22.7464V15.9574H23.7464V14.9574ZM31.2294 14.9574H32.2294V13.9574H31.2294V14.9574ZM31.2294 18V19H32.2294V18H31.2294ZM21.0561 18V0.545454H19.0561V18H21.0561ZM20.0561 1.54545H23.7464V-0.454546H20.0561V1.54545ZM22.7464 0.545454V14.9574H24.7464V0.545454H22.7464ZM23.7464 15.9574H31.2294V13.9574H23.7464V15.9574ZM30.2294 14.9574V18H32.2294V14.9574H30.2294ZM31.2294 17H20.0561V19H31.2294V17ZM33.6733 18H32.6733V19H33.6733V18ZM33.6733 0.545454V-0.454546H32.6733V0.545454H33.6733ZM45.4347 0.545454H46.4347V-0.454546H45.4347V0.545454ZM45.4347 3.58807V4.58807H46.4347V3.58807H45.4347ZM37.3636 3.58807V2.58807H36.3636V3.58807H37.3636ZM37.3636 7.74716H36.3636V8.74716H37.3636V7.74716ZM44.8295 7.74716H45.8295V6.74716H44.8295V7.74716ZM44.8295 10.7898V11.7898H45.8295V10.7898H44.8295ZM37.3636 10.7898V9.78977H36.3636V10.7898H37.3636ZM37.3636 14.9574H36.3636V15.9574H37.3636V14.9574ZM45.4688 14.9574H46.4688V13.9574H45.4688V14.9574ZM45.4688 18V19H46.4688V18H45.4688ZM34.6733 18V0.545454H32.6733V18H34.6733ZM33.6733 1.54545H45.4347V-0.454546H33.6733V1.54545ZM44.4347 0.545454V3.58807H46.4347V0.545454H44.4347ZM45.4347 2.58807H37.3636V4.58807H45.4347V2.58807ZM36.3636 3.58807V7.74716H38.3636V3.58807H36.3636ZM37.3636 8.74716H44.8295V6.74716H37.3636V8.74716ZM43.8295 7.74716V10.7898H45.8295V7.74716H43.8295ZM44.8295 9.78977H37.3636V11.7898H44.8295V9.78977ZM36.3636 10.7898V14.9574H38.3636V10.7898H36.3636ZM37.3636 15.9574H45.4688V13.9574H37.3636V15.9574ZM44.4688 14.9574V18H46.4688V14.9574H44.4688ZM45.4688 17H33.6733V19H45.4688V17ZM57.8374 5.56534L56.8422 5.66403L56.9316 6.56534H57.8374V5.56534ZM53.3288 3.64773L53.6981 4.57714L53.709 4.57267L53.3288 3.64773ZM52.3743 4.33807L51.5742 3.73802L51.5669 3.74805L52.3743 4.33807ZM52.0504 5.34375L53.0498 5.38009L53.0504 5.36193V5.34375H52.0504ZM52.2464 6.16193L51.3927 6.68254L51.3972 6.69005L51.4019 6.69747L52.2464 6.16193ZM52.8516 6.76705L52.2969 7.5991L52.3033 7.60341L52.3099 7.60762L52.8516 6.76705ZM53.7379 7.2017L53.3885 8.13868L53.3956 8.1413L53.4026 8.14381L53.7379 7.2017ZM54.8118 7.50852L55.0444 6.53594L55.0373 6.53426L55.0303 6.53268L54.8118 7.50852ZM56.38 7.88352L56.1474 8.8561L56.1544 8.85778L56.1615 8.85937L56.38 7.88352ZM58.4766 8.56534L58.0689 9.47848L58.4766 8.56534ZM60.13 9.61364L60.7949 8.86673L60.7949 8.86673L60.13 9.61364ZM61.2124 11.0795L60.302 11.4934L60.3055 11.5009L61.2124 11.0795ZM61.6129 13.0142L62.613 13.0195L62.6129 13.0064L61.6129 13.0142ZM60.7947 15.7926L59.9711 15.2256L59.9702 15.2269L60.7947 15.7926ZM58.4766 17.608L58.8667 18.5287L58.8692 18.5276L58.4766 17.608ZM51.1555 17.5994L50.772 18.523L50.7738 18.5237L51.1555 17.5994ZM48.718 15.6818L47.8911 16.2441L47.8955 16.2505L48.718 15.6818ZM47.8061 12.5199V11.5199H46.7832L46.8064 12.5425L47.8061 12.5199ZM51.3771 12.5199L52.3748 12.4521L52.3115 11.5199H51.3771V12.5199ZM51.88 13.9858L51.0814 14.5876L51.0863 14.5941L51.0912 14.6005L51.88 13.9858ZM53.0817 14.8636L52.7121 15.7929L52.7248 15.7978L53.0817 14.8636ZM56.4226 14.8807L56.059 13.9491L56.0552 13.9506L56.4226 14.8807ZM57.505 14.1222L58.2899 14.7418L57.505 14.1222ZM57.5391 12.017L56.7775 12.6652L56.7855 12.6744L57.5391 12.017ZM56.5334 11.3352L56.1395 12.2544L56.1437 12.2562L56.5334 11.3352ZM54.9226 10.8239L54.679 11.7938L54.6882 11.796L54.9226 10.8239ZM53.022 10.3466L53.2656 9.37668L53.2584 9.37492L53.022 10.3466ZM49.5362 8.66761L48.87 9.41337L49.5362 8.66761ZM48.2663 5.59091L49.2664 5.59531L49.2663 5.58553L48.2663 5.59091ZM49.1101 2.82102L48.3011 2.23319L48.2983 2.23703L49.1101 2.82102ZM58.272 0.971591L57.855 1.88049L57.857 1.88141L58.272 0.971591ZM60.5391 2.82102L59.7135 3.38528V3.38528L60.5391 2.82102ZM61.3743 5.56534V6.56534H62.3908L62.3742 5.54895L61.3743 5.56534ZM58.8325 5.46665C58.7387 4.52137 58.3163 3.72024 57.5524 3.15779L56.3666 4.76835C56.6368 4.96726 56.7996 5.23431 56.8422 5.66403L58.8325 5.46665ZM57.5524 3.15779C56.8091 2.61048 55.8747 2.39204 54.8544 2.39204V4.39204C55.6069 4.39204 56.0759 4.55429 56.3666 4.76835L57.5524 3.15779ZM54.8544 2.39204C54.1639 2.39204 53.5178 2.48893 52.9487 2.72279L53.709 4.57267C53.9695 4.46561 54.3404 4.39204 54.8544 4.39204V2.39204ZM52.9596 2.71838C52.4095 2.93692 51.9275 3.26718 51.5743 3.73807L53.1743 4.93807C53.2643 4.81805 53.4186 4.68808 53.698 4.57708L52.9596 2.71838ZM51.5669 3.74805C51.2225 4.21927 51.0504 4.76226 51.0504 5.34375H53.0504C53.0504 5.17524 53.0942 5.04778 53.1817 4.92808L51.5669 3.74805ZM51.0511 5.30741C51.0337 5.78638 51.1342 6.25873 51.3927 6.68254L53.1002 5.64132C53.0746 5.59923 53.0445 5.52612 53.0498 5.38009L51.0511 5.30741ZM51.4019 6.69747C51.6326 7.06122 51.9382 7.36001 52.2969 7.5991L53.4063 5.93499C53.2535 5.83317 53.1557 5.72855 53.091 5.62639L51.4019 6.69747ZM52.3099 7.60762C52.6355 7.81745 52.9974 7.99283 53.3885 8.13868L54.0873 6.26472C53.808 6.16058 53.579 6.04618 53.3933 5.92647L52.3099 7.60762ZM53.4026 8.14381C53.7795 8.27796 54.1768 8.39111 54.5933 8.48437L55.0303 6.53268C54.6854 6.45548 54.3668 6.36409 54.0732 6.2596L53.4026 8.14381ZM54.5792 8.4811L56.1474 8.8561L56.6125 6.91094L55.0444 6.53594L54.5792 8.4811ZM56.1615 8.85937C56.8655 9.01697 57.5001 9.22453 58.0689 9.47848L58.8842 7.6522C58.1803 7.33796 57.4172 7.09098 56.5984 6.90768L56.1615 8.85937ZM58.0689 9.47848C58.6224 9.72555 59.0843 10.0215 59.465 10.3605L60.7949 8.86673C60.2439 8.37618 59.6035 7.97331 58.8842 7.6522L58.0689 9.47848ZM59.465 10.3605C59.8278 10.6835 60.1046 11.059 60.302 11.4933L62.1227 10.6657C61.8088 9.97507 61.3639 9.3733 60.7949 8.86673L59.465 10.3605ZM60.3055 11.5009C60.4971 11.9133 60.6082 12.4132 60.613 13.022L62.6129 13.0064C62.6063 12.1606 62.4503 11.3708 62.1192 10.6582L60.3055 11.5009ZM60.6129 13.0089C60.6082 13.9018 60.3834 14.6266 59.9711 15.2256L61.6184 16.3596C62.2856 15.3905 62.6063 14.2629 62.6129 13.0195L60.6129 13.0089ZM59.9702 15.2269C59.5603 15.8243 58.95 16.3185 58.0839 16.6883L58.8692 18.5276C60.0259 18.0338 60.9611 17.3178 61.6193 16.3584L59.9702 15.2269ZM58.0864 16.6872C57.2352 17.0479 56.1622 17.2472 54.8374 17.2472V19.2472C56.3534 19.2472 57.7066 19.0203 58.8667 18.5287L58.0864 16.6872ZM54.8374 17.2472C53.5281 17.2472 52.4359 17.0463 51.5373 16.6752L50.7738 18.5237C51.9661 19.0162 53.3284 19.2472 54.8374 19.2472V17.2472ZM51.5391 16.6759C50.6594 16.3106 50.0064 15.787 49.5406 15.1132L47.8955 16.2505C48.6001 17.2698 49.5722 18.0247 50.772 18.523L51.5391 16.6759ZM49.545 15.1195C49.0955 14.4585 48.8309 13.6026 48.8059 12.4973L46.8064 12.5425C46.8382 13.9485 47.1815 15.2006 47.8911 16.2441L49.545 15.1195ZM47.8061 13.5199H51.3771V11.5199H47.8061V13.5199ZM50.3794 12.5877C50.4298 13.3282 50.648 14.0127 51.0814 14.5876L52.6786 13.3839C52.521 13.1748 52.404 12.882 52.3748 12.4521L50.3794 12.5877ZM51.0912 14.6005C51.5122 15.1407 52.0637 15.5349 52.7121 15.7928L53.4512 13.9344C53.0997 13.7946 52.85 13.6036 52.6687 13.3711L51.0912 14.6005ZM52.7248 15.7978C53.3625 16.0414 54.0574 16.1534 54.7947 16.1534V14.1534C54.2594 14.1534 53.8122 14.0722 53.4385 13.9295L52.7248 15.7978ZM54.7947 16.1534C55.5138 16.1534 56.1865 16.0492 56.79 15.8107L56.0552 13.9506C55.7382 14.0758 55.3257 14.1534 54.7947 14.1534V16.1534ZM56.7861 15.8123C57.3826 15.5795 57.9027 15.2321 58.2899 14.7418L56.7201 13.5025C56.5958 13.6599 56.3944 13.8182 56.059 13.9491L56.7861 15.8123ZM58.2899 14.7418C58.6877 14.2379 58.8885 13.6464 58.8885 13.0057H56.8885C56.8885 13.2059 56.8336 13.3587 56.7201 13.5025L58.2899 14.7418ZM58.8885 13.0057C58.8885 12.3995 58.7017 11.8286 58.2926 11.3597L56.7855 12.6744C56.8423 12.7395 56.8885 12.8277 56.8885 13.0057H58.8885ZM58.3006 11.3689C57.9419 10.9474 57.4592 10.6411 56.923 10.4143L56.1437 12.2562C56.494 12.4044 56.6817 12.5526 56.7775 12.6652L58.3006 11.3689ZM56.9273 10.4161C56.4231 10.2 55.8292 10.0138 55.1569 9.85171L54.6882 11.796C55.2887 11.9408 55.7687 12.0955 56.1395 12.2544L56.9273 10.4161ZM55.1661 9.85398L53.2656 9.3767L52.7785 11.3165L54.679 11.7937L55.1661 9.85398ZM53.2584 9.37492C51.8965 9.04365 50.8988 8.54394 50.2024 7.92185L48.87 9.41337C49.8782 10.314 51.2044 10.9336 52.7857 11.3183L53.2584 9.37492ZM50.2024 7.92185C49.5924 7.37692 49.2617 6.63974 49.2663 5.59531L47.2663 5.5865C47.2596 7.12162 47.7755 8.43558 48.87 9.41337L50.2024 7.92185ZM49.2663 5.58553C49.2617 4.72089 49.4879 4.00818 49.9218 3.40502L48.2983 2.23703C47.5959 3.21341 47.2596 4.34729 47.2663 5.59628L49.2663 5.58553ZM49.9191 3.40885C50.3774 2.7781 51.0172 2.26644 51.8761 1.88583L51.0657 0.0573511C49.9245 0.563102 48.9905 1.2844 48.3011 2.2332L49.9191 3.40885ZM51.8761 1.88583C52.7293 1.5077 53.7242 1.30682 54.88 1.30682V-0.693182C53.4903 -0.693182 52.2125 -0.45088 51.0657 0.0573511L51.8761 1.88583ZM54.88 1.30682C56.0624 1.30682 57.0453 1.509 57.855 1.88049L58.689 0.0626945C57.5669 -0.452178 56.2885 -0.693182 54.88 -0.693182V1.30682ZM57.857 1.88141C58.6826 2.258 59.2881 2.76297 59.7135 3.38528L61.3647 2.25677C60.7104 1.29953 59.8046 0.571543 58.687 0.0617714L57.857 1.88141ZM59.7135 3.38528C60.1331 3.99933 60.3603 4.71991 60.3744 5.58173L62.3742 5.54895C62.3542 4.33123 62.0245 3.22226 61.3647 2.25676L59.7135 3.38528ZM61.3743 4.56534H57.8374V6.56534H61.3743V4.56534ZM74.8764 0.545454V-0.454546H73.8764V0.545454H74.8764ZM78.5668 0.545454H79.5668V-0.454546H78.5668V0.545454ZM77.6548 15.2216L76.8114 14.6844L76.8091 14.688L77.6548 15.2216ZM75.1236 17.4545L75.5614 18.3536L75.5651 18.3518L75.1236 17.4545ZM67.5298 17.4545L67.0883 18.3518L67.0921 18.3536L67.5298 17.4545ZM64.9986 15.2216L64.1529 15.7552L64.9986 15.2216ZM64.0952 0.545454V-0.454546H63.0952V0.545454H64.0952ZM67.7855 0.545454H68.7855V-0.454546H67.7855V0.545454ZM68.2202 13.3381L67.3478 13.827L67.3519 13.8342L68.2202 13.3381ZM69.4645 14.5568L68.9804 15.4319H68.9804L69.4645 14.5568ZM73.1974 14.5568L72.7134 13.6818L72.7094 13.684L73.1974 14.5568ZM74.4332 13.3381L73.565 12.8419L73.5609 12.8492L74.4332 13.3381ZM74.8764 1.54545H78.5668V-0.454546H74.8764V1.54545ZM77.5668 0.545454V11.8807H79.5668V0.545454H77.5668ZM77.5668 11.8807C77.5668 12.9875 77.3047 13.9098 76.8114 14.6844L78.4983 15.7588C79.2208 14.6243 79.5668 13.3193 79.5668 11.8807H77.5668ZM76.8091 14.688C76.3125 15.4751 75.6139 16.0987 74.682 16.5573L75.5651 18.3518C76.8037 17.7422 77.7926 16.8772 78.5006 15.7552L76.8091 14.688ZM74.6858 16.5555C73.7611 17.0057 72.6518 17.2472 71.331 17.2472V19.2472C72.8965 19.2472 74.3156 18.9602 75.5614 18.3536L74.6858 16.5555ZM71.331 17.2472C70.0038 17.2472 68.8918 17.0055 67.9676 16.5555L67.0921 18.3536C68.3383 18.9604 69.7604 19.2472 71.331 19.2472V17.2472ZM67.9714 16.5573C67.0395 16.0987 66.3409 15.4751 65.8443 14.688L64.1529 15.7552C64.8608 16.8772 65.8497 17.7422 67.0883 18.3518L67.9714 16.5573ZM65.8443 14.688C65.3553 13.9129 65.0952 12.9893 65.0952 11.8807H63.0952C63.0952 13.3175 63.4373 14.6212 64.1529 15.7552L65.8443 14.688ZM65.0952 11.8807V0.545454H63.0952V11.8807H65.0952ZM64.0952 1.54545H67.7855V-0.454546H64.0952V1.54545ZM66.7855 0.545454V11.5653H68.7855V0.545454H66.7855ZM66.7855 11.5653C66.7855 12.3801 66.9646 13.1431 67.3478 13.827L69.0925 12.8492C68.8962 12.4989 68.7855 12.0801 68.7855 11.5653H66.7855ZM67.3519 13.8342C67.7407 14.5145 68.2902 15.05 68.9804 15.4319L69.9485 13.6818C69.5706 13.4727 69.2906 13.1957 69.0884 12.8419L67.3519 13.8342ZM68.9804 15.4319C69.6853 15.8218 70.4793 16 71.331 16V14C70.7622 14 70.3118 13.8828 69.9485 13.6818L68.9804 15.4319ZM71.331 16C72.1865 16 72.9828 15.8225 73.6855 15.4296L72.7094 13.684C72.3553 13.882 71.9073 14 71.331 14V16ZM73.6815 15.4319C74.3733 15.0491 74.922 14.5114 75.3056 13.827L73.5609 12.8492C73.3649 13.1989 73.0897 13.4736 72.7134 13.6818L73.6815 15.4319ZM75.3015 13.8342C75.693 13.1491 75.8764 12.3835 75.8764 11.5653H73.8764C73.8764 12.0768 73.7644 12.493 73.565 12.8419L75.3015 13.8342ZM75.8764 11.5653V0.545454H73.8764V11.5653H75.8764ZM81.603 18H80.603V19H81.603V18ZM81.603 0.545454V-0.454546H80.603V0.545454H81.603ZM91.8643 1.25284L91.4128 2.1451L91.4193 2.14835L91.8643 1.25284ZM94.0035 3.23864L93.1346 3.73355L93.1385 3.74036L94.0035 3.23864ZM93.995 9.23864L94.8515 9.75486L94.853 9.75227L93.995 9.23864ZM91.8217 11.1477L91.3986 10.2417L91.3965 10.2427L91.8217 11.1477ZM83.7848 11.8125H82.7848V12.8125H83.7848V11.8125ZM83.7848 8.84659V7.84659H82.7848V8.84659H83.7848ZM89.5547 8.55682L89.9377 9.48056H89.9377L89.5547 8.55682ZM90.5945 7.6875L89.738 7.17112L89.7325 7.18048L90.5945 7.6875ZM90.5945 4.78125L89.7262 5.27742L89.7316 5.28665L90.5945 4.78125ZM89.5462 3.87784L89.1349 4.78935L89.1415 4.79235L89.1482 4.79526L89.5462 3.87784ZM85.2933 3.5625V2.5625H84.2933V3.5625H85.2933ZM85.2933 18V19H86.2933V18H85.2933ZM91.0291 10.0568L91.9068 9.5775L91.6224 9.05682H91.0291V10.0568ZM95.3672 18V19H97.0527L96.2448 17.5207L95.3672 18ZM91.2933 18L90.4113 18.4713L90.6939 19H91.2933V18ZM87.049 10.0568V9.05682H85.3809L86.167 10.5281L87.049 10.0568ZM82.603 18V0.545454H80.603V18H82.603ZM81.603 1.54545H88.4893V-0.454546H81.603V1.54545ZM88.4893 1.54545C89.6907 1.54545 90.6528 1.76046 91.4128 2.14508L92.3159 0.3606C91.2122 -0.197958 89.9243 -0.454546 88.4893 -0.454546V1.54545ZM91.4193 2.14835C92.1901 2.53143 92.7504 3.05892 93.1346 3.73353L94.8725 2.74374C94.2794 1.70244 93.4136 0.906069 92.3094 0.35733L91.4193 2.14835ZM93.1385 3.74036C93.5304 4.41594 93.745 5.23961 93.745 6.24716H95.745C95.745 4.94789 95.4654 3.76588 94.8686 2.73692L93.1385 3.74036ZM93.745 6.24716C93.745 7.26007 93.5278 8.0723 93.137 8.725L94.853 9.75227C95.4623 8.73452 95.745 7.55243 95.745 6.24716H93.745ZM93.1386 8.72242C92.7495 9.36796 92.1828 9.87539 91.3986 10.2417L92.2449 12.0538C93.3584 11.5337 94.2406 10.7684 94.8515 9.75486L93.1386 8.72242ZM91.3965 10.2427C90.6188 10.6081 89.6301 10.8125 88.3956 10.8125V12.8125C89.8429 12.8125 91.1383 12.5737 92.247 12.0528L91.3965 10.2427ZM88.3956 10.8125H83.7848V12.8125H88.3956V10.8125ZM84.7848 11.8125V8.84659H82.7848V11.8125H84.7848ZM83.7848 9.84659H87.799V7.84659H83.7848V9.84659ZM87.799 9.84659C88.5865 9.84659 89.3124 9.73982 89.9377 9.48056L89.1717 7.63308C88.8651 7.76018 88.4206 7.84659 87.799 7.84659V9.84659ZM89.9377 9.48056C90.5779 9.21511 91.1053 8.79131 91.4564 8.19452L89.7325 7.18048C89.629 7.35642 89.4633 7.51217 89.1717 7.63308L89.9377 9.48056ZM91.4508 8.20385C91.8001 7.62456 91.9439 6.95419 91.9439 6.24716H89.9439C89.9439 6.68786 89.8547 6.97771 89.7381 7.17115L91.4508 8.20385ZM91.9439 6.24716C91.9439 5.5351 91.8004 4.86162 91.4573 4.27585L89.7316 5.28665C89.8544 5.49633 89.9439 5.80013 89.9439 6.24716H91.9439ZM91.4627 4.28511C91.1153 3.67716 90.5884 3.2399 89.9441 2.96042L89.1482 4.79526C89.4471 4.92487 89.6191 5.08989 89.7262 5.27739L91.4627 4.28511ZM89.9575 2.96634C89.3223 2.67972 88.5823 2.5625 87.782 2.5625V4.5625C88.4021 4.5625 88.8383 4.65551 89.1349 4.78935L89.9575 2.96634ZM87.782 2.5625H85.2933V4.5625H87.782V2.5625ZM84.2933 3.5625V18H86.2933V3.5625H84.2933ZM85.2933 17H81.603V19H85.2933V17ZM90.1515 10.5361L94.4895 18.4793L96.2448 17.5207L91.9068 9.5775L90.1515 10.5361ZM95.3672 17H91.2933V19H95.3672V17ZM92.1753 17.5287L87.931 9.58554L86.167 10.5281L90.4113 18.4713L92.1753 17.5287ZM87.049 11.0568H91.0291V9.05682H87.049V11.0568ZM97.353 18H96.353V19H97.353V18ZM97.353 0.545454V-0.454546H96.353V0.545454H97.353ZM109.114 0.545454H110.114V-0.454546H109.114V0.545454ZM109.114 3.58807V4.58807H110.114V3.58807H109.114ZM101.043 3.58807V2.58807H100.043V3.58807H101.043ZM101.043 7.74716H100.043V8.74716H101.043V7.74716ZM108.509 7.74716H109.509V6.74716H108.509V7.74716ZM108.509 10.7898V11.7898H109.509V10.7898H108.509ZM101.043 10.7898V9.78977H100.043V10.7898H101.043ZM101.043 14.9574H100.043V15.9574H101.043V14.9574ZM109.148 14.9574H110.148V13.9574H109.148V14.9574ZM109.148 18V19H110.148V18H109.148ZM98.353 18V0.545454H96.353V18H98.353ZM97.353 1.54545H109.114V-0.454546H97.353V1.54545ZM108.114 0.545454V3.58807H110.114V0.545454H108.114ZM109.114 2.58807H101.043V4.58807H109.114V2.58807ZM100.043 3.58807V7.74716H102.043V3.58807H100.043ZM101.043 8.74716H108.509V6.74716H101.043V8.74716ZM107.509 7.74716V10.7898H109.509V7.74716H107.509ZM108.509 9.78977H101.043V11.7898H108.509V9.78977ZM100.043 10.7898V14.9574H102.043V10.7898H100.043ZM101.043 15.9574H109.148V13.9574H101.043V15.9574ZM108.148 14.9574V18H110.148V14.9574H108.148ZM109.148 17H97.353V19H109.148V17Z" fill="black" mask="url(#path-1-outside-1_92_6)"/>
</g>
<defs>
<filter id="filter0_d_92_6" x="0.51709" y="0.306885" width="112.631" height="25.9402" filterUnits="userSpaceOnUse" color-interpolation-filters="sRGB">
<feFlood flood-opacity="0" result="BackgroundImageFix"/>
<feColorMatrix in="SourceAlpha" type="matrix" values="0 0 0 0 0 0 0 0 0 0 0 0 0 0 0 0 0 0 127 0" result="hardAlpha"/>
<feOffset dy="4"/>
<feGaussianBlur stdDeviation="2"/>
<feComposite in2="hardAlpha" operator="out"/>
<feColorMatrix type="matrix" values="0 0 0 0 0 0 0 0 0 0 0 0 0 0 0 0 0 0 0.25 0"/>
<feBlend mode="normal" in2="BackgroundImageFix" result="effect1_dropShadow_92_6"/>
<feBlend mode="normal" in="SourceGraphic" in2="effect1_dropShadow_92_6" result="shape"/>
</filter>
</defs>
</svg>
