<svg width="130" height="27" viewBox="0 0 130 27" fill="none" xmlns="http://www.w3.org/2000/svg">
<g filter="url(#filter0_d_92_9)">
<mask id="path-1-outside-1_92_9" maskUnits="userSpaceOnUse" x="3" y="-1" width="124" height="21" fill="black">
<rect fill="white" x="3" y="-1" width="124" height="21"/>
<path d="M19.9176 6.65625H16.1847C16.1165 6.1733 15.9773 5.74432 15.767 5.36932C15.5568 4.98864 15.2869 4.66477 14.9574 4.39773C14.6278 4.13068 14.2472 3.92614 13.8153 3.78409C13.3892 3.64205 12.9261 3.57102 12.4261 3.57102C11.5227 3.57102 10.7358 3.79545 10.0653 4.24432C9.39489 4.6875 8.875 5.33523 8.50568 6.1875C8.13636 7.03409 7.9517 8.0625 7.9517 9.27273C7.9517 10.517 8.13636 11.5625 8.50568 12.4091C8.88068 13.2557 9.40341 13.8949 10.0739 14.3267C10.7443 14.7585 11.5199 14.9744 12.4006 14.9744C12.8949 14.9744 13.3523 14.9091 13.7727 14.7784C14.1989 14.6477 14.5767 14.4574 14.9062 14.2074C15.2358 13.9517 15.5085 13.642 15.7244 13.2784C15.946 12.9148 16.0994 12.5 16.1847 12.0341L19.9176 12.0511C19.821 12.8523 19.5795 13.625 19.1932 14.3693C18.8125 15.108 18.2983 15.7699 17.6506 16.3551C17.0085 16.9347 16.2415 17.3949 15.3494 17.7358C14.4631 18.071 13.4602 18.2386 12.3409 18.2386C10.7841 18.2386 9.39205 17.8864 8.16477 17.1818C6.94318 16.4773 5.97727 15.4574 5.26705 14.1222C4.5625 12.7869 4.21023 11.1705 4.21023 9.27273C4.21023 7.36932 4.56818 5.75 5.28409 4.41477C6 3.07955 6.97159 2.0625 8.19886 1.36364C9.42614 0.659091 10.8068 0.306818 12.3409 0.306818C13.3523 0.306818 14.2898 0.448863 15.1534 0.732954C16.0227 1.01705 16.7926 1.43182 17.4631 1.97727C18.1335 2.51704 18.679 3.17898 19.0994 3.96307C19.5256 4.74716 19.7983 5.64489 19.9176 6.65625ZM38.6037 9.27273C38.6037 11.1761 38.2429 12.7955 37.5213 14.1307C36.8054 15.4659 35.8281 16.4858 34.5895 17.1903C33.3565 17.8892 31.9702 18.2386 30.4304 18.2386C28.8793 18.2386 27.4872 17.8864 26.2543 17.1818C25.0213 16.4773 24.0469 15.4574 23.331 14.1222C22.6151 12.7869 22.2571 11.1705 22.2571 9.27273C22.2571 7.36932 22.6151 5.75 23.331 4.41477C24.0469 3.07955 25.0213 2.0625 26.2543 1.36364C27.4872 0.659091 28.8793 0.306818 30.4304 0.306818C31.9702 0.306818 33.3565 0.659091 34.5895 1.36364C35.8281 2.0625 36.8054 3.07955 37.5213 4.41477C38.2429 5.75 38.6037 7.36932 38.6037 9.27273ZM34.8622 9.27273C34.8622 8.03977 34.6776 7 34.3082 6.15341C33.9446 5.30682 33.4304 4.66477 32.7656 4.22727C32.1009 3.78977 31.3224 3.57102 30.4304 3.57102C29.5384 3.57102 28.7599 3.78977 28.0952 4.22727C27.4304 4.66477 26.9134 5.30682 26.544 6.15341C26.1804 7 25.9986 8.03977 25.9986 9.27273C25.9986 10.5057 26.1804 11.5455 26.544 12.392C26.9134 13.2386 27.4304 13.8807 28.0952 14.3182C28.7599 14.7557 29.5384 14.9744 30.4304 14.9744C31.3224 14.9744 32.1009 14.7557 32.7656 14.3182C33.4304 13.8807 33.9446 13.2386 34.3082 12.392C34.6776 11.5455 34.8622 10.5057 34.8622 9.27273ZM41.3374 0.545454H45.8885L50.6953 12.2727H50.8999L55.7067 0.545454H60.2578V18H56.6783V6.6392H56.5334L52.0163 17.9148H49.5788L45.0618 6.59659H44.9169V18H41.3374V0.545454ZM63.2983 18V0.545454H74.8551V3.58807H66.9886V7.74716H74.0881V10.7898H66.9886V18H63.2983ZM93.3771 9.27273C93.3771 11.1761 93.0163 12.7955 92.2947 14.1307C91.5788 15.4659 90.6016 16.4858 89.3629 17.1903C88.13 17.8892 86.7436 18.2386 85.2038 18.2386C83.6527 18.2386 82.2607 17.8864 81.0277 17.1818C79.7947 16.4773 78.8203 15.4574 78.1044 14.1222C77.3885 12.7869 77.0305 11.1705 77.0305 9.27273C77.0305 7.36932 77.3885 5.75 78.1044 4.41477C78.8203 3.07955 79.7947 2.0625 81.0277 1.36364C82.2607 0.659091 83.6527 0.306818 85.2038 0.306818C86.7436 0.306818 88.13 0.659091 89.3629 1.36364C90.6016 2.0625 91.5788 3.07955 92.2947 4.41477C93.0163 5.75 93.3771 7.36932 93.3771 9.27273ZM89.6357 9.27273C89.6357 8.03977 89.451 7 89.0817 6.15341C88.718 5.30682 88.2038 4.66477 87.5391 4.22727C86.8743 3.78977 86.0959 3.57102 85.2038 3.57102C84.3118 3.57102 83.5334 3.78977 82.8686 4.22727C82.2038 4.66477 81.6868 5.30682 81.3175 6.15341C80.9538 7 80.772 8.03977 80.772 9.27273C80.772 10.5057 80.9538 11.5455 81.3175 12.392C81.6868 13.2386 82.2038 13.8807 82.8686 14.3182C83.5334 14.7557 84.3118 14.9744 85.2038 14.9744C86.0959 14.9744 86.8743 14.7557 87.5391 14.3182C88.2038 13.8807 88.718 13.2386 89.0817 12.392C89.451 11.5455 89.6357 10.5057 89.6357 9.27273ZM96.1108 18V0.545454H102.997C104.315 0.545454 105.44 0.78125 106.372 1.25284C107.31 1.71875 108.023 2.38068 108.511 3.23864C109.006 4.09091 109.253 5.09375 109.253 6.24716C109.253 7.40625 109.003 8.40341 108.503 9.23864C108.003 10.0682 107.278 10.7045 106.33 11.1477C105.386 11.5909 104.244 11.8125 102.903 11.8125H98.2926V8.84659H102.307C103.011 8.84659 103.597 8.75 104.062 8.55682C104.528 8.36364 104.875 8.07386 105.102 7.6875C105.335 7.30114 105.452 6.82102 105.452 6.24716C105.452 5.66761 105.335 5.17898 105.102 4.78125C104.875 4.38352 104.526 4.08239 104.054 3.87784C103.588 3.66761 103 3.5625 102.29 3.5625H99.8011V18H96.1108ZM105.537 10.0568L109.875 18H105.801L101.557 10.0568H105.537ZM111.196 3.58807V0.545454H125.531V3.58807H120.188V18H116.54V3.58807H111.196Z"/>
</mask>
<path d="M19.9176 6.65625H16.1847C16.1165 6.1733 15.9773 5.74432 15.767 5.36932C15.5568 4.98864 15.2869 4.66477 14.9574 4.39773C14.6278 4.13068 14.2472 3.92614 13.8153 3.78409C13.3892 3.64205 12.9261 3.57102 12.4261 3.57102C11.5227 3.57102 10.7358 3.79545 10.0653 4.24432C9.39489 4.6875 8.875 5.33523 8.50568 6.1875C8.13636 7.03409 7.9517 8.0625 7.9517 9.27273C7.9517 10.517 8.13636 11.5625 8.50568 12.4091C8.88068 13.2557 9.40341 13.8949 10.0739 14.3267C10.7443 14.7585 11.5199 14.9744 12.4006 14.9744C12.8949 14.9744 13.3523 14.9091 13.7727 14.7784C14.1989 14.6477 14.5767 14.4574 14.9062 14.2074C15.2358 13.9517 15.5085 13.642 15.7244 13.2784C15.946 12.9148 16.0994 12.5 16.1847 12.0341L19.9176 12.0511C19.821 12.8523 19.5795 13.625 19.1932 14.3693C18.8125 15.108 18.2983 15.7699 17.6506 16.3551C17.0085 16.9347 16.2415 17.3949 15.3494 17.7358C14.4631 18.071 13.4602 18.2386 12.3409 18.2386C10.7841 18.2386 9.39205 17.8864 8.16477 17.1818C6.94318 16.4773 5.97727 15.4574 5.26705 14.1222C4.5625 12.7869 4.21023 11.1705 4.21023 9.27273C4.21023 7.36932 4.56818 5.75 5.28409 4.41477C6 3.07955 6.97159 2.0625 8.19886 1.36364C9.42614 0.659091 10.8068 0.306818 12.3409 0.306818C13.3523 0.306818 14.2898 0.448863 15.1534 0.732954C16.0227 1.01705 16.7926 1.43182 17.4631 1.97727C18.1335 2.51704 18.679 3.17898 19.0994 3.96307C19.5256 4.74716 19.7983 5.64489 19.9176 6.65625ZM38.6037 9.27273C38.6037 11.1761 38.2429 12.7955 37.5213 14.1307C36.8054 15.4659 35.8281 16.4858 34.5895 17.1903C33.3565 17.8892 31.9702 18.2386 30.4304 18.2386C28.8793 18.2386 27.4872 17.8864 26.2543 17.1818C25.0213 16.4773 24.0469 15.4574 23.331 14.1222C22.6151 12.7869 22.2571 11.1705 22.2571 9.27273C22.2571 7.36932 22.6151 5.75 23.331 4.41477C24.0469 3.07955 25.0213 2.0625 26.2543 1.36364C27.4872 0.659091 28.8793 0.306818 30.4304 0.306818C31.9702 0.306818 33.3565 0.659091 34.5895 1.36364C35.8281 2.0625 36.8054 3.07955 37.5213 4.41477C38.2429 5.75 38.6037 7.36932 38.6037 9.27273ZM34.8622 9.27273C34.8622 8.03977 34.6776 7 34.3082 6.15341C33.9446 5.30682 33.4304 4.66477 32.7656 4.22727C32.1009 3.78977 31.3224 3.57102 30.4304 3.57102C29.5384 3.57102 28.7599 3.78977 28.0952 4.22727C27.4304 4.66477 26.9134 5.30682 26.544 6.15341C26.1804 7 25.9986 8.03977 25.9986 9.27273C25.9986 10.5057 26.1804 11.5455 26.544 12.392C26.9134 13.2386 27.4304 13.8807 28.0952 14.3182C28.7599 14.7557 29.5384 14.9744 30.4304 14.9744C31.3224 14.9744 32.1009 14.7557 32.7656 14.3182C33.4304 13.8807 33.9446 13.2386 34.3082 12.392C34.6776 11.5455 34.8622 10.5057 34.8622 9.27273ZM41.3374 0.545454H45.8885L50.6953 12.2727H50.8999L55.7067 0.545454H60.2578V18H56.6783V6.6392H56.5334L52.0163 17.9148H49.5788L45.0618 6.59659H44.9169V18H41.3374V0.545454ZM63.2983 18V0.545454H74.8551V3.58807H66.9886V7.74716H74.0881V10.7898H66.9886V18H63.2983ZM93.3771 9.27273C93.3771 11.1761 93.0163 12.7955 92.2947 14.1307C91.5788 15.4659 90.6016 16.4858 89.3629 17.1903C88.13 17.8892 86.7436 18.2386 85.2038 18.2386C83.6527 18.2386 82.2607 17.8864 81.0277 17.1818C79.7947 16.4773 78.8203 15.4574 78.1044 14.1222C77.3885 12.7869 77.0305 11.1705 77.0305 9.27273C77.0305 7.36932 77.3885 5.75 78.1044 4.41477C78.8203 3.07955 79.7947 2.0625 81.0277 1.36364C82.2607 0.659091 83.6527 0.306818 85.2038 0.306818C86.7436 0.306818 88.13 0.659091 89.3629 1.36364C90.6016 2.0625 91.5788 3.07955 92.2947 4.41477C93.0163 5.75 93.3771 7.36932 93.3771 9.27273ZM89.6357 9.27273C89.6357 8.03977 89.451 7 89.0817 6.15341C88.718 5.30682 88.2038 4.66477 87.5391 4.22727C86.8743 3.78977 86.0959 3.57102 85.2038 3.57102C84.3118 3.57102 83.5334 3.78977 82.8686 4.22727C82.2038 4.66477 81.6868 5.30682 81.3175 6.15341C80.9538 7 80.772 8.03977 80.772 9.27273C80.772 10.5057 80.9538 11.5455 81.3175 12.392C81.6868 13.2386 82.2038 13.8807 82.8686 14.3182C83.5334 14.7557 84.3118 14.9744 85.2038 14.9744C86.0959 14.9744 86.8743 14.7557 87.5391 14.3182C88.2038 13.8807 88.718 13.2386 89.0817 12.392C89.451 11.5455 89.6357 10.5057 89.6357 9.27273ZM96.1108 18V0.545454H102.997C104.315 0.545454 105.44 0.78125 106.372 1.25284C107.31 1.71875 108.023 2.38068 108.511 3.23864C109.006 4.09091 109.253 5.09375 109.253 6.24716C109.253 7.40625 109.003 8.40341 108.503 9.23864C108.003 10.0682 107.278 10.7045 106.33 11.1477C105.386 11.5909 104.244 11.8125 102.903 11.8125H98.2926V8.84659H102.307C103.011 8.84659 103.597 8.75 104.062 8.55682C104.528 8.36364 104.875 8.07386 105.102 7.6875C105.335 7.30114 105.452 6.82102 105.452 6.24716C105.452 5.66761 105.335 5.17898 105.102 4.78125C104.875 4.38352 104.526 4.08239 104.054 3.87784C103.588 3.66761 103 3.5625 102.29 3.5625H99.8011V18H96.1108ZM105.537 10.0568L109.875 18H105.801L101.557 10.0568H105.537ZM111.196 3.58807V0.545454H125.531V3.58807H120.188V18H116.54V3.58807H111.196Z" fill="white"/>
<path d="M19.9176 6.65625V7.65625H21.0425L20.9107 6.53909L19.9176 6.65625ZM16.1847 6.65625L15.1945 6.79604L15.3159 7.65625H16.1847V6.65625ZM15.767 5.36932L14.8916 5.85275L14.8948 5.85832L15.767 5.36932ZM14.9574 4.39773L14.3278 5.17466L14.3278 5.17466L14.9574 4.39773ZM13.8153 3.78409L13.4991 4.73278L13.5029 4.73402L13.8153 3.78409ZM10.0653 4.24432L10.6168 5.07855L10.6217 5.07528L10.0653 4.24432ZM8.50568 6.1875L9.42227 6.58735L9.42324 6.58511L8.50568 6.1875ZM8.50568 12.4091L7.58909 12.8089L7.59137 12.8141L8.50568 12.4091ZM10.0739 14.3267L9.53239 15.1674H9.53239L10.0739 14.3267ZM13.7727 14.7784L13.4795 13.8223L13.4759 13.8235L13.7727 14.7784ZM14.9062 14.2074L15.5107 15.0041L15.5192 14.9975L14.9062 14.2074ZM15.7244 13.2784L14.8704 12.758L14.8646 12.7679L15.7244 13.2784ZM16.1847 12.0341L16.1892 11.0341L15.3517 11.0303L15.201 11.8542L16.1847 12.0341ZM19.9176 12.0511L20.9104 12.1708L21.0448 11.0563L19.9222 11.0511L19.9176 12.0511ZM19.1932 14.3693L18.3056 13.9086L18.3043 13.9112L19.1932 14.3693ZM17.6506 16.3551L18.3206 17.0974L18.321 17.0971L17.6506 16.3551ZM15.3494 17.7358L15.7032 18.6711L15.7064 18.6699L15.3494 17.7358ZM8.16477 17.1818L7.66517 18.0481L7.66691 18.0491L8.16477 17.1818ZM5.26705 14.1222L4.38261 14.5888L4.38417 14.5918L5.26705 14.1222ZM5.28409 4.41477L6.1654 4.88731L6.1654 4.88731L5.28409 4.41477ZM8.19886 1.36364L8.69371 2.23263L8.69673 2.23089L8.19886 1.36364ZM15.1534 0.732954L14.8409 1.68288L14.8428 1.68348L15.1534 0.732954ZM17.4631 1.97727L16.832 2.75299L16.836 2.7562L17.4631 1.97727ZM19.0994 3.96307L18.2181 4.43565L18.2208 4.44058L19.0994 3.96307ZM19.9176 5.65625H16.1847V7.65625H19.9176V5.65625ZM17.1748 6.51646C17.0916 5.92717 16.9177 5.37695 16.6393 4.88031L14.8948 5.85832C15.0368 6.11169 15.1413 6.41942 15.1945 6.79604L17.1748 6.51646ZM16.6424 4.8859C16.3715 4.39537 16.0191 3.971 15.587 3.62079L14.3278 5.17466C14.5547 5.35855 14.7421 5.5819 14.8917 5.85274L16.6424 4.8859ZM15.587 3.62079C15.1565 3.27198 14.6666 3.01141 14.1278 2.83416L13.5029 4.73402C13.8277 4.84086 14.0992 4.98938 14.3278 5.17466L15.587 3.62079ZM14.1316 2.83541C13.5926 2.65576 13.0216 2.57102 12.4261 2.57102V4.57102C12.8307 4.57102 13.1858 4.62833 13.4991 4.73277L14.1316 2.83541ZM12.4261 2.57102C11.3492 2.57102 10.3634 2.84136 9.50902 3.41335L10.6217 5.07528C11.1082 4.74955 11.6962 4.57102 12.4261 4.57102V2.57102ZM9.51391 3.4101C8.65764 3.9761 8.02226 4.78804 7.58813 5.78989L9.42324 6.58511C9.72774 5.88241 10.1321 5.3989 10.6168 5.07854L9.51391 3.4101ZM7.5891 5.78765C7.15053 6.79298 6.9517 7.96561 6.9517 9.27273H8.9517C8.9517 8.15939 9.12219 7.2752 9.42226 6.58735L7.5891 5.78765ZM6.9517 9.27273C6.9517 10.6095 7.14921 11.8006 7.5891 12.8089L9.42226 12.0092C9.12352 11.3244 8.9517 10.4246 8.9517 9.27273H6.9517ZM7.59137 12.8141C8.0324 13.8098 8.67266 14.6137 9.53239 15.1674L10.6153 13.486C10.1342 13.1761 9.72896 12.7016 9.42 12.0041L7.59137 12.8141ZM9.53239 15.1674C10.3809 15.7139 11.3486 15.9744 12.4006 15.9744V13.9744C11.6912 13.9744 11.1077 13.8031 10.6153 13.486L9.53239 15.1674ZM12.4006 15.9744C12.9833 15.9744 13.542 15.8973 14.0695 15.7333L13.4759 13.8235C13.1625 13.9209 12.8064 13.9744 12.4006 13.9744V15.9744ZM14.0659 15.7345C14.5956 15.572 15.0805 15.3304 15.5106 15.0041L14.3019 13.4107C14.0729 13.5844 13.8021 13.7234 13.4795 13.8224L14.0659 15.7345ZM15.5192 14.9975C15.9493 14.6638 16.3053 14.2589 16.5843 13.7889L14.8646 12.7679C14.7118 13.0252 14.5223 13.2396 14.2933 13.4173L15.5192 14.9975ZM16.5784 13.7988C16.8705 13.3195 17.0635 12.7869 17.1683 12.214L15.201 11.8542C15.1353 12.2131 15.0216 12.5101 14.8705 12.758L16.5784 13.7988ZM16.1801 13.0341L19.913 13.0511L19.9222 11.0511L16.1892 11.0341L16.1801 13.0341ZM18.9248 11.9314C18.8431 12.6089 18.6389 13.2665 18.3056 13.9086L20.0807 14.83C20.5201 13.9835 20.7989 13.0957 20.9104 12.1708L18.9248 11.9314ZM18.3043 13.9112C17.9815 14.5375 17.5431 15.1045 16.9802 15.6131L18.321 17.0971C19.0535 16.4353 19.6435 15.6784 20.0821 14.8274L18.3043 13.9112ZM16.9805 15.6128C16.4392 16.1014 15.7812 16.5003 14.9924 16.8017L15.7064 18.6699C16.7018 18.2895 17.5779 17.7679 18.3206 17.0974L16.9805 15.6128ZM14.9957 16.8005C14.2408 17.086 13.3608 17.2386 12.3409 17.2386V19.2386C13.5597 19.2386 14.6853 19.0561 15.7032 18.6711L14.9957 16.8005ZM12.3409 17.2386C10.9408 17.2386 9.72355 16.9236 8.66264 16.3146L7.66691 18.0491C9.06054 18.8491 10.6273 19.2386 12.3409 19.2386V17.2386ZM8.66438 16.3156C7.61704 15.7115 6.77875 14.8347 6.14992 13.6525L4.38417 14.5918C5.1758 16.08 6.26932 17.243 7.66517 18.0481L8.66438 16.3156ZM6.15147 13.6555C5.53987 12.4964 5.21023 11.0487 5.21023 9.27273H3.21023C3.21023 11.2922 3.58513 13.0775 4.38262 14.5888L6.15147 13.6555ZM5.21023 9.27273C5.21023 7.49277 5.54489 6.04462 6.1654 4.88731L4.40278 3.94224C3.59148 5.45538 3.21023 7.24587 3.21023 9.27273H5.21023ZM6.1654 4.88731C6.79911 3.70539 7.64198 2.83152 8.6937 2.23262L7.70403 0.494651C6.30121 1.29348 5.20089 2.4537 4.40278 3.94224L6.1654 4.88731ZM8.69673 2.23089C9.75988 1.62056 10.9664 1.30682 12.3409 1.30682V-0.693182C10.6473 -0.693182 9.09239 -0.302381 7.701 0.496384L8.69673 2.23089ZM12.3409 1.30682C13.2579 1.30682 14.0888 1.43546 14.8409 1.68288L15.4659 -0.216972C14.4908 -0.537736 13.4466 -0.693182 12.3409 -0.693182V1.30682ZM14.8428 1.68348C15.6023 1.9317 16.2622 2.2894 16.832 2.75298L18.0942 1.20156C17.3231 0.57424 16.4431 0.102392 15.464 -0.217577L14.8428 1.68348ZM16.836 2.7562C17.3985 3.20908 17.8588 3.76561 18.2181 4.43564L19.9807 3.49049C19.4991 2.59234 18.8686 1.82501 18.0902 1.19834L16.836 2.7562ZM18.2208 4.44058C18.5783 5.09829 18.818 5.87068 18.9245 6.77341L20.9107 6.53909C20.7786 5.4191 20.4729 4.39603 19.9781 3.48555L18.2208 4.44058ZM37.5213 14.1307L36.6416 13.6552L36.64 13.6581L37.5213 14.1307ZM34.5895 17.1903L35.0826 18.0603L35.0839 18.0596L34.5895 17.1903ZM26.2543 17.1818L26.7504 16.3136L26.2543 17.1818ZM23.331 14.1222L22.4497 14.5947L23.331 14.1222ZM23.331 4.41477L24.2123 4.88731V4.88731L23.331 4.41477ZM26.2543 1.36364L26.7474 2.23361L26.7504 2.23188L26.2543 1.36364ZM34.5895 1.36364L34.0933 2.23189L34.0981 2.23457L34.5895 1.36364ZM37.5213 4.41477L36.64 4.88731L36.6416 4.89021L37.5213 4.41477ZM34.3082 6.15341L33.3894 6.54808L33.3917 6.55326L34.3082 6.15341ZM32.7656 4.22727L32.2159 5.0626L32.7656 4.22727ZM28.0952 4.22727L28.6449 5.0626L28.0952 4.22727ZM26.544 6.15341L25.6274 5.75355L25.6252 5.75875L26.544 6.15341ZM26.544 12.392L25.6252 12.7867L25.6275 12.7919L26.544 12.392ZM28.0952 14.3182L28.6449 13.4829L28.0952 14.3182ZM32.7656 14.3182L32.2159 13.4829L32.7656 14.3182ZM34.3082 12.392L33.3916 11.9922L33.3894 11.9974L34.3082 12.392ZM37.6037 9.27273C37.6037 11.0515 37.2666 12.4986 36.6416 13.6552L38.4011 14.6061C39.2192 13.0923 39.6037 11.3007 39.6037 9.27273H37.6037ZM36.64 13.6581C36.0072 14.8383 35.1595 15.7157 34.0951 16.3211L35.0839 18.0596C36.4968 17.2559 37.6036 16.0935 38.4026 14.6032L36.64 13.6581ZM34.0964 16.3204C33.0266 16.9267 31.8127 17.2386 30.4304 17.2386V19.2386C32.1276 19.2386 33.6864 18.8517 35.0826 18.0603L34.0964 16.3204ZM30.4304 17.2386C29.0368 17.2386 27.8185 16.9239 26.7504 16.3136L25.7581 18.0501C27.1559 18.8488 28.7218 19.2386 30.4304 19.2386V17.2386ZM26.7504 16.3136C25.6915 15.7085 24.8457 14.831 24.2123 13.6496L22.4497 14.5947C23.2481 16.0838 24.3512 17.2461 25.7581 18.0501L26.7504 16.3136ZM24.2123 13.6496C23.5915 12.4919 23.2571 11.0464 23.2571 9.27273H21.2571C21.2571 11.2945 21.6386 13.0819 22.4497 14.5947L24.2123 13.6496ZM23.2571 9.27273C23.2571 7.49277 23.5918 6.04462 24.2123 4.88731L22.4497 3.94224C21.6384 5.45538 21.2571 7.24587 21.2571 9.27273H23.2571ZM24.2123 4.88731C24.8454 3.70657 25.6902 2.83282 26.7474 2.2336L25.7611 0.493671C24.3524 1.29218 23.2484 2.45252 22.4497 3.94224L24.2123 4.88731ZM26.7504 2.23188C27.8185 1.62152 29.0368 1.30682 30.4304 1.30682V-0.693182C28.7218 -0.693182 27.1559 -0.303336 25.7581 0.495394L26.7504 2.23188ZM30.4304 1.30682C31.8113 1.30682 33.0241 1.62088 34.0933 2.23188L35.0856 0.495394C33.689 -0.302697 32.1291 -0.693182 30.4304 -0.693182V1.30682ZM34.0981 2.23457C35.1607 2.83412 36.0076 3.70775 36.64 4.88731L38.4026 3.94224C37.6032 2.45134 36.4955 1.29088 35.0809 0.492702L34.0981 2.23457ZM36.6416 4.89021C37.2666 6.04686 37.6037 7.49391 37.6037 9.27273H39.6037C39.6037 7.24472 39.2192 5.45314 38.4011 3.93933L36.6416 4.89021ZM35.8622 9.27273C35.8622 7.94583 35.6643 6.76094 35.2248 5.75356L33.3917 6.55326C33.6908 7.23906 33.8622 8.13372 33.8622 9.27273H35.8622ZM35.2271 5.75875C34.7987 4.76139 34.1682 3.95322 33.3154 3.39194L32.2159 5.0626C32.6926 5.37633 33.0905 5.85224 33.3894 6.54807L35.2271 5.75875ZM33.3154 3.39194C32.4681 2.83433 31.4934 2.57102 30.4304 2.57102V4.57102C31.1515 4.57102 31.7336 4.74522 32.2159 5.0626L33.3154 3.39194ZM30.4304 2.57102C29.3674 2.57102 28.3927 2.83433 27.5454 3.39194L28.6449 5.0626C29.1272 4.74522 29.7093 4.57102 30.4304 4.57102V2.57102ZM27.5454 3.39194C26.6941 3.95224 26.0615 4.75851 25.6275 5.75356L27.4606 6.55326C27.7652 5.85513 28.1667 5.37731 28.6449 5.0626L27.5454 3.39194ZM25.6252 5.75875C25.1932 6.76452 24.9986 7.94747 24.9986 9.27273H26.9986C26.9986 8.13207 27.1676 7.23548 27.4629 6.54807L25.6252 5.75875ZM24.9986 9.27273C24.9986 10.598 25.1932 11.7809 25.6252 12.7867L27.4629 11.9974C27.1676 11.31 26.9986 10.4134 26.9986 9.27273H24.9986ZM25.6275 12.7919C26.0615 13.7869 26.6941 14.5932 27.5454 15.1535L28.6449 13.4829C28.1667 13.1681 27.7652 12.6903 27.4606 11.9922L25.6275 12.7919ZM27.5454 15.1535C28.3927 15.7111 29.3674 15.9744 30.4304 15.9744V13.9744C29.7093 13.9744 29.1272 13.8002 28.6449 13.4829L27.5454 15.1535ZM30.4304 15.9744C31.4934 15.9744 32.4681 15.7111 33.3154 15.1535L32.2159 13.4829C31.7336 13.8002 31.1515 13.9744 30.4304 13.9744V15.9744ZM33.3154 15.1535C34.1682 14.5922 34.7987 13.7841 35.2271 12.7867L33.3894 11.9974C33.0905 12.6932 32.6926 13.1691 32.2159 13.4829L33.3154 15.1535ZM35.2248 12.7919C35.6643 11.7845 35.8622 10.5996 35.8622 9.27273H33.8622C33.8622 10.4117 33.6908 11.3064 33.3917 11.9922L35.2248 12.7919ZM41.3374 0.545454V-0.454546H40.3374V0.545454H41.3374ZM45.8885 0.545454L46.8138 0.166193L46.5594 -0.454546H45.8885V0.545454ZM50.6953 12.2727L49.77 12.652L50.0245 13.2727H50.6953V12.2727ZM50.8999 12.2727V13.2727H51.5707L51.8251 12.652L50.8999 12.2727ZM55.7067 0.545454V-0.454546H55.0358L54.7814 0.166193L55.7067 0.545454ZM60.2578 0.545454H61.2578V-0.454546H60.2578V0.545454ZM60.2578 18V19H61.2578V18H60.2578ZM56.6783 18H55.6783V19H56.6783V18ZM56.6783 6.6392H57.6783V5.6392H56.6783V6.6392ZM56.5334 6.6392V5.6392H55.8567L55.6051 6.26733L56.5334 6.6392ZM52.0163 17.9148V18.9148H52.693L52.9446 18.2866L52.0163 17.9148ZM49.5788 17.9148L48.6501 18.2854L48.9012 18.9148H49.5788V17.9148ZM45.0618 6.59659L45.9906 6.22592L45.7394 5.59659H45.0618V6.59659ZM44.9169 6.59659V5.59659H43.9169V6.59659H44.9169ZM44.9169 18V19H45.9169V18H44.9169ZM41.3374 18H40.3374V19H41.3374V18ZM41.3374 1.54545H45.8885V-0.454546H41.3374V1.54545ZM44.9632 0.924715L49.77 12.652L51.6206 11.8935L46.8138 0.166193L44.9632 0.924715ZM50.6953 13.2727H50.8999V11.2727H50.6953V13.2727ZM51.8251 12.652L56.632 0.924715L54.7814 0.166193L49.9746 11.8935L51.8251 12.652ZM55.7067 1.54545H60.2578V-0.454546H55.7067V1.54545ZM59.2578 0.545454V18H61.2578V0.545454H59.2578ZM60.2578 17H56.6783V19H60.2578V17ZM57.6783 18V6.6392H55.6783V18H57.6783ZM56.6783 5.6392H56.5334V7.6392H56.6783V5.6392ZM55.6051 6.26733L51.0881 17.5429L52.9446 18.2866L57.4617 7.01108L55.6051 6.26733ZM52.0163 16.9148H49.5788V18.9148H52.0163V16.9148ZM50.5076 17.5441L45.9906 6.22592L44.133 6.96726L48.6501 18.2854L50.5076 17.5441ZM45.0618 5.59659H44.9169V7.59659H45.0618V5.59659ZM43.9169 6.59659V18H45.9169V6.59659H43.9169ZM44.9169 17H41.3374V19H44.9169V17ZM42.3374 18V0.545454H40.3374V18H42.3374ZM63.2983 18H62.2983V19H63.2983V18ZM63.2983 0.545454V-0.454546H62.2983V0.545454H63.2983ZM74.8551 0.545454H75.8551V-0.454546H74.8551V0.545454ZM74.8551 3.58807V4.58807H75.8551V3.58807H74.8551ZM66.9886 3.58807V2.58807H65.9886V3.58807H66.9886ZM66.9886 7.74716H65.9886V8.74716H66.9886V7.74716ZM74.0881 7.74716H75.0881V6.74716H74.0881V7.74716ZM74.0881 10.7898V11.7898H75.0881V10.7898H74.0881ZM66.9886 10.7898V9.78977H65.9886V10.7898H66.9886ZM66.9886 18V19H67.9886V18H66.9886ZM64.2983 18V0.545454H62.2983V18H64.2983ZM63.2983 1.54545H74.8551V-0.454546H63.2983V1.54545ZM73.8551 0.545454V3.58807H75.8551V0.545454H73.8551ZM74.8551 2.58807H66.9886V4.58807H74.8551V2.58807ZM65.9886 3.58807V7.74716H67.9886V3.58807H65.9886ZM66.9886 8.74716H74.0881V6.74716H66.9886V8.74716ZM73.0881 7.74716V10.7898H75.0881V7.74716H73.0881ZM74.0881 9.78977H66.9886V11.7898H74.0881V9.78977ZM65.9886 10.7898V18H67.9886V10.7898H65.9886ZM66.9886 17H63.2983V19H66.9886V17ZM92.2947 14.1307L91.415 13.6552L91.4134 13.6581L92.2947 14.1307ZM89.3629 17.1903L89.856 18.0603L89.8573 18.0596L89.3629 17.1903ZM81.0277 17.1818L81.5238 16.3136L81.0277 17.1818ZM78.1044 14.1222L77.2231 14.5947L78.1044 14.1222ZM78.1044 4.41477L78.9857 4.88731V4.88731L78.1044 4.41477ZM81.0277 1.36364L81.5208 2.23361L81.5238 2.23188L81.0277 1.36364ZM89.3629 1.36364L88.8668 2.23189L88.8715 2.23457L89.3629 1.36364ZM92.2947 4.41477L91.4134 4.88731L91.415 4.89021L92.2947 4.41477ZM89.0817 6.15341L88.1628 6.54808L88.1651 6.55326L89.0817 6.15341ZM87.5391 4.22727L86.9893 5.0626L87.5391 4.22727ZM82.8686 4.22727L83.4184 5.0626L82.8686 4.22727ZM81.3175 6.15341L80.4009 5.75355L80.3986 5.75875L81.3175 6.15341ZM81.3175 12.392L80.3986 12.7867L80.4009 12.7919L81.3175 12.392ZM82.8686 14.3182L83.4184 13.4829L82.8686 14.3182ZM87.5391 14.3182L86.9893 13.4829L87.5391 14.3182ZM89.0817 12.392L88.1651 11.9922L88.1628 11.9974L89.0817 12.392ZM92.3771 9.27273C92.3771 11.0515 92.0401 12.4986 91.415 13.6552L93.1745 14.6061C93.9926 13.0923 94.3771 11.3007 94.3771 9.27273H92.3771ZM91.4134 13.6581C90.7807 14.8383 89.9329 15.7157 88.8685 16.3211L89.8573 18.0596C91.2702 17.2559 92.377 16.0935 93.1761 14.6032L91.4134 13.6581ZM88.8698 16.3204C87.8001 16.9267 86.5861 17.2386 85.2038 17.2386V19.2386C86.9011 19.2386 88.4599 18.8517 89.856 18.0603L88.8698 16.3204ZM85.2038 17.2386C83.8102 17.2386 82.592 16.9239 81.5238 16.3136L80.5316 18.0501C81.9293 18.8488 83.4952 19.2386 85.2038 19.2386V17.2386ZM81.5238 16.3136C80.4649 15.7085 79.6191 14.831 78.9857 13.6496L77.2231 14.5947C78.0215 16.0838 79.1246 17.2461 80.5316 18.0501L81.5238 16.3136ZM78.9857 13.6496C78.365 12.4919 78.0305 11.0464 78.0305 9.27273H76.0305C76.0305 11.2945 76.412 13.0819 77.2231 14.5947L78.9857 13.6496ZM78.0305 9.27273C78.0305 7.49277 78.3652 6.04462 78.9857 4.88731L77.2231 3.94224C76.4118 5.45538 76.0305 7.24587 76.0305 9.27273H78.0305ZM78.9857 4.88731C79.6188 3.70657 80.4636 2.83282 81.5208 2.2336L80.5346 0.493671C79.1258 1.29218 78.0218 2.45252 77.2231 3.94224L78.9857 4.88731ZM81.5238 2.23188C82.592 1.62152 83.8102 1.30682 85.2038 1.30682V-0.693182C83.4952 -0.693182 81.9293 -0.303336 80.5316 0.495394L81.5238 2.23188ZM85.2038 1.30682C86.5847 1.30682 87.7975 1.62088 88.8668 2.23188L89.8591 0.495394C88.4624 -0.302697 86.9025 -0.693182 85.2038 -0.693182V1.30682ZM88.8715 2.23457C89.9341 2.83412 90.781 3.70775 91.4134 4.88731L93.1761 3.94224C92.3767 2.45134 91.269 1.29088 89.8543 0.492702L88.8715 2.23457ZM91.415 4.89021C92.0401 6.04686 92.3771 7.49391 92.3771 9.27273H94.3771C94.3771 7.24472 93.9926 5.45314 93.1745 3.93933L91.415 4.89021ZM90.6357 9.27273C90.6357 7.94583 90.4377 6.76094 89.9983 5.75356L88.1651 6.55326C88.4643 7.23906 88.6357 8.13372 88.6357 9.27273H90.6357ZM90.0005 5.75875C89.5721 4.76139 88.9417 3.95322 88.0888 3.39194L86.9893 5.0626C87.466 5.37633 87.864 5.85224 88.1628 6.54807L90.0005 5.75875ZM88.0888 3.39194C87.2415 2.83433 86.2668 2.57102 85.2038 2.57102V4.57102C85.9249 4.57102 86.507 4.74522 86.9893 5.0626L88.0888 3.39194ZM85.2038 2.57102C84.1408 2.57102 83.1661 2.83433 82.3189 3.39194L83.4184 5.0626C83.9006 4.74522 84.4827 4.57102 85.2038 4.57102V2.57102ZM82.3189 3.39194C81.4675 3.95224 80.835 4.75851 80.4009 5.75356L82.2341 6.55326C82.5386 5.85513 82.9402 5.37731 83.4184 5.0626L82.3189 3.39194ZM80.3986 5.75875C79.9666 6.76452 79.772 7.94747 79.772 9.27273H81.772C81.772 8.13207 81.941 7.23548 82.2363 6.54807L80.3986 5.75875ZM79.772 9.27273C79.772 10.598 79.9666 11.7809 80.3986 12.7867L82.2363 11.9974C81.941 11.31 81.772 10.4134 81.772 9.27273H79.772ZM80.4009 12.7919C80.835 13.7869 81.4675 14.5932 82.3189 15.1535L83.4184 13.4829C82.9402 13.1681 82.5386 12.6903 82.2341 11.9922L80.4009 12.7919ZM82.3189 15.1535C83.1661 15.7111 84.1408 15.9744 85.2038 15.9744V13.9744C84.4827 13.9744 83.9006 13.8002 83.4184 13.4829L82.3189 15.1535ZM85.2038 15.9744C86.2668 15.9744 87.2415 15.7111 88.0888 15.1535L86.9893 13.4829C86.507 13.8002 85.9249 13.9744 85.2038 13.9744V15.9744ZM88.0888 15.1535C88.9417 14.5922 89.5721 13.7841 90.0005 12.7867L88.1628 11.9974C87.864 12.6932 87.466 13.1691 86.9893 13.4829L88.0888 15.1535ZM89.9983 12.7919C90.4377 11.7845 90.6357 10.5996 90.6357 9.27273H88.6357C88.6357 10.4117 88.4643 11.3064 88.1651 11.9922L89.9983 12.7919ZM96.1108 18H95.1108V19H96.1108V18ZM96.1108 0.545454V-0.454546H95.1108V0.545454H96.1108ZM106.372 1.25284L105.921 2.1451L105.927 2.14835L106.372 1.25284ZM108.511 3.23864L107.642 3.73355L107.646 3.74036L108.511 3.23864ZM108.503 9.23864L109.359 9.75486L109.361 9.75227L108.503 9.23864ZM106.33 11.1477L105.906 10.2417L105.904 10.2427L106.33 11.1477ZM98.2926 11.8125H97.2926V12.8125H98.2926V11.8125ZM98.2926 8.84659V7.84659H97.2926V8.84659H98.2926ZM104.062 8.55682L104.446 9.48056H104.446L104.062 8.55682ZM105.102 7.6875L104.246 7.17112L104.24 7.18048L105.102 7.6875ZM105.102 4.78125L104.234 5.27742L104.239 5.28665L105.102 4.78125ZM104.054 3.87784L103.643 4.78935L103.649 4.79235L103.656 4.79526L104.054 3.87784ZM99.8011 3.5625V2.5625H98.8011V3.5625H99.8011ZM99.8011 18V19H100.801V18H99.8011ZM105.537 10.0568L106.415 9.5775L106.13 9.05682H105.537V10.0568ZM109.875 18V19H111.561L110.753 17.5207L109.875 18ZM105.801 18L104.919 18.4713L105.202 19H105.801V18ZM101.557 10.0568V9.05682H99.8887L100.675 10.5281L101.557 10.0568ZM97.1108 18V0.545454H95.1108V18H97.1108ZM96.1108 1.54545H102.997V-0.454546H96.1108V1.54545ZM102.997 1.54545C104.199 1.54545 105.161 1.76046 105.921 2.14508L106.824 0.3606C105.72 -0.197958 104.432 -0.454546 102.997 -0.454546V1.54545ZM105.927 2.14835C106.698 2.53143 107.258 3.05892 107.642 3.73353L109.38 2.74374C108.787 1.70244 107.921 0.906069 106.817 0.35733L105.927 2.14835ZM107.646 3.74036C108.038 4.41594 108.253 5.23961 108.253 6.24716H110.253C110.253 4.94789 109.973 3.76588 109.376 2.73692L107.646 3.74036ZM108.253 6.24716C108.253 7.26007 108.036 8.0723 107.645 8.725L109.361 9.75227C109.97 8.73452 110.253 7.55243 110.253 6.24716H108.253ZM107.646 8.72242C107.257 9.36796 106.691 9.87539 105.906 10.2417L106.753 12.0538C107.866 11.5337 108.748 10.7684 109.359 9.75486L107.646 8.72242ZM105.904 10.2427C105.127 10.6081 104.138 10.8125 102.903 10.8125V12.8125C104.351 12.8125 105.646 12.5737 106.755 12.0528L105.904 10.2427ZM102.903 10.8125H98.2926V12.8125H102.903V10.8125ZM99.2926 11.8125V8.84659H97.2926V11.8125H99.2926ZM98.2926 9.84659H102.307V7.84659H98.2926V9.84659ZM102.307 9.84659C103.094 9.84659 103.82 9.73982 104.446 9.48056L103.679 7.63308C103.373 7.76018 102.928 7.84659 102.307 7.84659V9.84659ZM104.446 9.48056C105.086 9.21511 105.613 8.79131 105.964 8.19452L104.24 7.18048C104.137 7.35642 103.971 7.51217 103.679 7.63308L104.446 9.48056ZM105.959 8.20385C106.308 7.62456 106.452 6.95419 106.452 6.24716H104.452C104.452 6.68786 104.363 6.97771 104.246 7.17115L105.959 8.20385ZM106.452 6.24716C106.452 5.5351 106.308 4.86162 105.965 4.27585L104.239 5.28665C104.362 5.49633 104.452 5.80013 104.452 6.24716H106.452ZM105.971 4.28511C105.623 3.67716 105.096 3.2399 104.452 2.96042L103.656 4.79526C103.955 4.92487 104.127 5.08989 104.234 5.27739L105.971 4.28511ZM104.465 2.96634C103.83 2.67972 103.09 2.5625 102.29 2.5625V4.5625C102.91 4.5625 103.346 4.65551 103.643 4.78935L104.465 2.96634ZM102.29 2.5625H99.8011V4.5625H102.29V2.5625ZM98.8011 3.5625V18H100.801V3.5625H98.8011ZM99.8011 17H96.1108V19H99.8011V17ZM104.659 10.5361L108.997 18.4793L110.753 17.5207L106.415 9.5775L104.659 10.5361ZM109.875 17H105.801V19H109.875V17ZM106.683 17.5287L102.439 9.58554L100.675 10.5281L104.919 18.4713L106.683 17.5287ZM101.557 11.0568H105.537V9.05682H101.557V11.0568ZM111.196 3.58807H110.196V4.58807H111.196V3.58807ZM111.196 0.545454V-0.454546H110.196V0.545454H111.196ZM125.531 0.545454H126.531V-0.454546H125.531V0.545454ZM125.531 3.58807V4.58807H126.531V3.58807H125.531ZM120.188 3.58807V2.58807H119.188V3.58807H120.188ZM120.188 18V19H121.188V18H120.188ZM116.54 18H115.54V19H116.54V18ZM116.54 3.58807H117.54V2.58807H116.54V3.58807ZM112.196 3.58807V0.545454H110.196V3.58807H112.196ZM111.196 1.54545H125.531V-0.454546H111.196V1.54545ZM124.531 0.545454V3.58807H126.531V0.545454H124.531ZM125.531 2.58807H120.188V4.58807H125.531V2.58807ZM119.188 3.58807V18H121.188V3.58807H119.188ZM120.188 17H116.54V19H120.188V17ZM117.54 18V3.58807H115.54V18H117.54ZM116.54 2.58807H111.196V4.58807H116.54V2.58807Z" fill="black" mask="url(#path-1-outside-1_92_9)"/>
</g>
<defs>
<filter id="filter0_d_92_9" x="0.210449" y="0.306885" width="129.321" height="25.9316" filterUnits="userSpaceOnUse" color-interpolation-filters="sRGB">
<feFlood flood-opacity="0" result="BackgroundImageFix"/>
<feColorMatrix in="SourceAlpha" type="matrix" values="0 0 0 0 0 0 0 0 0 0 0 0 0 0 0 0 0 0 127 0" result="hardAlpha"/>
<feOffset dy="4"/>
<feGaussianBlur stdDeviation="2"/>
<feComposite in2="hardAlpha" operator="out"/>
<feColorMatrix type="matrix" values="0 0 0 0 0 0 0 0 0 0 0 0 0 0 0 0 0 0 0.25 0"/>
<feBlend mode="normal" in2="BackgroundImageFix" result="effect1_dropShadow_92_9"/>
<feBlend mode="normal" in="SourceGraphic" in2="effect1_dropShadow_92_9" result="shape"/>
</filter>
</defs>
</svg>
