<svg width="74" height="27" viewBox="0 0 74 27" fill="none" xmlns="http://www.w3.org/2000/svg">
<g filter="url(#filter0_d_92_4)">
<mask id="path-1-outside-1_92_4" maskUnits="userSpaceOnUse" x="3" y="-1" width="68" height="21" fill="black">
<rect fill="white" x="3" y="-1" width="68" height="21"/>
<path d="M19.9176 6.65625H16.1847C16.1165 6.1733 15.9773 5.74432 15.767 5.36932C15.5568 4.98864 15.2869 4.66477 14.9574 4.39773C14.6278 4.13068 14.2472 3.92614 13.8153 3.78409C13.3892 3.64205 12.9261 3.57102 12.4261 3.57102C11.5227 3.57102 10.7358 3.79545 10.0653 4.24432C9.39489 4.6875 8.875 5.33523 8.50568 6.1875C8.13636 7.03409 7.9517 8.0625 7.9517 9.27273C7.9517 10.517 8.13636 11.5625 8.50568 12.4091C8.88068 13.2557 9.40341 13.8949 10.0739 14.3267C10.7443 14.7585 11.5199 14.9744 12.4006 14.9744C12.8949 14.9744 13.3523 14.9091 13.7727 14.7784C14.1989 14.6477 14.5767 14.4574 14.9062 14.2074C15.2358 13.9517 15.5085 13.642 15.7244 13.2784C15.946 12.9148 16.0994 12.5 16.1847 12.0341L19.9176 12.0511C19.821 12.8523 19.5795 13.625 19.1932 14.3693C18.8125 15.108 18.2983 15.7699 17.6506 16.3551C17.0085 16.9347 16.2415 17.3949 15.3494 17.7358C14.4631 18.071 13.4602 18.2386 12.3409 18.2386C10.7841 18.2386 9.39205 17.8864 8.16477 17.1818C6.94318 16.4773 5.97727 15.4574 5.26705 14.1222C4.5625 12.7869 4.21023 11.1705 4.21023 9.27273C4.21023 7.36932 4.56818 5.75 5.28409 4.41477C6 3.07955 6.97159 2.0625 8.19886 1.36364C9.42614 0.659091 10.8068 0.306818 12.3409 0.306818C13.3523 0.306818 14.2898 0.448863 15.1534 0.732954C16.0227 1.01705 16.7926 1.43182 17.4631 1.97727C18.1335 2.51704 18.679 3.17898 19.0994 3.96307C19.5256 4.74716 19.7983 5.64489 19.9176 6.65625ZM25.2443 18H21.2898L27.3153 0.545454H32.071L38.0881 18H34.1335L29.7614 4.53409H29.625L25.2443 18ZM24.9972 11.1392H34.3381V14.0199H24.9972V11.1392ZM40.1889 18V0.545454H47.0753C48.3935 0.545454 49.5185 0.78125 50.4503 1.25284C51.3878 1.71875 52.1009 2.38068 52.5895 3.23864C53.0838 4.09091 53.331 5.09375 53.331 6.24716C53.331 7.40625 53.081 8.40341 52.581 9.23864C52.081 10.0682 51.3565 10.7045 50.4077 11.1477C49.4645 11.5909 48.3224 11.8125 46.9815 11.8125H42.3707V8.84659H46.3849C47.0895 8.84659 47.6747 8.75 48.1406 8.55682C48.6065 8.36364 48.9531 8.07386 49.1804 7.6875C49.4134 7.30114 49.5298 6.82102 49.5298 6.24716C49.5298 5.66761 49.4134 5.17898 49.1804 4.78125C48.9531 4.38352 48.6037 4.08239 48.1321 3.87784C47.6662 3.66761 47.0781 3.5625 46.3679 3.5625H43.8793V18H40.1889ZM49.6151 10.0568L53.9531 18H49.8793L45.6349 10.0568H49.6151ZM65.4077 5.56534C65.3395 4.87784 65.0469 4.34375 64.5298 3.96307C64.0128 3.58239 63.3111 3.39204 62.4247 3.39204C61.8224 3.39204 61.3139 3.47727 60.8991 3.64773C60.4844 3.8125 60.1662 4.04261 59.9446 4.33807C59.7287 4.63352 59.6207 4.96875 59.6207 5.34375C59.6094 5.65625 59.6747 5.92898 59.8168 6.16193C59.9645 6.39489 60.1662 6.59659 60.4219 6.76705C60.6776 6.93182 60.973 7.0767 61.3082 7.2017C61.6435 7.32102 62.0014 7.4233 62.3821 7.50852L63.9503 7.88352C64.7116 8.05398 65.4105 8.28125 66.0469 8.56534C66.6832 8.84943 67.2344 9.19886 67.7003 9.61364C68.1662 10.0284 68.527 10.517 68.7827 11.0795C69.044 11.642 69.1776 12.2869 69.1832 13.0142C69.1776 14.0824 68.9048 15.0085 68.3651 15.7926C67.831 16.571 67.0582 17.1761 66.0469 17.608C65.0412 18.0341 63.8281 18.2472 62.4077 18.2472C60.9986 18.2472 59.7713 18.0312 58.7259 17.5994C57.6861 17.1676 56.8736 16.5284 56.2884 15.6818C55.7088 14.8295 55.4048 13.7756 55.3764 12.5199H58.9474C58.9872 13.1051 59.1548 13.5937 59.4503 13.9858C59.7514 14.3722 60.152 14.6648 60.652 14.8636C61.1577 15.0568 61.7287 15.1534 62.3651 15.1534C62.9901 15.1534 63.5327 15.0625 63.9929 14.8807C64.4588 14.6989 64.8196 14.446 65.0753 14.1222C65.331 13.7983 65.4588 13.4261 65.4588 13.0057C65.4588 12.6136 65.3423 12.2841 65.1094 12.017C64.8821 11.75 64.5469 11.5227 64.1037 11.3352C63.6662 11.1477 63.1293 10.9773 62.4929 10.8239L60.5923 10.3466C59.1207 9.98864 57.9588 9.42898 57.1065 8.66761C56.2543 7.90625 55.831 6.88068 55.8366 5.59091C55.831 4.53409 56.1122 3.6108 56.6804 2.82102C57.2543 2.03125 58.0412 1.41477 59.0412 0.971591C60.0412 0.528409 61.1776 0.306818 62.4503 0.306818C63.7457 0.306818 64.8764 0.528409 65.8423 0.971591C66.8139 1.41477 67.5696 2.03125 68.1094 2.82102C68.6491 3.6108 68.9276 4.52557 68.9446 5.56534H65.4077Z"/>
</mask>
<path d="M19.9176 6.65625H16.1847C16.1165 6.1733 15.9773 5.74432 15.767 5.36932C15.5568 4.98864 15.2869 4.66477 14.9574 4.39773C14.6278 4.13068 14.2472 3.92614 13.8153 3.78409C13.3892 3.64205 12.9261 3.57102 12.4261 3.57102C11.5227 3.57102 10.7358 3.79545 10.0653 4.24432C9.39489 4.6875 8.875 5.33523 8.50568 6.1875C8.13636 7.03409 7.9517 8.0625 7.9517 9.27273C7.9517 10.517 8.13636 11.5625 8.50568 12.4091C8.88068 13.2557 9.40341 13.8949 10.0739 14.3267C10.7443 14.7585 11.5199 14.9744 12.4006 14.9744C12.8949 14.9744 13.3523 14.9091 13.7727 14.7784C14.1989 14.6477 14.5767 14.4574 14.9062 14.2074C15.2358 13.9517 15.5085 13.642 15.7244 13.2784C15.946 12.9148 16.0994 12.5 16.1847 12.0341L19.9176 12.0511C19.821 12.8523 19.5795 13.625 19.1932 14.3693C18.8125 15.108 18.2983 15.7699 17.6506 16.3551C17.0085 16.9347 16.2415 17.3949 15.3494 17.7358C14.4631 18.071 13.4602 18.2386 12.3409 18.2386C10.7841 18.2386 9.39205 17.8864 8.16477 17.1818C6.94318 16.4773 5.97727 15.4574 5.26705 14.1222C4.5625 12.7869 4.21023 11.1705 4.21023 9.27273C4.21023 7.36932 4.56818 5.75 5.28409 4.41477C6 3.07955 6.97159 2.0625 8.19886 1.36364C9.42614 0.659091 10.8068 0.306818 12.3409 0.306818C13.3523 0.306818 14.2898 0.448863 15.1534 0.732954C16.0227 1.01705 16.7926 1.43182 17.4631 1.97727C18.1335 2.51704 18.679 3.17898 19.0994 3.96307C19.5256 4.74716 19.7983 5.64489 19.9176 6.65625ZM25.2443 18H21.2898L27.3153 0.545454H32.071L38.0881 18H34.1335L29.7614 4.53409H29.625L25.2443 18ZM24.9972 11.1392H34.3381V14.0199H24.9972V11.1392ZM40.1889 18V0.545454H47.0753C48.3935 0.545454 49.5185 0.78125 50.4503 1.25284C51.3878 1.71875 52.1009 2.38068 52.5895 3.23864C53.0838 4.09091 53.331 5.09375 53.331 6.24716C53.331 7.40625 53.081 8.40341 52.581 9.23864C52.081 10.0682 51.3565 10.7045 50.4077 11.1477C49.4645 11.5909 48.3224 11.8125 46.9815 11.8125H42.3707V8.84659H46.3849C47.0895 8.84659 47.6747 8.75 48.1406 8.55682C48.6065 8.36364 48.9531 8.07386 49.1804 7.6875C49.4134 7.30114 49.5298 6.82102 49.5298 6.24716C49.5298 5.66761 49.4134 5.17898 49.1804 4.78125C48.9531 4.38352 48.6037 4.08239 48.1321 3.87784C47.6662 3.66761 47.0781 3.5625 46.3679 3.5625H43.8793V18H40.1889ZM49.6151 10.0568L53.9531 18H49.8793L45.6349 10.0568H49.6151ZM65.4077 5.56534C65.3395 4.87784 65.0469 4.34375 64.5298 3.96307C64.0128 3.58239 63.3111 3.39204 62.4247 3.39204C61.8224 3.39204 61.3139 3.47727 60.8991 3.64773C60.4844 3.8125 60.1662 4.04261 59.9446 4.33807C59.7287 4.63352 59.6207 4.96875 59.6207 5.34375C59.6094 5.65625 59.6747 5.92898 59.8168 6.16193C59.9645 6.39489 60.1662 6.59659 60.4219 6.76705C60.6776 6.93182 60.973 7.0767 61.3082 7.2017C61.6435 7.32102 62.0014 7.4233 62.3821 7.50852L63.9503 7.88352C64.7116 8.05398 65.4105 8.28125 66.0469 8.56534C66.6832 8.84943 67.2344 9.19886 67.7003 9.61364C68.1662 10.0284 68.527 10.517 68.7827 11.0795C69.044 11.642 69.1776 12.2869 69.1832 13.0142C69.1776 14.0824 68.9048 15.0085 68.3651 15.7926C67.831 16.571 67.0582 17.1761 66.0469 17.608C65.0412 18.0341 63.8281 18.2472 62.4077 18.2472C60.9986 18.2472 59.7713 18.0312 58.7259 17.5994C57.6861 17.1676 56.8736 16.5284 56.2884 15.6818C55.7088 14.8295 55.4048 13.7756 55.3764 12.5199H58.9474C58.9872 13.1051 59.1548 13.5937 59.4503 13.9858C59.7514 14.3722 60.152 14.6648 60.652 14.8636C61.1577 15.0568 61.7287 15.1534 62.3651 15.1534C62.9901 15.1534 63.5327 15.0625 63.9929 14.8807C64.4588 14.6989 64.8196 14.446 65.0753 14.1222C65.331 13.7983 65.4588 13.4261 65.4588 13.0057C65.4588 12.6136 65.3423 12.2841 65.1094 12.017C64.8821 11.75 64.5469 11.5227 64.1037 11.3352C63.6662 11.1477 63.1293 10.9773 62.4929 10.8239L60.5923 10.3466C59.1207 9.98864 57.9588 9.42898 57.1065 8.66761C56.2543 7.90625 55.831 6.88068 55.8366 5.59091C55.831 4.53409 56.1122 3.6108 56.6804 2.82102C57.2543 2.03125 58.0412 1.41477 59.0412 0.971591C60.0412 0.528409 61.1776 0.306818 62.4503 0.306818C63.7457 0.306818 64.8764 0.528409 65.8423 0.971591C66.8139 1.41477 67.5696 2.03125 68.1094 2.82102C68.6491 3.6108 68.9276 4.52557 68.9446 5.56534H65.4077Z" fill="white"/>
<path d="M19.9176 6.65625V7.65625H21.0425L20.9107 6.53909L19.9176 6.65625ZM16.1847 6.65625L15.1945 6.79604L15.3159 7.65625H16.1847V6.65625ZM15.767 5.36932L14.8916 5.85275L14.8948 5.85832L15.767 5.36932ZM14.9574 4.39773L14.3278 5.17466L14.3278 5.17466L14.9574 4.39773ZM13.8153 3.78409L13.4991 4.73278L13.5029 4.73402L13.8153 3.78409ZM10.0653 4.24432L10.6168 5.07855L10.6217 5.07528L10.0653 4.24432ZM8.50568 6.1875L9.42227 6.58735L9.42324 6.58511L8.50568 6.1875ZM8.50568 12.4091L7.58909 12.8089L7.59137 12.8141L8.50568 12.4091ZM10.0739 14.3267L9.53239 15.1674H9.53239L10.0739 14.3267ZM13.7727 14.7784L13.4795 13.8223L13.4759 13.8235L13.7727 14.7784ZM14.9062 14.2074L15.5107 15.0041L15.5192 14.9975L14.9062 14.2074ZM15.7244 13.2784L14.8704 12.758L14.8646 12.7679L15.7244 13.2784ZM16.1847 12.0341L16.1892 11.0341L15.3517 11.0303L15.201 11.8542L16.1847 12.0341ZM19.9176 12.0511L20.9104 12.1708L21.0448 11.0563L19.9222 11.0511L19.9176 12.0511ZM19.1932 14.3693L18.3056 13.9086L18.3043 13.9112L19.1932 14.3693ZM17.6506 16.3551L18.3206 17.0974L18.321 17.0971L17.6506 16.3551ZM15.3494 17.7358L15.7032 18.6711L15.7064 18.6699L15.3494 17.7358ZM8.16477 17.1818L7.66517 18.0481L7.66691 18.0491L8.16477 17.1818ZM5.26705 14.1222L4.38261 14.5888L4.38417 14.5918L5.26705 14.1222ZM5.28409 4.41477L6.1654 4.88731L6.1654 4.88731L5.28409 4.41477ZM8.19886 1.36364L8.69371 2.23263L8.69673 2.23089L8.19886 1.36364ZM15.1534 0.732954L14.8409 1.68288L14.8428 1.68348L15.1534 0.732954ZM17.4631 1.97727L16.832 2.75299L16.836 2.7562L17.4631 1.97727ZM19.0994 3.96307L18.2181 4.43565L18.2208 4.44058L19.0994 3.96307ZM19.9176 5.65625H16.1847V7.65625H19.9176V5.65625ZM17.1748 6.51646C17.0916 5.92717 16.9177 5.37695 16.6393 4.88031L14.8948 5.85832C15.0368 6.11169 15.1413 6.41942 15.1945 6.79604L17.1748 6.51646ZM16.6424 4.8859C16.3715 4.39537 16.0191 3.971 15.587 3.62079L14.3278 5.17466C14.5547 5.35855 14.7421 5.5819 14.8917 5.85274L16.6424 4.8859ZM15.587 3.62079C15.1565 3.27198 14.6666 3.01141 14.1278 2.83416L13.5029 4.73402C13.8277 4.84086 14.0992 4.98938 14.3278 5.17466L15.587 3.62079ZM14.1316 2.83541C13.5926 2.65576 13.0216 2.57102 12.4261 2.57102V4.57102C12.8307 4.57102 13.1858 4.62833 13.4991 4.73277L14.1316 2.83541ZM12.4261 2.57102C11.3492 2.57102 10.3634 2.84136 9.50902 3.41335L10.6217 5.07528C11.1082 4.74955 11.6962 4.57102 12.4261 4.57102V2.57102ZM9.51391 3.4101C8.65764 3.9761 8.02226 4.78804 7.58813 5.78989L9.42324 6.58511C9.72774 5.88241 10.1321 5.3989 10.6168 5.07854L9.51391 3.4101ZM7.5891 5.78765C7.15053 6.79298 6.9517 7.96561 6.9517 9.27273H8.9517C8.9517 8.15939 9.12219 7.2752 9.42226 6.58735L7.5891 5.78765ZM6.9517 9.27273C6.9517 10.6095 7.14921 11.8006 7.5891 12.8089L9.42226 12.0092C9.12352 11.3244 8.9517 10.4246 8.9517 9.27273H6.9517ZM7.59137 12.8141C8.0324 13.8098 8.67266 14.6137 9.53239 15.1674L10.6153 13.486C10.1342 13.1761 9.72896 12.7016 9.42 12.0041L7.59137 12.8141ZM9.53239 15.1674C10.3809 15.7139 11.3486 15.9744 12.4006 15.9744V13.9744C11.6912 13.9744 11.1077 13.8031 10.6153 13.486L9.53239 15.1674ZM12.4006 15.9744C12.9833 15.9744 13.542 15.8973 14.0695 15.7333L13.4759 13.8235C13.1625 13.9209 12.8064 13.9744 12.4006 13.9744V15.9744ZM14.0659 15.7345C14.5956 15.572 15.0805 15.3304 15.5106 15.0041L14.3019 13.4107C14.0729 13.5844 13.8021 13.7234 13.4795 13.8224L14.0659 15.7345ZM15.5192 14.9975C15.9493 14.6638 16.3053 14.2589 16.5843 13.7889L14.8646 12.7679C14.7118 13.0252 14.5223 13.2396 14.2933 13.4173L15.5192 14.9975ZM16.5784 13.7988C16.8705 13.3195 17.0635 12.7869 17.1683 12.214L15.201 11.8542C15.1353 12.2131 15.0216 12.5101 14.8705 12.758L16.5784 13.7988ZM16.1801 13.0341L19.913 13.0511L19.9222 11.0511L16.1892 11.0341L16.1801 13.0341ZM18.9248 11.9314C18.8431 12.6089 18.6389 13.2665 18.3056 13.9086L20.0807 14.83C20.5201 13.9835 20.7989 13.0957 20.9104 12.1708L18.9248 11.9314ZM18.3043 13.9112C17.9815 14.5375 17.5431 15.1045 16.9802 15.6131L18.321 17.0971C19.0535 16.4353 19.6435 15.6784 20.0821 14.8274L18.3043 13.9112ZM16.9805 15.6128C16.4392 16.1014 15.7812 16.5003 14.9924 16.8017L15.7064 18.6699C16.7018 18.2895 17.5779 17.7679 18.3206 17.0974L16.9805 15.6128ZM14.9957 16.8005C14.2408 17.086 13.3608 17.2386 12.3409 17.2386V19.2386C13.5597 19.2386 14.6853 19.0561 15.7032 18.6711L14.9957 16.8005ZM12.3409 17.2386C10.9408 17.2386 9.72355 16.9236 8.66264 16.3146L7.66691 18.0491C9.06054 18.8491 10.6273 19.2386 12.3409 19.2386V17.2386ZM8.66438 16.3156C7.61704 15.7115 6.77875 14.8347 6.14992 13.6525L4.38417 14.5918C5.1758 16.08 6.26932 17.243 7.66517 18.0481L8.66438 16.3156ZM6.15147 13.6555C5.53987 12.4964 5.21023 11.0487 5.21023 9.27273H3.21023C3.21023 11.2922 3.58513 13.0775 4.38262 14.5888L6.15147 13.6555ZM5.21023 9.27273C5.21023 7.49277 5.54489 6.04462 6.1654 4.88731L4.40278 3.94224C3.59148 5.45538 3.21023 7.24587 3.21023 9.27273H5.21023ZM6.1654 4.88731C6.79911 3.70539 7.64198 2.83152 8.6937 2.23262L7.70403 0.494651C6.30121 1.29348 5.20089 2.4537 4.40278 3.94224L6.1654 4.88731ZM8.69673 2.23089C9.75988 1.62056 10.9664 1.30682 12.3409 1.30682V-0.693182C10.6473 -0.693182 9.09239 -0.302381 7.701 0.496384L8.69673 2.23089ZM12.3409 1.30682C13.2579 1.30682 14.0888 1.43546 14.8409 1.68288L15.4659 -0.216972C14.4908 -0.537736 13.4466 -0.693182 12.3409 -0.693182V1.30682ZM14.8428 1.68348C15.6023 1.9317 16.2622 2.2894 16.832 2.75298L18.0942 1.20156C17.3231 0.57424 16.4431 0.102392 15.464 -0.217577L14.8428 1.68348ZM16.836 2.7562C17.3985 3.20908 17.8588 3.76561 18.2181 4.43564L19.9807 3.49049C19.4991 2.59234 18.8686 1.82501 18.0902 1.19834L16.836 2.7562ZM18.2208 4.44058C18.5783 5.09829 18.818 5.87068 18.9245 6.77341L20.9107 6.53909C20.7786 5.4191 20.4729 4.39603 19.9781 3.48555L18.2208 4.44058ZM25.2443 18V19H25.9706L26.1953 18.3094L25.2443 18ZM21.2898 18L20.3445 17.6737L19.8866 19H21.2898V18ZM27.3153 0.545454V-0.454546H26.6026L26.3701 0.219136L27.3153 0.545454ZM32.071 0.545454L33.0164 0.219549L32.784 -0.454546H32.071V0.545454ZM38.0881 18V19H39.4905L39.0335 17.6741L38.0881 18ZM34.1335 18L33.1824 18.3088L33.4068 19H34.1335V18ZM29.7614 4.53409L30.7125 4.22528L30.4881 3.53409H29.7614V4.53409ZM29.625 4.53409V3.53409H28.8987L28.6741 4.22473L29.625 4.53409ZM24.9972 11.1392V10.1392H23.9972V11.1392H24.9972ZM34.3381 11.1392H35.3381V10.1392H34.3381V11.1392ZM34.3381 14.0199V15.0199H35.3381V14.0199H34.3381ZM24.9972 14.0199H23.9972V15.0199H24.9972V14.0199ZM25.2443 17H21.2898V19H25.2443V17ZM22.235 18.3263L28.2606 0.871772L26.3701 0.219136L20.3445 17.6737L22.235 18.3263ZM27.3153 1.54545H32.071V-0.454546H27.3153V1.54545ZM31.1256 0.871359L37.1427 18.3259L39.0335 17.6741L33.0164 0.219549L31.1256 0.871359ZM38.0881 17H34.1335V19H38.0881V17ZM35.0846 17.6912L30.7125 4.22528L28.8102 4.8429L33.1824 18.3088L35.0846 17.6912ZM29.7614 3.53409H29.625V5.53409H29.7614V3.53409ZM28.6741 4.22473L24.2934 17.6906L26.1953 18.3094L30.5759 4.84345L28.6741 4.22473ZM24.9972 12.1392H34.3381V10.1392H24.9972V12.1392ZM33.3381 11.1392V14.0199H35.3381V11.1392H33.3381ZM34.3381 13.0199H24.9972V15.0199H34.3381V13.0199ZM25.9972 14.0199V11.1392H23.9972V14.0199H25.9972ZM40.1889 18H39.1889V19H40.1889V18ZM40.1889 0.545454V-0.454546H39.1889V0.545454H40.1889ZM50.4503 1.25284L49.9987 2.1451L50.0052 2.14835L50.4503 1.25284ZM52.5895 3.23864L51.7205 3.73355L51.7245 3.74036L52.5895 3.23864ZM52.581 9.23864L53.4374 9.75486L53.439 9.75227L52.581 9.23864ZM50.4077 11.1477L49.9845 10.2417L49.9824 10.2427L50.4077 11.1477ZM42.3707 11.8125H41.3707V12.8125H42.3707V11.8125ZM42.3707 8.84659V7.84659H41.3707V8.84659H42.3707ZM48.1406 8.55682L48.5236 9.48056L48.1406 8.55682ZM49.1804 7.6875L48.324 7.17112L48.3185 7.18048L49.1804 7.6875ZM49.1804 4.78125L48.3121 5.27742L48.3175 5.28665L49.1804 4.78125ZM48.1321 3.87784L47.7208 4.78935L47.7275 4.79235L47.7342 4.79526L48.1321 3.87784ZM43.8793 3.5625V2.5625H42.8793V3.5625H43.8793ZM43.8793 18V19H44.8793V18H43.8793ZM49.6151 10.0568L50.4927 9.5775L50.2083 9.05682H49.6151V10.0568ZM53.9531 18V19H55.6387L54.8308 17.5207L53.9531 18ZM49.8793 18L48.9973 18.4713L49.2798 19H49.8793V18ZM45.6349 10.0568V9.05682H43.9668L44.753 10.5281L45.6349 10.0568ZM41.1889 18V0.545454H39.1889V18H41.1889ZM40.1889 1.54545H47.0753V-0.454546H40.1889V1.54545ZM47.0753 1.54545C48.2767 1.54545 49.2387 1.76046 49.9987 2.14508L50.9018 0.3606C49.7982 -0.197958 48.5103 -0.454546 47.0753 -0.454546V1.54545ZM50.0052 2.14835C50.7761 2.53143 51.3363 3.05892 51.7205 3.73353L53.4584 2.74374C52.8654 1.70244 51.9995 0.906069 50.8953 0.35733L50.0052 2.14835ZM51.7245 3.74036C52.1163 4.41594 52.331 5.23961 52.331 6.24716H54.331C54.331 4.94789 54.0513 3.76588 53.4545 2.73692L51.7245 3.74036ZM52.331 6.24716C52.331 7.26007 52.1137 8.0723 51.723 8.725L53.439 9.75227C54.0482 8.73452 54.331 7.55243 54.331 6.24716H52.331ZM51.7245 8.72242C51.3354 9.36796 50.7687 9.87539 49.9845 10.2417L50.8309 12.0538C51.9443 11.5337 52.8265 10.7684 53.4374 9.75486L51.7245 8.72242ZM49.9824 10.2427C49.2047 10.6081 48.216 10.8125 46.9815 10.8125V12.8125C48.4288 12.8125 49.7243 12.5737 50.8329 12.0528L49.9824 10.2427ZM46.9815 10.8125H42.3707V12.8125H46.9815V10.8125ZM43.3707 11.8125V8.84659H41.3707V11.8125H43.3707ZM42.3707 9.84659H46.3849V7.84659H42.3707V9.84659ZM46.3849 9.84659C47.1724 9.84659 47.8984 9.73982 48.5236 9.48056L47.7576 7.63308C47.4511 7.76018 47.0065 7.84659 46.3849 7.84659V9.84659ZM48.5236 9.48056C49.1639 9.21511 49.6913 8.79131 50.0423 8.19452L48.3185 7.18048C48.215 7.35642 48.0492 7.51217 47.7576 7.63308L48.5236 9.48056ZM50.0368 8.20385C50.3861 7.62456 50.5298 6.95419 50.5298 6.24716H48.5298C48.5298 6.68786 48.4407 6.97771 48.324 7.17115L50.0368 8.20385ZM50.5298 6.24716C50.5298 5.5351 50.3864 4.86162 50.0433 4.27585L48.3175 5.28665C48.4403 5.49633 48.5298 5.80013 48.5298 6.24716H50.5298ZM50.0486 4.28511C49.7012 3.67716 49.1744 3.2399 48.53 2.96042L47.7342 4.79526C48.033 4.92487 48.205 5.08989 48.3122 5.27739L50.0486 4.28511ZM48.5434 2.96634C47.9082 2.67972 47.1682 2.5625 46.3679 2.5625V4.5625C46.988 4.5625 47.4242 4.65551 47.7208 4.78935L48.5434 2.96634ZM46.3679 2.5625H43.8793V4.5625H46.3679V2.5625ZM42.8793 3.5625V18H44.8793V3.5625H42.8793ZM43.8793 17H40.1889V19H43.8793V17ZM48.7374 10.5361L53.0755 18.4793L54.8308 17.5207L50.4927 9.5775L48.7374 10.5361ZM53.9531 17H49.8793V19H53.9531V17ZM50.7612 17.5287L46.5169 9.58554L44.753 10.5281L48.9973 18.4713L50.7612 17.5287ZM45.6349 11.0568H49.6151V9.05682H45.6349V11.0568ZM65.4077 5.56534L64.4126 5.66403L64.5019 6.56534H65.4077V5.56534ZM60.8991 3.64773L61.2684 4.57714L61.2793 4.57267L60.8991 3.64773ZM59.9446 4.33807L59.1445 3.73802L59.1372 3.74805L59.9446 4.33807ZM59.6207 5.34375L60.6201 5.38009L60.6207 5.36193V5.34375H59.6207ZM59.8168 6.16193L58.963 6.68254L58.9675 6.69005L58.9723 6.69747L59.8168 6.16193ZM60.4219 6.76705L59.8672 7.5991L59.8736 7.60341L59.8802 7.60762L60.4219 6.76705ZM61.3082 7.2017L60.9589 8.13868L60.9659 8.1413L60.9729 8.14381L61.3082 7.2017ZM62.3821 7.50852L62.6147 6.53594L62.6076 6.53426L62.6006 6.53268L62.3821 7.50852ZM63.9503 7.88352L63.7177 8.8561L63.7248 8.85778L63.7318 8.85937L63.9503 7.88352ZM66.0469 8.56534L65.6392 9.47848L66.0469 8.56534ZM67.7003 9.61364L68.3652 8.86673V8.86673L67.7003 9.61364ZM68.7827 11.0795L67.8723 11.4934L67.8758 11.5009L68.7827 11.0795ZM69.1832 13.0142L70.1833 13.0195L70.1832 13.0064L69.1832 13.0142ZM68.3651 15.7926L67.5414 15.2256L67.5405 15.2269L68.3651 15.7926ZM66.0469 17.608L66.437 18.5287L66.4395 18.5276L66.0469 17.608ZM58.7259 17.5994L58.3423 18.523L58.3441 18.5237L58.7259 17.5994ZM56.2884 15.6818L55.4614 16.2441L55.4658 16.2505L56.2884 15.6818ZM55.3764 12.5199V11.5199H54.3535L54.3767 12.5425L55.3764 12.5199ZM58.9474 12.5199L59.9451 12.4521L59.8818 11.5199H58.9474V12.5199ZM59.4503 13.9858L58.6517 14.5876L58.6566 14.5941L58.6616 14.6005L59.4503 13.9858ZM60.652 14.8636L60.2824 15.7929L60.2951 15.7978L60.652 14.8636ZM63.9929 14.8807L63.6294 13.9491L63.6255 13.9506L63.9929 14.8807ZM65.0753 14.1222L65.8602 14.7418L65.0753 14.1222ZM65.1094 12.017L64.3478 12.6652L64.3558 12.6744L65.1094 12.017ZM64.1037 11.3352L63.7098 12.2544L63.7141 12.2562L64.1037 11.3352ZM62.4929 10.8239L62.2493 11.7938L62.2585 11.796L62.4929 10.8239ZM60.5923 10.3466L60.8359 9.37668L60.8287 9.37492L60.5923 10.3466ZM57.1065 8.66761L56.4403 9.41337L57.1065 8.66761ZM55.8366 5.59091L56.8367 5.59531L56.8366 5.58553L55.8366 5.59091ZM56.6804 2.82102L55.8714 2.23319L55.8686 2.23703L56.6804 2.82102ZM65.8423 0.971591L65.4253 1.88049L65.4273 1.88141L65.8423 0.971591ZM68.1094 2.82102L67.2838 3.38528V3.38528L68.1094 2.82102ZM68.9446 5.56534V6.56534H69.9611L69.9445 5.54895L68.9446 5.56534ZM66.4028 5.46665C66.309 4.52137 65.8867 3.72024 65.1227 3.15779L63.9369 4.76835C64.2071 4.96726 64.3699 5.23431 64.4126 5.66403L66.4028 5.46665ZM65.1227 3.15779C64.3794 2.61048 63.445 2.39204 62.4247 2.39204V4.39204C63.1772 4.39204 63.6462 4.55429 63.9369 4.76835L65.1227 3.15779ZM62.4247 2.39204C61.7342 2.39204 61.0881 2.48893 60.519 2.72279L61.2793 4.57267C61.5398 4.46561 61.9107 4.39204 62.4247 4.39204V2.39204ZM60.53 2.71838C59.9798 2.93692 59.4978 3.26718 59.1446 3.73807L60.7446 4.93807C60.8346 4.81805 60.9889 4.68808 61.2683 4.57708L60.53 2.71838ZM59.1372 3.74805C58.7929 4.21927 58.6207 4.76226 58.6207 5.34375H60.6207C60.6207 5.17524 60.6645 5.04778 60.752 4.92808L59.1372 3.74805ZM58.6214 5.30741C58.604 5.78638 58.7045 6.25873 58.963 6.68254L60.6706 5.64132C60.6449 5.59923 60.6148 5.52612 60.6201 5.38009L58.6214 5.30741ZM58.9723 6.69747C59.2029 7.06122 59.5085 7.36001 59.8672 7.5991L60.9766 5.93499C60.8238 5.83317 60.7261 5.72855 60.6613 5.62639L58.9723 6.69747ZM59.8802 7.60762C60.2058 7.81745 60.5677 7.99283 60.9589 8.13868L61.6576 6.26472C61.3783 6.16058 61.1493 6.04618 60.9636 5.92647L59.8802 7.60762ZM60.9729 8.14381C61.3498 8.27796 61.7471 8.39111 62.1636 8.48437L62.6006 6.53268C62.2558 6.45548 61.9371 6.36409 61.6436 6.2596L60.9729 8.14381ZM62.1495 8.4811L63.7177 8.8561L64.1829 6.91094L62.6147 6.53594L62.1495 8.4811ZM63.7318 8.85937C64.4358 9.01697 65.0704 9.22453 65.6392 9.47848L66.4545 7.6522C65.7506 7.33796 64.9875 7.09098 64.1688 6.90768L63.7318 8.85937ZM65.6392 9.47848C66.1927 9.72555 66.6546 10.0215 67.0354 10.3605L68.3652 8.86673C67.8142 8.37618 67.1738 7.97331 66.4545 7.6522L65.6392 9.47848ZM67.0354 10.3605C67.3981 10.6835 67.6749 11.059 67.8723 11.4933L69.693 10.6657C69.3791 9.97507 68.9342 9.3733 68.3652 8.86673L67.0354 10.3605ZM67.8758 11.5009C68.0674 11.9133 68.1785 12.4132 68.1833 13.022L70.1832 13.0064C70.1766 12.1606 70.0207 11.3708 69.6896 10.6582L67.8758 11.5009ZM68.1833 13.0089C68.1785 13.9018 67.9537 14.6266 67.5414 15.2256L69.1888 16.3596C69.8559 15.3905 70.1766 14.2629 70.1832 13.0195L68.1833 13.0089ZM67.5405 15.2269C67.1306 15.8243 66.5203 16.3185 65.6542 16.6883L66.4395 18.5276C67.5962 18.0338 68.5314 17.3178 69.1896 16.3584L67.5405 15.2269ZM65.6567 16.6872C64.8055 17.0479 63.7325 17.2472 62.4077 17.2472V19.2472C63.9237 19.2472 65.2769 19.0203 66.437 18.5287L65.6567 16.6872ZM62.4077 17.2472C61.0984 17.2472 60.0062 17.0463 59.1076 16.6752L58.3441 18.5237C59.5364 19.0162 60.8987 19.2472 62.4077 19.2472V17.2472ZM59.1094 16.6759C58.2297 16.3106 57.5767 15.787 57.1109 15.1132L55.4658 16.2505C56.1704 17.2698 57.1425 18.0247 58.3423 18.523L59.1094 16.6759ZM57.1153 15.1195C56.6658 14.4585 56.4012 13.6026 56.3762 12.4973L54.3767 12.5425C54.4085 13.9485 54.7518 15.2006 55.4614 16.2441L57.1153 15.1195ZM55.3764 13.5199H58.9474V11.5199H55.3764V13.5199ZM57.9497 12.5877C58.0001 13.3282 58.2183 14.0127 58.6517 14.5876L60.2489 13.3839C60.0913 13.1748 59.9744 12.882 59.9451 12.4521L57.9497 12.5877ZM58.6616 14.6005C59.0825 15.1407 59.634 15.5349 60.2824 15.7928L61.0216 13.9344C60.67 13.7946 60.4203 13.6036 60.239 13.3711L58.6616 14.6005ZM60.2951 15.7978C60.9328 16.0414 61.6277 16.1534 62.3651 16.1534V14.1534C61.8297 14.1534 61.3825 14.0722 61.0089 13.9295L60.2951 15.7978ZM62.3651 16.1534C63.0841 16.1534 63.7568 16.0492 64.3603 15.8107L63.6255 13.9506C63.3085 14.0758 62.896 14.1534 62.3651 14.1534V16.1534ZM64.3564 15.8123C64.9529 15.5795 65.4731 15.2321 65.8602 14.7418L64.2904 13.5025C64.1661 13.6599 63.9647 13.8182 63.6294 13.9491L64.3564 15.8123ZM65.8602 14.7418C66.258 14.2379 66.4588 13.6464 66.4588 13.0057H64.4588C64.4588 13.2059 64.4039 13.3587 64.2904 13.5025L65.8602 14.7418ZM66.4588 13.0057C66.4588 12.3995 66.272 11.8286 65.8629 11.3597L64.3558 12.6744C64.4126 12.7395 64.4588 12.8277 64.4588 13.0057H66.4588ZM65.8709 11.3689C65.5122 10.9474 65.0295 10.6411 64.4933 10.4143L63.7141 12.2562C64.0643 12.4044 64.252 12.5526 64.3478 12.6652L65.8709 11.3689ZM64.4976 10.4161C63.9934 10.2 63.3995 10.0138 62.7273 9.85171L62.2585 11.796C62.859 11.9408 63.339 12.0955 63.7098 12.2544L64.4976 10.4161ZM62.7365 9.85398L60.8359 9.3767L60.3488 11.3165L62.2493 11.7937L62.7365 9.85398ZM60.8287 9.37492C59.4668 9.04365 58.4691 8.54394 57.7727 7.92185L56.4403 9.41337C57.4485 10.314 58.7747 10.9336 60.356 11.3183L60.8287 9.37492ZM57.7727 7.92185C57.1627 7.37692 56.832 6.63974 56.8366 5.59531L54.8367 5.5865C54.8299 7.12162 55.3458 8.43558 56.4403 9.41337L57.7727 7.92185ZM56.8366 5.58553C56.832 4.72089 57.0582 4.00818 57.4922 3.40502L55.8686 2.23703C55.1662 3.21341 54.8299 4.34729 54.8367 5.59628L56.8366 5.58553ZM57.4894 3.40885C57.9477 2.7781 58.5875 2.26644 59.4464 1.88583L58.636 0.0573511C57.4948 0.563102 56.5608 1.2844 55.8714 2.2332L57.4894 3.40885ZM59.4464 1.88583C60.2996 1.5077 61.2945 1.30682 62.4503 1.30682V-0.693182C61.0606 -0.693182 59.7828 -0.45088 58.636 0.0573511L59.4464 1.88583ZM62.4503 1.30682C63.6327 1.30682 64.6156 1.509 65.4253 1.88049L66.2594 0.0626945C65.1372 -0.452178 63.8588 -0.693182 62.4503 -0.693182V1.30682ZM65.4273 1.88141C66.2529 2.258 66.8585 2.76297 67.2838 3.38528L68.935 2.25677C68.2808 1.29953 67.3749 0.571543 66.2573 0.0617714L65.4273 1.88141ZM67.2838 3.38528C67.7035 3.99933 67.9306 4.71991 67.9447 5.58173L69.9445 5.54895C69.9245 4.33123 69.5948 3.22226 68.935 2.25676L67.2838 3.38528ZM68.9446 4.56534H65.4077V6.56534H68.9446V4.56534Z" fill="black" mask="url(#path-1-outside-1_92_4)"/>
</g>
<defs>
<filter id="filter0_d_92_4" x="0.210449" y="0.306816" width="72.9727" height="25.9403" filterUnits="userSpaceOnUse" color-interpolation-filters="sRGB">
<feFlood flood-opacity="0" result="BackgroundImageFix"/>
<feColorMatrix in="SourceAlpha" type="matrix" values="0 0 0 0 0 0 0 0 0 0 0 0 0 0 0 0 0 0 127 0" result="hardAlpha"/>
<feOffset dy="4"/>
<feGaussianBlur stdDeviation="2"/>
<feComposite in2="hardAlpha" operator="out"/>
<feColorMatrix type="matrix" values="0 0 0 0 0 0 0 0 0 0 0 0 0 0 0 0 0 0 0.25 0"/>
<feBlend mode="normal" in2="BackgroundImageFix" result="effect1_dropShadow_92_4"/>
<feBlend mode="normal" in="SourceGraphic" in2="effect1_dropShadow_92_4" result="shape"/>
</filter>
</defs>
</svg>
