<svg width="102" height="27" viewBox="0 0 102 27" fill="none" xmlns="http://www.w3.org/2000/svg">
<g filter="url(#filter0_d_92_22)">
<mask id="path-1-outside-1_92_22" maskUnits="userSpaceOnUse" x="2.5" y="-1" width="96" height="21" fill="black">
<rect fill="white" x="2.5" y="-1" width="96" height="21"/>
<path d="M14.4858 5.56534C14.4176 4.87784 14.125 4.34375 13.608 3.96307C13.0909 3.58239 12.3892 3.39204 11.5028 3.39204C10.9006 3.39204 10.392 3.47727 9.97727 3.64773C9.5625 3.8125 9.24432 4.04261 9.02273 4.33807C8.80682 4.63352 8.69886 4.96875 8.69886 5.34375C8.6875 5.65625 8.75284 5.92898 8.89489 6.16193C9.04261 6.39489 9.24432 6.59659 9.5 6.76705C9.75568 6.93182 10.0511 7.0767 10.3864 7.2017C10.7216 7.32102 11.0795 7.4233 11.4602 7.50852L13.0284 7.88352C13.7898 8.05398 14.4886 8.28125 15.125 8.56534C15.7614 8.84943 16.3125 9.19886 16.7784 9.61364C17.2443 10.0284 17.6051 10.517 17.8608 11.0795C18.1222 11.642 18.2557 12.2869 18.2614 13.0142C18.2557 14.0824 17.983 15.0085 17.4432 15.7926C16.9091 16.571 16.1364 17.1761 15.125 17.608C14.1193 18.0341 12.9063 18.2472 11.4858 18.2472C10.0767 18.2472 8.84943 18.0312 7.80398 17.5994C6.7642 17.1676 5.9517 16.5284 5.36648 15.6818C4.78693 14.8295 4.48295 13.7756 4.45455 12.5199H8.02557C8.06534 13.1051 8.23295 13.5937 8.52841 13.9858C8.82955 14.3722 9.23011 14.6648 9.73011 14.8636C10.2358 15.0568 10.8068 15.1534 11.4432 15.1534C12.0682 15.1534 12.6108 15.0625 13.071 14.8807C13.5369 14.6989 13.8977 14.446 14.1534 14.1222C14.4091 13.7983 14.5369 13.4261 14.5369 13.0057C14.5369 12.6136 14.4205 12.2841 14.1875 12.017C13.9602 11.75 13.625 11.5227 13.1818 11.3352C12.7443 11.1477 12.2074 10.9773 11.571 10.8239L9.67045 10.3466C8.19886 9.98864 7.03693 9.42898 6.18466 8.66761C5.33239 7.90625 4.90909 6.88068 4.91477 5.59091C4.90909 4.53409 5.19034 3.6108 5.75852 2.82102C6.33239 2.03125 7.11932 1.41477 8.11932 0.971591C9.11932 0.528409 10.2557 0.306818 11.5284 0.306818C12.8239 0.306818 13.9545 0.528409 14.9205 0.971591C15.892 1.41477 16.6477 2.03125 17.1875 2.82102C17.7273 3.6108 18.0057 4.52557 18.0227 5.56534H14.4858ZM20.0788 3.58807V0.545454H34.4141V3.58807H29.0703V18H25.4226V3.58807H20.0788ZM37.6506 18H33.696L39.7216 0.545454H44.4773L50.4943 18H46.5398L42.1676 4.53409H42.0312L37.6506 18ZM37.4034 11.1392H46.7443V14.0199H37.4034V11.1392ZM49.7976 3.58807V0.545454H64.1328V3.58807H58.7891V18H55.1413V3.58807H49.7976ZM77.2749 0.545454H80.9652V11.8807C80.9652 13.1534 80.6612 14.267 80.0533 15.2216C79.451 16.1761 78.6072 16.9205 77.522 17.4545C76.4368 17.983 75.1726 18.2472 73.7294 18.2472C72.2805 18.2472 71.0135 17.983 69.9283 17.4545C68.843 16.9205 67.9993 16.1761 67.397 15.2216C66.7947 14.267 66.4936 13.1534 66.4936 11.8807V0.545454H70.1839V11.5653C70.1839 12.2301 70.3288 12.821 70.6186 13.3381C70.9141 13.8551 71.3288 14.2614 71.8629 14.5568C72.397 14.8523 73.0192 15 73.7294 15C74.4453 15 75.0675 14.8523 75.5959 14.5568C76.13 14.2614 76.5419 13.8551 76.8317 13.3381C77.1271 12.821 77.2749 12.2301 77.2749 11.5653V0.545454ZM93.4702 5.56534C93.402 4.87784 93.1094 4.34375 92.5923 3.96307C92.0753 3.58239 91.3736 3.39204 90.4872 3.39204C89.8849 3.39204 89.3764 3.47727 88.9616 3.64773C88.5469 3.8125 88.2287 4.04261 88.0071 4.33807C87.7912 4.63352 87.6832 4.96875 87.6832 5.34375C87.6719 5.65625 87.7372 5.92898 87.8793 6.16193C88.027 6.39489 88.2287 6.59659 88.4844 6.76705C88.7401 6.93182 89.0355 7.0767 89.3707 7.2017C89.706 7.32102 90.0639 7.4233 90.4446 7.50852L92.0128 7.88352C92.7741 8.05398 93.473 8.28125 94.1094 8.56534C94.7457 8.84943 95.2969 9.19886 95.7628 9.61364C96.2287 10.0284 96.5895 10.517 96.8452 11.0795C97.1065 11.642 97.2401 12.2869 97.2457 13.0142C97.2401 14.0824 96.9673 15.0085 96.4276 15.7926C95.8935 16.571 95.1207 17.1761 94.1094 17.608C93.1037 18.0341 91.8906 18.2472 90.4702 18.2472C89.0611 18.2472 87.8338 18.0312 86.7884 17.5994C85.7486 17.1676 84.9361 16.5284 84.3509 15.6818C83.7713 14.8295 83.4673 13.7756 83.4389 12.5199H87.0099C87.0497 13.1051 87.2173 13.5937 87.5128 13.9858C87.8139 14.3722 88.2145 14.6648 88.7145 14.8636C89.2202 15.0568 89.7912 15.1534 90.4276 15.1534C91.0526 15.1534 91.5952 15.0625 92.0554 14.8807C92.5213 14.6989 92.8821 14.446 93.1378 14.1222C93.3935 13.7983 93.5213 13.4261 93.5213 13.0057C93.5213 12.6136 93.4048 12.2841 93.1719 12.017C92.9446 11.75 92.6094 11.5227 92.1662 11.3352C91.7287 11.1477 91.1918 10.9773 90.5554 10.8239L88.6548 10.3466C87.1832 9.98864 86.0213 9.42898 85.169 8.66761C84.3168 7.90625 83.8935 6.88068 83.8991 5.59091C83.8935 4.53409 84.1747 3.6108 84.7429 2.82102C85.3168 2.03125 86.1037 1.41477 87.1037 0.971591C88.1037 0.528409 89.2401 0.306818 90.5128 0.306818C91.8082 0.306818 92.9389 0.528409 93.9048 0.971591C94.8764 1.41477 95.6321 2.03125 96.1719 2.82102C96.7116 3.6108 96.9901 4.52557 97.0071 5.56534H93.4702Z"/>
</mask>
<path d="M14.4858 5.56534C14.4176 4.87784 14.125 4.34375 13.608 3.96307C13.0909 3.58239 12.3892 3.39204 11.5028 3.39204C10.9006 3.39204 10.392 3.47727 9.97727 3.64773C9.5625 3.8125 9.24432 4.04261 9.02273 4.33807C8.80682 4.63352 8.69886 4.96875 8.69886 5.34375C8.6875 5.65625 8.75284 5.92898 8.89489 6.16193C9.04261 6.39489 9.24432 6.59659 9.5 6.76705C9.75568 6.93182 10.0511 7.0767 10.3864 7.2017C10.7216 7.32102 11.0795 7.4233 11.4602 7.50852L13.0284 7.88352C13.7898 8.05398 14.4886 8.28125 15.125 8.56534C15.7614 8.84943 16.3125 9.19886 16.7784 9.61364C17.2443 10.0284 17.6051 10.517 17.8608 11.0795C18.1222 11.642 18.2557 12.2869 18.2614 13.0142C18.2557 14.0824 17.983 15.0085 17.4432 15.7926C16.9091 16.571 16.1364 17.1761 15.125 17.608C14.1193 18.0341 12.9063 18.2472 11.4858 18.2472C10.0767 18.2472 8.84943 18.0312 7.80398 17.5994C6.7642 17.1676 5.9517 16.5284 5.36648 15.6818C4.78693 14.8295 4.48295 13.7756 4.45455 12.5199H8.02557C8.06534 13.1051 8.23295 13.5937 8.52841 13.9858C8.82955 14.3722 9.23011 14.6648 9.73011 14.8636C10.2358 15.0568 10.8068 15.1534 11.4432 15.1534C12.0682 15.1534 12.6108 15.0625 13.071 14.8807C13.5369 14.6989 13.8977 14.446 14.1534 14.1222C14.4091 13.7983 14.5369 13.4261 14.5369 13.0057C14.5369 12.6136 14.4205 12.2841 14.1875 12.017C13.9602 11.75 13.625 11.5227 13.1818 11.3352C12.7443 11.1477 12.2074 10.9773 11.571 10.8239L9.67045 10.3466C8.19886 9.98864 7.03693 9.42898 6.18466 8.66761C5.33239 7.90625 4.90909 6.88068 4.91477 5.59091C4.90909 4.53409 5.19034 3.6108 5.75852 2.82102C6.33239 2.03125 7.11932 1.41477 8.11932 0.971591C9.11932 0.528409 10.2557 0.306818 11.5284 0.306818C12.8239 0.306818 13.9545 0.528409 14.9205 0.971591C15.892 1.41477 16.6477 2.03125 17.1875 2.82102C17.7273 3.6108 18.0057 4.52557 18.0227 5.56534H14.4858ZM20.0788 3.58807V0.545454H34.4141V3.58807H29.0703V18H25.4226V3.58807H20.0788ZM37.6506 18H33.696L39.7216 0.545454H44.4773L50.4943 18H46.5398L42.1676 4.53409H42.0312L37.6506 18ZM37.4034 11.1392H46.7443V14.0199H37.4034V11.1392ZM49.7976 3.58807V0.545454H64.1328V3.58807H58.7891V18H55.1413V3.58807H49.7976ZM77.2749 0.545454H80.9652V11.8807C80.9652 13.1534 80.6612 14.267 80.0533 15.2216C79.451 16.1761 78.6072 16.9205 77.522 17.4545C76.4368 17.983 75.1726 18.2472 73.7294 18.2472C72.2805 18.2472 71.0135 17.983 69.9283 17.4545C68.843 16.9205 67.9993 16.1761 67.397 15.2216C66.7947 14.267 66.4936 13.1534 66.4936 11.8807V0.545454H70.1839V11.5653C70.1839 12.2301 70.3288 12.821 70.6186 13.3381C70.9141 13.8551 71.3288 14.2614 71.8629 14.5568C72.397 14.8523 73.0192 15 73.7294 15C74.4453 15 75.0675 14.8523 75.5959 14.5568C76.13 14.2614 76.5419 13.8551 76.8317 13.3381C77.1271 12.821 77.2749 12.2301 77.2749 11.5653V0.545454ZM93.4702 5.56534C93.402 4.87784 93.1094 4.34375 92.5923 3.96307C92.0753 3.58239 91.3736 3.39204 90.4872 3.39204C89.8849 3.39204 89.3764 3.47727 88.9616 3.64773C88.5469 3.8125 88.2287 4.04261 88.0071 4.33807C87.7912 4.63352 87.6832 4.96875 87.6832 5.34375C87.6719 5.65625 87.7372 5.92898 87.8793 6.16193C88.027 6.39489 88.2287 6.59659 88.4844 6.76705C88.7401 6.93182 89.0355 7.0767 89.3707 7.2017C89.706 7.32102 90.0639 7.4233 90.4446 7.50852L92.0128 7.88352C92.7741 8.05398 93.473 8.28125 94.1094 8.56534C94.7457 8.84943 95.2969 9.19886 95.7628 9.61364C96.2287 10.0284 96.5895 10.517 96.8452 11.0795C97.1065 11.642 97.2401 12.2869 97.2457 13.0142C97.2401 14.0824 96.9673 15.0085 96.4276 15.7926C95.8935 16.571 95.1207 17.1761 94.1094 17.608C93.1037 18.0341 91.8906 18.2472 90.4702 18.2472C89.0611 18.2472 87.8338 18.0312 86.7884 17.5994C85.7486 17.1676 84.9361 16.5284 84.3509 15.6818C83.7713 14.8295 83.4673 13.7756 83.4389 12.5199H87.0099C87.0497 13.1051 87.2173 13.5937 87.5128 13.9858C87.8139 14.3722 88.2145 14.6648 88.7145 14.8636C89.2202 15.0568 89.7912 15.1534 90.4276 15.1534C91.0526 15.1534 91.5952 15.0625 92.0554 14.8807C92.5213 14.6989 92.8821 14.446 93.1378 14.1222C93.3935 13.7983 93.5213 13.4261 93.5213 13.0057C93.5213 12.6136 93.4048 12.2841 93.1719 12.017C92.9446 11.75 92.6094 11.5227 92.1662 11.3352C91.7287 11.1477 91.1918 10.9773 90.5554 10.8239L88.6548 10.3466C87.1832 9.98864 86.0213 9.42898 85.169 8.66761C84.3168 7.90625 83.8935 6.88068 83.8991 5.59091C83.8935 4.53409 84.1747 3.6108 84.7429 2.82102C85.3168 2.03125 86.1037 1.41477 87.1037 0.971591C88.1037 0.528409 89.2401 0.306818 90.5128 0.306818C91.8082 0.306818 92.9389 0.528409 93.9048 0.971591C94.8764 1.41477 95.6321 2.03125 96.1719 2.82102C96.7116 3.6108 96.9901 4.52557 97.0071 5.56534H93.4702Z" fill="white"/>
<path d="M14.4858 5.56534L13.4907 5.66403L13.5801 6.56534H14.4858V5.56534ZM9.97727 3.64773L10.3465 4.57714L10.3574 4.57267L9.97727 3.64773ZM9.02273 4.33807L8.22267 3.73802L8.21534 3.74805L9.02273 4.33807ZM8.69886 5.34375L9.6982 5.38009L9.69886 5.36193V5.34375H8.69886ZM8.89489 6.16193L8.04109 6.68254L8.04567 6.69005L8.05038 6.69747L8.89489 6.16193ZM9.5 6.76705L8.9453 7.5991L8.95177 7.60341L8.9583 7.60762L9.5 6.76705ZM10.3864 7.2017L10.037 8.13868L10.044 8.1413L10.051 8.14381L10.3864 7.2017ZM11.4602 7.50852L11.6928 6.53594L11.6858 6.53426L11.6787 6.53268L11.4602 7.50852ZM13.0284 7.88352L12.7958 8.8561L12.8029 8.85778L12.8099 8.85937L13.0284 7.88352ZM15.125 8.56534L14.7173 9.47848L15.125 8.56534ZM16.7784 9.61364L17.4433 8.86673V8.86673L16.7784 9.61364ZM17.8608 11.0795L16.9504 11.4934L16.9539 11.5009L17.8608 11.0795ZM18.2614 13.0142L19.2614 13.0195L19.2613 13.0064L18.2614 13.0142ZM17.4432 15.7926L16.6195 15.2256L16.6186 15.2269L17.4432 15.7926ZM15.125 17.608L15.5152 18.5287L15.5177 18.5276L15.125 17.608ZM7.80398 17.5994L7.42044 18.523L7.42222 18.5237L7.80398 17.5994ZM5.36648 15.6818L4.53953 16.2441L4.54389 16.2505L5.36648 15.6818ZM4.45455 12.5199V11.5199H3.43167L3.4548 12.5425L4.45455 12.5199ZM8.02557 12.5199L9.02327 12.4521L8.95991 11.5199H8.02557V12.5199ZM8.52841 13.9858L7.7298 14.5876L7.73469 14.5941L7.73968 14.6005L8.52841 13.9858ZM9.73011 14.8636L9.36051 15.7929L9.37325 15.7978L9.73011 14.8636ZM13.071 14.8807L12.7075 13.9491L12.7036 13.9506L13.071 14.8807ZM14.1534 14.1222L14.9383 14.7418H14.9383L14.1534 14.1222ZM14.1875 12.017L13.4259 12.6652L13.4339 12.6744L14.1875 12.017ZM13.1818 11.3352L12.7879 12.2544L12.7922 12.2562L13.1818 11.3352ZM11.571 10.8239L11.3275 11.7938L11.3367 11.796L11.571 10.8239ZM9.67045 10.3466L9.91402 9.37668L9.90681 9.37492L9.67045 10.3466ZM6.18466 8.66761L5.51845 9.41337H5.51845L6.18466 8.66761ZM4.91477 5.59091L5.91481 5.59531L5.91476 5.58553L4.91477 5.59091ZM5.75852 2.82102L4.94953 2.23319L4.94677 2.23703L5.75852 2.82102ZM14.9205 0.971591L14.5034 1.88049L14.5054 1.88141L14.9205 0.971591ZM17.1875 2.82102L16.3619 3.38528L16.3619 3.38528L17.1875 2.82102ZM18.0227 5.56534V6.56534H19.0393L19.0226 5.54895L18.0227 5.56534ZM15.4809 5.46665C15.3872 4.52137 14.9648 3.72024 14.2009 3.15779L13.0151 4.76835C13.2852 4.96726 13.4481 5.23431 13.4907 5.66403L15.4809 5.46665ZM14.2009 3.15779C13.4575 2.61048 12.5231 2.39204 11.5028 2.39204V4.39204C12.2553 4.39204 12.7243 4.55429 13.0151 4.76835L14.2009 3.15779ZM11.5028 2.39204C10.8123 2.39204 10.1662 2.48893 9.59716 2.72279L10.3574 4.57267C10.6179 4.46561 10.9888 4.39204 11.5028 4.39204V2.39204ZM9.60808 2.71838C9.05794 2.93692 8.57589 3.26718 8.22273 3.73807L9.82273 4.93807C9.91274 4.81805 10.0671 4.68808 10.3465 4.57708L9.60808 2.71838ZM8.21534 3.74805C7.87099 4.21927 7.69886 4.76226 7.69886 5.34375H9.69886C9.69886 5.17524 9.74265 5.04778 9.83012 4.92808L8.21534 3.74805ZM7.69952 5.30741C7.68211 5.78638 7.78267 6.25873 8.04109 6.68254L9.74868 5.64132C9.72301 5.59923 9.69289 5.52612 9.6982 5.38009L7.69952 5.30741ZM8.05038 6.69747C8.28105 7.06122 8.58667 7.36001 8.9453 7.5991L10.0547 5.93499C9.90197 5.83317 9.80418 5.72855 9.7394 5.62639L8.05038 6.69747ZM8.9583 7.60762C9.28391 7.81745 9.64582 7.99283 10.037 8.13868L10.7357 6.26472C10.4565 6.16058 10.2275 6.04618 10.0417 5.92647L8.9583 7.60762ZM10.051 8.14381C10.4279 8.27796 10.8252 8.39111 11.2418 8.48437L11.6787 6.53268C11.3339 6.45548 11.0152 6.36409 10.7217 6.2596L10.051 8.14381ZM11.2277 8.4811L12.7958 8.8561L13.261 6.91094L11.6928 6.53594L11.2277 8.4811ZM12.8099 8.85937C13.5139 9.01697 14.1485 9.22453 14.7173 9.47848L15.5327 7.6522C14.8288 7.33796 14.0656 7.09098 13.2469 6.90768L12.8099 8.85937ZM14.7173 9.47848C15.2708 9.72555 15.7327 10.0215 16.1135 10.3605L17.4433 8.86673C16.8923 8.37618 16.2519 7.97331 15.5327 7.6522L14.7173 9.47848ZM16.1135 10.3605C16.4763 10.6835 16.753 11.059 16.9504 11.4933L18.7712 10.6657C18.4572 9.97507 18.0124 9.3733 17.4433 8.86673L16.1135 10.3605ZM16.9539 11.5009C17.1455 11.9133 17.2566 12.4132 17.2614 13.022L19.2613 13.0064C19.2547 12.1606 19.0988 11.3708 18.7677 10.6582L16.9539 11.5009ZM17.2614 13.0089C17.2566 13.9018 17.0318 14.6266 16.6195 15.2256L18.2669 16.3596C18.9341 15.3905 19.2547 14.2629 19.2613 13.0195L17.2614 13.0089ZM16.6186 15.2269C16.2087 15.8243 15.5984 16.3185 14.7323 16.6883L15.5177 18.5276C16.6743 18.0338 17.6095 17.3178 18.2678 16.3584L16.6186 15.2269ZM14.7349 16.6872C13.8836 17.0479 12.8106 17.2472 11.4858 17.2472V19.2472C13.0019 19.2472 14.355 19.0203 15.5151 18.5287L14.7349 16.6872ZM11.4858 17.2472C10.1766 17.2472 9.08435 17.0463 8.18574 16.6752L7.42222 18.5237C8.61451 19.0162 9.97684 19.2472 11.4858 19.2472V17.2472ZM8.18752 16.6759C7.30782 16.3106 6.65487 15.787 6.18907 15.1132L4.54389 16.2505C5.24854 17.2698 6.22059 18.0247 7.42044 18.523L8.18752 16.6759ZM6.1934 15.1195C5.74393 14.4585 5.4793 13.6026 5.45429 12.4973L3.4548 12.5425C3.48661 13.9485 3.82993 15.2006 4.53955 16.2441L6.1934 15.1195ZM4.45455 13.5199H8.02557V11.5199H4.45455V13.5199ZM7.02787 12.5877C7.0782 13.3282 7.29647 14.0127 7.7298 14.5876L9.32702 13.3839C9.16944 13.1748 9.05248 12.882 9.02327 12.4521L7.02787 12.5877ZM7.73968 14.6005C8.16067 15.1407 8.7121 15.5349 9.36054 15.7928L10.0997 13.9344C9.74813 13.7946 9.49842 13.6036 9.31714 13.3711L7.73968 14.6005ZM9.37325 15.7978C10.011 16.0414 10.7058 16.1534 11.4432 16.1534V14.1534C10.9078 14.1534 10.4606 14.0722 10.087 13.9295L9.37325 15.7978ZM11.4432 16.1534C12.1622 16.1534 12.8349 16.0492 13.4385 15.8107L12.7036 13.9506C12.3867 14.0758 11.9742 14.1534 11.4432 14.1534V16.1534ZM13.4346 15.8123C14.0311 15.5795 14.5512 15.2321 14.9383 14.7418L13.3685 13.5025C13.2443 13.6599 13.0428 13.8182 12.7075 13.9491L13.4346 15.8123ZM14.9383 14.7418C15.3361 14.2379 15.5369 13.6464 15.5369 13.0057H13.5369C13.5369 13.2059 13.482 13.3587 13.3685 13.5025L14.9383 14.7418ZM15.5369 13.0057C15.5369 12.3995 15.3502 11.8286 14.9411 11.3597L13.4339 12.6744C13.4907 12.7395 13.5369 12.8277 13.5369 13.0057H15.5369ZM14.949 11.3689C14.5903 10.9474 14.1076 10.6411 13.5715 10.4143L12.7922 12.2562C13.1424 12.4044 13.3301 12.5526 13.426 12.6652L14.949 11.3689ZM13.5757 10.4161C13.0715 10.2 12.4776 10.0138 11.8054 9.85171L11.3367 11.796C11.9372 11.9408 12.4171 12.0955 12.7879 12.2544L13.5757 10.4161ZM11.8146 9.85398L9.91401 9.3767L9.4269 11.3165L11.3275 11.7937L11.8146 9.85398ZM9.90681 9.37492C8.54489 9.04365 7.54724 8.54394 6.85087 7.92185L5.51845 9.41337C6.52662 10.314 7.85283 10.9336 9.4341 11.3183L9.90681 9.37492ZM6.85087 7.92185C6.24087 7.37692 5.91016 6.63974 5.91476 5.59531L3.91478 5.5865C3.90802 7.12162 4.4239 8.43558 5.51845 9.41337L6.85087 7.92185ZM5.91476 5.58553C5.91011 4.72089 6.13635 4.00818 6.57028 3.40502L4.94677 2.23703C4.24433 3.21341 3.90807 4.34729 3.91479 5.59628L5.91476 5.58553ZM6.56751 3.40885C7.02582 2.7781 7.66567 2.26644 8.52449 1.88583L7.71414 0.0573511C6.57296 0.563102 5.63895 1.2844 4.94954 2.2332L6.56751 3.40885ZM8.52449 1.88583C9.37772 1.5077 10.3726 1.30682 11.5284 1.30682V-0.693182C10.1388 -0.693182 8.86092 -0.45088 7.71414 0.0573511L8.52449 1.88583ZM11.5284 1.30682C12.7108 1.30682 13.6938 1.509 14.5034 1.88049L15.3375 0.0626945C14.2153 -0.452178 12.9369 -0.693182 11.5284 -0.693182V1.30682ZM14.5054 1.88141C15.3311 2.258 15.9366 2.76297 16.3619 3.38528L18.0131 2.25677C17.3589 1.29953 16.453 0.571543 15.3355 0.0617714L14.5054 1.88141ZM16.3619 3.38528C16.7816 3.99933 17.0087 4.71991 17.0229 5.58173L19.0226 5.54895C19.0026 4.33123 18.673 3.22226 18.0131 2.25676L16.3619 3.38528ZM18.0227 4.56534H14.4858V6.56534H18.0227V4.56534ZM20.0788 3.58807H19.0788V4.58807H20.0788V3.58807ZM20.0788 0.545454V-0.454546H19.0788V0.545454H20.0788ZM34.4141 0.545454H35.4141V-0.454546H34.4141V0.545454ZM34.4141 3.58807V4.58807H35.4141V3.58807H34.4141ZM29.0703 3.58807V2.58807H28.0703V3.58807H29.0703ZM29.0703 18V19H30.0703V18H29.0703ZM25.4226 18H24.4226V19H25.4226V18ZM25.4226 3.58807H26.4226V2.58807H25.4226V3.58807ZM21.0788 3.58807V0.545454H19.0788V3.58807H21.0788ZM20.0788 1.54545H34.4141V-0.454546H20.0788V1.54545ZM33.4141 0.545454V3.58807H35.4141V0.545454H33.4141ZM34.4141 2.58807H29.0703V4.58807H34.4141V2.58807ZM28.0703 3.58807V18H30.0703V3.58807H28.0703ZM29.0703 17H25.4226V19H29.0703V17ZM26.4226 18V3.58807H24.4226V18H26.4226ZM25.4226 2.58807H20.0788V4.58807H25.4226V2.58807ZM37.6506 18V19H38.3768L38.6015 18.3094L37.6506 18ZM33.696 18L32.7508 17.6737L32.2929 19H33.696V18ZM39.7216 0.545454V-0.454546H39.0089L38.7763 0.219136L39.7216 0.545454ZM44.4773 0.545454L45.4227 0.219549L45.1903 -0.454546H44.4773V0.545454ZM50.4943 18V19H51.8968L51.4397 17.6741L50.4943 18ZM46.5398 18L45.5886 18.3088L45.8131 19H46.5398V18ZM42.1676 4.53409L43.1187 4.22528L42.8943 3.53409H42.1676V4.53409ZM42.0312 4.53409V3.53409H41.305L41.0803 4.22473L42.0312 4.53409ZM37.4034 11.1392V10.1392H36.4034V11.1392H37.4034ZM46.7443 11.1392H47.7443V10.1392H46.7443V11.1392ZM46.7443 14.0199V15.0199H47.7443V14.0199H46.7443ZM37.4034 14.0199H36.4034V15.0199H37.4034V14.0199ZM37.6506 17H33.696V19H37.6506V17ZM34.6413 18.3263L40.6669 0.871772L38.7763 0.219136L32.7508 17.6737L34.6413 18.3263ZM39.7216 1.54545H44.4773V-0.454546H39.7216V1.54545ZM43.5319 0.871359L49.5489 18.3259L51.4397 17.6741L45.4227 0.219549L43.5319 0.871359ZM50.4943 17H46.5398V19H50.4943V17ZM47.4909 17.6912L43.1187 4.22528L41.2165 4.8429L45.5886 18.3088L47.4909 17.6912ZM42.1676 3.53409H42.0312V5.53409H42.1676V3.53409ZM41.0803 4.22473L36.6996 17.6906L38.6015 18.3094L42.9822 4.84345L41.0803 4.22473ZM37.4034 12.1392H46.7443V10.1392H37.4034V12.1392ZM45.7443 11.1392V14.0199H47.7443V11.1392H45.7443ZM46.7443 13.0199H37.4034V15.0199H46.7443V13.0199ZM38.4034 14.0199V11.1392H36.4034V14.0199H38.4034ZM49.7976 3.58807H48.7976V4.58807H49.7976V3.58807ZM49.7976 0.545454V-0.454546H48.7976V0.545454H49.7976ZM64.1328 0.545454H65.1328V-0.454546H64.1328V0.545454ZM64.1328 3.58807V4.58807H65.1328V3.58807H64.1328ZM58.7891 3.58807V2.58807H57.7891V3.58807H58.7891ZM58.7891 18V19H59.7891V18H58.7891ZM55.1413 18H54.1413V19H55.1413V18ZM55.1413 3.58807H56.1413V2.58807H55.1413V3.58807ZM50.7976 3.58807V0.545454H48.7976V3.58807H50.7976ZM49.7976 1.54545H64.1328V-0.454546H49.7976V1.54545ZM63.1328 0.545454V3.58807H65.1328V0.545454H63.1328ZM64.1328 2.58807H58.7891V4.58807H64.1328V2.58807ZM57.7891 3.58807V18H59.7891V3.58807H57.7891ZM58.7891 17H55.1413V19H58.7891V17ZM56.1413 18V3.58807H54.1413V18H56.1413ZM55.1413 2.58807H49.7976V4.58807H55.1413V2.58807ZM77.2749 0.545454V-0.454546H76.2749V0.545454H77.2749ZM80.9652 0.545454H81.9652V-0.454546H80.9652V0.545454ZM80.0533 15.2216L79.2098 14.6844L79.2075 14.688L80.0533 15.2216ZM77.522 17.4545L77.9598 18.3536L77.9636 18.3518L77.522 17.4545ZM69.9283 17.4545L69.4867 18.3518L69.4905 18.3536L69.9283 17.4545ZM67.397 15.2216L66.5513 15.7552L67.397 15.2216ZM66.4936 0.545454V-0.454546H65.4936V0.545454H66.4936ZM70.184 0.545454H71.184V-0.454546H70.184V0.545454ZM70.6186 13.3381L69.7462 13.827L69.7504 13.8342L70.6186 13.3381ZM71.8629 14.5568L71.3789 15.4319H71.3789L71.8629 14.5568ZM75.5959 14.5568L75.1118 13.6818L75.1078 13.684L75.5959 14.5568ZM76.8317 13.3381L75.9634 12.8419L75.9593 12.8492L76.8317 13.3381ZM77.2749 1.54545H80.9652V-0.454546H77.2749V1.54545ZM79.9652 0.545454V11.8807H81.9652V0.545454H79.9652ZM79.9652 11.8807C79.9652 12.9875 79.7032 13.9098 79.2098 14.6844L80.8967 15.7588C81.6193 14.6243 81.9652 13.3193 81.9652 11.8807H79.9652ZM79.2075 14.688C78.7109 15.4751 78.0123 16.0987 77.0805 16.5573L77.9636 18.3518C79.2022 17.7422 80.1911 16.8772 80.899 15.7552L79.2075 14.688ZM77.0842 16.5555C76.1595 17.0057 75.0502 17.2472 73.7294 17.2472V19.2472C75.2949 19.2472 76.714 18.9602 77.9598 18.3536L77.0842 16.5555ZM73.7294 17.2472C72.4022 17.2472 71.2902 17.0055 70.366 16.5555L69.4905 18.3536C70.7367 18.9604 72.1589 19.2472 73.7294 19.2472V17.2472ZM70.3698 16.5573C69.438 16.0987 68.7394 15.4751 68.2427 14.688L66.5513 15.7552C67.2592 16.8772 68.2481 17.7422 69.4867 18.3518L70.3698 16.5573ZM68.2427 14.688C67.7537 13.9129 67.4936 12.9893 67.4936 11.8807H65.4936C65.4936 13.3175 65.8358 14.6212 66.5513 15.7552L68.2427 14.688ZM67.4936 11.8807V0.545454H65.4936V11.8807H67.4936ZM66.4936 1.54545H70.184V-0.454546H66.4936V1.54545ZM69.184 0.545454V11.5653H71.184V0.545454H69.184ZM69.184 11.5653C69.184 12.3801 69.363 13.1431 69.7463 13.827L71.491 12.8492C71.2947 12.4989 71.184 12.0801 71.184 11.5653H69.184ZM69.7504 13.8342C70.1391 14.5145 70.6886 15.05 71.3789 15.4319L72.347 13.6818C71.969 13.4727 71.689 13.1957 71.4869 12.8419L69.7504 13.8342ZM71.3789 15.4319C72.0838 15.8218 72.8777 16 73.7294 16V14C73.1606 14 72.7103 13.8828 72.347 13.6818L71.3789 15.4319ZM73.7294 16C74.5849 16 75.3813 15.8225 76.0839 15.4296L75.1078 13.684C74.7537 13.882 74.3057 14 73.7294 14V16ZM76.0799 15.4319C76.7718 15.0491 77.3205 14.5114 77.704 13.827L75.9593 12.8492C75.7634 13.1989 75.4882 13.4736 75.1118 13.6818L76.0799 15.4319ZM77.6999 13.8342C78.0914 13.1491 78.2749 12.3835 78.2749 11.5653H76.2749C76.2749 12.0768 76.1628 12.493 75.9634 12.8419L77.6999 13.8342ZM78.2749 11.5653V0.545454H76.2749V11.5653H78.2749ZM93.4702 5.56534L92.4751 5.66403L92.5644 6.56534H93.4702V5.56534ZM88.9616 3.64773L89.3309 4.57714L89.3418 4.57267L88.9616 3.64773ZM88.0071 4.33807L87.207 3.73802L87.1997 3.74805L88.0071 4.33807ZM87.6832 5.34375L88.6826 5.38009L88.6832 5.36193V5.34375H87.6832ZM87.8793 6.16193L87.0255 6.68254L87.03 6.69005L87.0348 6.69747L87.8793 6.16193ZM88.4844 6.76705L87.9297 7.5991L87.9361 7.60341L87.9427 7.60762L88.4844 6.76705ZM89.3707 7.2017L89.0214 8.13868L89.0284 8.1413L89.0354 8.14381L89.3707 7.2017ZM90.4446 7.50852L90.6772 6.53594L90.6701 6.53426L90.6631 6.53268L90.4446 7.50852ZM92.0128 7.88352L91.7802 8.8561L91.7872 8.85778L91.7943 8.85937L92.0128 7.88352ZM94.1094 8.56534L93.7017 9.47848L94.1094 8.56534ZM95.7628 9.61364L96.4277 8.86673V8.86673L95.7628 9.61364ZM96.8452 11.0795L95.9348 11.4934L95.9383 11.5009L96.8452 11.0795ZM97.2457 13.0142L98.2458 13.0195L98.2457 13.0064L97.2457 13.0142ZM96.4276 15.7926L95.6039 15.2256L95.603 15.2269L96.4276 15.7926ZM94.1094 17.608L94.4995 18.5287L94.502 18.5276L94.1094 17.608ZM86.7884 17.5994L86.4048 18.523L86.4066 18.5237L86.7884 17.5994ZM84.3509 15.6818L83.5239 16.2441L83.5283 16.2505L84.3509 15.6818ZM83.4389 12.5199V11.5199H82.416L82.4392 12.5425L83.4389 12.5199ZM87.0099 12.5199L88.0076 12.4521L87.9443 11.5199H87.0099V12.5199ZM87.5128 13.9858L86.7142 14.5876L86.7191 14.5941L86.7241 14.6005L87.5128 13.9858ZM88.7145 14.8636L88.3449 15.7929L88.3576 15.7978L88.7145 14.8636ZM92.0554 14.8807L91.6918 13.9491L91.688 13.9506L92.0554 14.8807ZM93.1378 14.1222L93.9227 14.7418L93.1378 14.1222ZM93.1719 12.017L92.4103 12.6652L92.4183 12.6744L93.1719 12.017ZM92.1662 11.3352L91.7723 12.2544L91.7766 12.2562L92.1662 11.3352ZM90.5554 10.8239L90.3118 11.7938L90.321 11.796L90.5554 10.8239ZM88.6548 10.3466L88.8984 9.37668L88.8912 9.37492L88.6548 10.3466ZM85.169 8.66761L84.5028 9.41337L85.169 8.66761ZM83.8991 5.59091L84.8992 5.59531L84.8991 5.58553L83.8991 5.59091ZM84.7429 2.82102L83.9339 2.23319L83.9311 2.23703L84.7429 2.82102ZM93.9048 0.971591L93.4878 1.88049L93.4898 1.88141L93.9048 0.971591ZM96.1719 2.82102L95.3463 3.38528V3.38528L96.1719 2.82102ZM97.0071 5.56534V6.56534H98.0236L98.007 5.54895L97.0071 5.56534ZM94.4653 5.46665C94.3715 4.52137 93.9492 3.72024 93.1852 3.15779L91.9994 4.76835C92.2696 4.96726 92.4324 5.23431 92.4751 5.66403L94.4653 5.46665ZM93.1852 3.15779C92.4419 2.61048 91.5075 2.39204 90.4872 2.39204V4.39204C91.2397 4.39204 91.7087 4.55429 91.9994 4.76835L93.1852 3.15779ZM90.4872 2.39204C89.7967 2.39204 89.1506 2.48893 88.5815 2.72279L89.3418 4.57267C89.6023 4.46561 89.9732 4.39204 90.4872 4.39204V2.39204ZM88.5925 2.71838C88.0423 2.93692 87.5603 3.26718 87.2071 3.73807L88.8071 4.93807C88.8971 4.81805 89.0514 4.68808 89.3308 4.57708L88.5925 2.71838ZM87.1997 3.74805C86.8554 4.21927 86.6832 4.76226 86.6832 5.34375H88.6832C88.6832 5.17524 88.727 5.04778 88.8145 4.92808L87.1997 3.74805ZM86.6839 5.30741C86.6665 5.78638 86.767 6.25873 87.0255 6.68254L88.7331 5.64132C88.7074 5.59923 88.6773 5.52612 88.6826 5.38009L86.6839 5.30741ZM87.0348 6.69747C87.2654 7.06122 87.571 7.36001 87.9297 7.5991L89.0391 5.93499C88.8863 5.83317 88.7886 5.72855 88.7238 5.62639L87.0348 6.69747ZM87.9427 7.60762C88.2683 7.81745 88.6302 7.99283 89.0214 8.13868L89.7201 6.26472C89.4408 6.16058 89.2118 6.04618 89.0261 5.92647L87.9427 7.60762ZM89.0354 8.14381C89.4123 8.27796 89.8096 8.39111 90.2261 8.48437L90.6631 6.53268C90.3183 6.45548 89.9996 6.36409 89.7061 6.2596L89.0354 8.14381ZM90.212 8.4811L91.7802 8.8561L92.2454 6.91094L90.6772 6.53594L90.212 8.4811ZM91.7943 8.85937C92.4983 9.01697 93.1329 9.22453 93.7017 9.47848L94.517 7.6522C93.8131 7.33796 93.05 7.09098 92.2313 6.90768L91.7943 8.85937ZM93.7017 9.47848C94.2552 9.72555 94.7171 10.0215 95.0979 10.3605L96.4277 8.86673C95.8767 8.37618 95.2363 7.97331 94.517 7.6522L93.7017 9.47848ZM95.0979 10.3605C95.4606 10.6835 95.7374 11.059 95.9348 11.4933L97.7555 10.6657C97.4416 9.97507 96.9967 9.3733 96.4277 8.86673L95.0979 10.3605ZM95.9383 11.5009C96.1299 11.9133 96.241 12.4132 96.2458 13.022L98.2457 13.0064C98.2391 12.1606 98.0832 11.3708 97.7521 10.6582L95.9383 11.5009ZM96.2458 13.0089C96.241 13.9018 96.0162 14.6266 95.6039 15.2256L97.2513 16.3596C97.9184 15.3905 98.2391 14.2629 98.2457 13.0195L96.2458 13.0089ZM95.603 15.2269C95.1931 15.8243 94.5828 16.3185 93.7167 16.6883L94.502 18.5276C95.6587 18.0338 96.5939 17.3178 97.2521 16.3584L95.603 15.2269ZM93.7192 16.6872C92.868 17.0479 91.795 17.2472 90.4702 17.2472V19.2472C91.9862 19.2472 93.3394 19.0203 94.4995 18.5287L93.7192 16.6872ZM90.4702 17.2472C89.1609 17.2472 88.0687 17.0463 87.1701 16.6752L86.4066 18.5237C87.5989 19.0162 88.9612 19.2472 90.4702 19.2472V17.2472ZM87.1719 16.6759C86.2922 16.3106 85.6392 15.787 85.1734 15.1132L83.5283 16.2505C84.2329 17.2698 85.205 18.0247 86.4048 18.523L87.1719 16.6759ZM85.1778 15.1195C84.7283 14.4585 84.4637 13.6026 84.4387 12.4973L82.4392 12.5425C82.471 13.9485 82.8143 15.2006 83.5239 16.2441L85.1778 15.1195ZM83.4389 13.5199H87.0099V11.5199H83.4389V13.5199ZM86.0122 12.5877C86.0626 13.3282 86.2808 14.0127 86.7142 14.5876L88.3114 13.3839C88.1538 13.1748 88.0369 12.882 88.0076 12.4521L86.0122 12.5877ZM86.7241 14.6005C87.145 15.1407 87.6965 15.5349 88.3449 15.7928L89.0841 13.9344C88.7325 13.7946 88.4828 13.6036 88.3015 13.3711L86.7241 14.6005ZM88.3576 15.7978C88.9953 16.0414 89.6902 16.1534 90.4276 16.1534V14.1534C89.8922 14.1534 89.445 14.0722 89.0714 13.9295L88.3576 15.7978ZM90.4276 16.1534C91.1466 16.1534 91.8193 16.0492 92.4228 15.8107L91.688 13.9506C91.371 14.0758 90.9585 14.1534 90.4276 14.1534V16.1534ZM92.4189 15.8123C93.0154 15.5795 93.5356 15.2321 93.9227 14.7418L92.3529 13.5025C92.2286 13.6599 92.0272 13.8182 91.6919 13.9491L92.4189 15.8123ZM93.9227 14.7418C94.3205 14.2379 94.5213 13.6464 94.5213 13.0057H92.5213C92.5213 13.2059 92.4664 13.3587 92.3529 13.5025L93.9227 14.7418ZM94.5213 13.0057C94.5213 12.3995 94.3345 11.8286 93.9254 11.3597L92.4183 12.6744C92.4751 12.7395 92.5213 12.8277 92.5213 13.0057H94.5213ZM93.9334 11.3689C93.5747 10.9474 93.092 10.6411 92.5558 10.4143L91.7766 12.2562C92.1268 12.4044 92.3145 12.5526 92.4103 12.6652L93.9334 11.3689ZM92.5601 10.4161C92.0559 10.2 91.462 10.0138 90.7898 9.85171L90.321 11.796C90.9215 11.9408 91.4015 12.0955 91.7723 12.2544L92.5601 10.4161ZM90.799 9.85398L88.8984 9.3767L88.4113 11.3165L90.3118 11.7937L90.799 9.85398ZM88.8912 9.37492C87.5293 9.04365 86.5316 8.54394 85.8353 7.92185L84.5028 9.41337C85.511 10.314 86.8372 10.9336 88.4185 11.3183L88.8912 9.37492ZM85.8353 7.92185C85.2253 7.37692 84.8945 6.63974 84.8991 5.59531L82.8992 5.5865C82.8924 7.12162 83.4083 8.43558 84.5028 9.41337L85.8353 7.92185ZM84.8991 5.58553C84.8945 4.72089 85.1207 4.00818 85.5547 3.40502L83.9311 2.23703C83.2287 3.21341 82.8924 4.34729 82.8992 5.59628L84.8991 5.58553ZM85.5519 3.40885C86.0102 2.7781 86.65 2.26644 87.5089 1.88583L86.6985 0.0573511C85.5573 0.563102 84.6233 1.2844 83.9339 2.2332L85.5519 3.40885ZM87.5089 1.88583C88.3621 1.5077 89.357 1.30682 90.5128 1.30682V-0.693182C89.1231 -0.693182 87.8453 -0.45088 86.6985 0.0573511L87.5089 1.88583ZM90.5128 1.30682C91.6952 1.30682 92.6781 1.509 93.4878 1.88049L94.3219 0.0626945C93.1997 -0.452178 91.9213 -0.693182 90.5128 -0.693182V1.30682ZM93.4898 1.88141C94.3154 2.258 94.921 2.76297 95.3463 3.38528L96.9975 2.25677C96.3433 1.29953 95.4374 0.571543 94.3198 0.0617714L93.4898 1.88141ZM95.3463 3.38528C95.766 3.99933 95.9931 4.71991 96.0072 5.58173L98.007 5.54895C97.987 4.33123 97.6573 3.22226 96.9975 2.25676L95.3463 3.38528ZM97.0071 4.56534H93.4702V6.56534H97.0071V4.56534Z" fill="black" mask="url(#path-1-outside-1_92_22)"/>
</g>
<defs>
<filter id="filter0_d_92_22" x="0.45459" y="0.306885" width="100.791" height="25.9402" filterUnits="userSpaceOnUse" color-interpolation-filters="sRGB">
<feFlood flood-opacity="0" result="BackgroundImageFix"/>
<feColorMatrix in="SourceAlpha" type="matrix" values="0 0 0 0 0 0 0 0 0 0 0 0 0 0 0 0 0 0 127 0" result="hardAlpha"/>
<feOffset dy="4"/>
<feGaussianBlur stdDeviation="2"/>
<feComposite in2="hardAlpha" operator="out"/>
<feColorMatrix type="matrix" values="0 0 0 0 0 0 0 0 0 0 0 0 0 0 0 0 0 0 0.25 0"/>
<feBlend mode="normal" in2="BackgroundImageFix" result="effect1_dropShadow_92_22"/>
<feBlend mode="normal" in="SourceGraphic" in2="effect1_dropShadow_92_22" result="shape"/>
</filter>
</defs>
</svg>
