<svg width="152" height="26" viewBox="0 0 152 26" fill="none" xmlns="http://www.w3.org/2000/svg">
<g filter="url(#filter0_d_92_10)">
<mask id="path-1-outside-1_92_10" maskUnits="userSpaceOnUse" x="3" y="-1" width="147" height="20" fill="black">
<rect fill="white" x="3" y="-1" width="147" height="20"/>
<path d="M4.51705 18V0.545454H11.4034C12.7216 0.545454 13.8466 0.78125 14.7784 1.25284C15.7159 1.71875 16.429 2.38068 16.9176 3.23864C17.4119 4.09091 17.6591 5.09375 17.6591 6.24716C17.6591 7.40625 17.4091 8.40341 16.9091 9.23864C16.4091 10.0682 15.6847 10.7045 14.7358 11.1477C13.7926 11.5909 12.6506 11.8125 11.3097 11.8125H6.69886V8.84659H10.7131C11.4176 8.84659 12.0028 8.75 12.4688 8.55682C12.9347 8.36364 13.2813 8.07386 13.5085 7.6875C13.7415 7.30114 13.858 6.82102 13.858 6.24716C13.858 5.66761 13.7415 5.17898 13.5085 4.78125C13.2813 4.38352 12.9318 4.08239 12.4602 3.87784C11.9943 3.66761 11.4063 3.5625 10.696 3.5625H8.20739V18H4.51705ZM13.9432 10.0568L18.2812 18H14.2074L9.96307 10.0568H13.9432ZM20.267 18V0.545454H32.0284V3.58807H23.9574V7.74716H31.4233V10.7898H23.9574V14.9574H32.0625V18H20.267ZM34.9624 18V0.545454H38.6527V14.9574H46.1357V18H34.9624ZM52.2699 0.545454V18H48.5795V0.545454H52.2699ZM58.3146 18H54.3601L60.3857 0.545454H65.1413L71.1584 18H67.2038L62.8317 4.53409H62.6953L58.3146 18ZM58.0675 11.1392H67.4084V14.0199H58.0675V11.1392ZM73.2592 18V0.545454H80.2479C81.532 0.545454 82.603 0.735795 83.4609 1.11648C84.3189 1.49716 84.9638 2.02557 85.3956 2.7017C85.8274 3.37216 86.0433 4.14489 86.0433 5.01989C86.0433 5.7017 85.907 6.30114 85.6342 6.81818C85.3615 7.32955 84.9865 7.75 84.5092 8.07955C84.0376 8.40341 83.4979 8.63352 82.8899 8.76989V8.94034C83.5547 8.96875 84.1768 9.15625 84.7564 9.50284C85.3416 9.84943 85.8161 10.3352 86.1797 10.9602C86.5433 11.5795 86.7251 12.3182 86.7251 13.1761C86.7251 14.1023 86.495 14.929 86.0348 15.6562C85.5803 16.3778 84.907 16.9489 84.0149 17.3693C83.1229 17.7898 82.0234 18 80.7166 18H73.2592ZM76.9496 14.983H79.9581C80.9865 14.983 81.7365 14.7869 82.2081 14.3949C82.6797 13.9972 82.9155 13.4687 82.9155 12.8097C82.9155 12.3267 82.799 11.9006 82.5661 11.5312C82.3331 11.1619 82.0007 10.8722 81.5689 10.6619C81.1428 10.4517 80.6342 10.3466 80.0433 10.3466H76.9496V14.983ZM76.9496 7.84943H79.6854C80.1911 7.84943 80.6399 7.76136 81.032 7.58523C81.4297 7.40341 81.7422 7.14773 81.9695 6.81818C82.2024 6.48864 82.3189 6.09375 82.3189 5.63352C82.3189 5.00284 82.0945 4.49432 81.6456 4.10795C81.2024 3.72159 80.5717 3.52841 79.7536 3.52841H76.9496V7.84943ZM92.8168 0.545454V18H89.1264V0.545454H92.8168ZM95.853 18V0.545454H99.5433V14.9574H107.026V18H95.853ZM113.161 0.545454V18H109.47V0.545454H113.161ZM115.532 3.58807V0.545454H129.867V3.58807H124.523V18H120.876V3.58807H115.532ZM131.205 0.545454H135.339L139.319 8.0625H139.489L143.469 0.545454H147.603L141.237 11.8295V18H137.572V11.8295L131.205 0.545454Z"/>
</mask>
<path d="M4.51705 18V0.545454H11.4034C12.7216 0.545454 13.8466 0.78125 14.7784 1.25284C15.7159 1.71875 16.429 2.38068 16.9176 3.23864C17.4119 4.09091 17.6591 5.09375 17.6591 6.24716C17.6591 7.40625 17.4091 8.40341 16.9091 9.23864C16.4091 10.0682 15.6847 10.7045 14.7358 11.1477C13.7926 11.5909 12.6506 11.8125 11.3097 11.8125H6.69886V8.84659H10.7131C11.4176 8.84659 12.0028 8.75 12.4688 8.55682C12.9347 8.36364 13.2813 8.07386 13.5085 7.6875C13.7415 7.30114 13.858 6.82102 13.858 6.24716C13.858 5.66761 13.7415 5.17898 13.5085 4.78125C13.2813 4.38352 12.9318 4.08239 12.4602 3.87784C11.9943 3.66761 11.4063 3.5625 10.696 3.5625H8.20739V18H4.51705ZM13.9432 10.0568L18.2812 18H14.2074L9.96307 10.0568H13.9432ZM20.267 18V0.545454H32.0284V3.58807H23.9574V7.74716H31.4233V10.7898H23.9574V14.9574H32.0625V18H20.267ZM34.9624 18V0.545454H38.6527V14.9574H46.1357V18H34.9624ZM52.2699 0.545454V18H48.5795V0.545454H52.2699ZM58.3146 18H54.3601L60.3857 0.545454H65.1413L71.1584 18H67.2038L62.8317 4.53409H62.6953L58.3146 18ZM58.0675 11.1392H67.4084V14.0199H58.0675V11.1392ZM73.2592 18V0.545454H80.2479C81.532 0.545454 82.603 0.735795 83.4609 1.11648C84.3189 1.49716 84.9638 2.02557 85.3956 2.7017C85.8274 3.37216 86.0433 4.14489 86.0433 5.01989C86.0433 5.7017 85.907 6.30114 85.6342 6.81818C85.3615 7.32955 84.9865 7.75 84.5092 8.07955C84.0376 8.40341 83.4979 8.63352 82.8899 8.76989V8.94034C83.5547 8.96875 84.1768 9.15625 84.7564 9.50284C85.3416 9.84943 85.8161 10.3352 86.1797 10.9602C86.5433 11.5795 86.7251 12.3182 86.7251 13.1761C86.7251 14.1023 86.495 14.929 86.0348 15.6562C85.5803 16.3778 84.907 16.9489 84.0149 17.3693C83.1229 17.7898 82.0234 18 80.7166 18H73.2592ZM76.9496 14.983H79.9581C80.9865 14.983 81.7365 14.7869 82.2081 14.3949C82.6797 13.9972 82.9155 13.4687 82.9155 12.8097C82.9155 12.3267 82.799 11.9006 82.5661 11.5312C82.3331 11.1619 82.0007 10.8722 81.5689 10.6619C81.1428 10.4517 80.6342 10.3466 80.0433 10.3466H76.9496V14.983ZM76.9496 7.84943H79.6854C80.1911 7.84943 80.6399 7.76136 81.032 7.58523C81.4297 7.40341 81.7422 7.14773 81.9695 6.81818C82.2024 6.48864 82.3189 6.09375 82.3189 5.63352C82.3189 5.00284 82.0945 4.49432 81.6456 4.10795C81.2024 3.72159 80.5717 3.52841 79.7536 3.52841H76.9496V7.84943ZM92.8168 0.545454V18H89.1264V0.545454H92.8168ZM95.853 18V0.545454H99.5433V14.9574H107.026V18H95.853ZM113.161 0.545454V18H109.47V0.545454H113.161ZM115.532 3.58807V0.545454H129.867V3.58807H124.523V18H120.876V3.58807H115.532ZM131.205 0.545454H135.339L139.319 8.0625H139.489L143.469 0.545454H147.603L141.237 11.8295V18H137.572V11.8295L131.205 0.545454Z" fill="white"/>
<path d="M4.51705 18H3.51705V19H4.51705V18ZM4.51705 0.545454V-0.454546H3.51705V0.545454H4.51705ZM14.7784 1.25284L14.3268 2.1451L14.3334 2.14835L14.7784 1.25284ZM16.9176 3.23864L16.0486 3.73355L16.0526 3.74036L16.9176 3.23864ZM16.9091 9.23864L17.7656 9.75486L17.7671 9.75227L16.9091 9.23864ZM14.7358 11.1477L14.3126 10.2417L14.3105 10.2427L14.7358 11.1477ZM6.69886 11.8125H5.69886V12.8125H6.69886V11.8125ZM6.69886 8.84659V7.84659H5.69886V8.84659H6.69886ZM12.4688 8.55682L12.8518 9.48056L12.4688 8.55682ZM13.5085 7.6875L12.6521 7.17112L12.6466 7.18048L13.5085 7.6875ZM13.5085 4.78125L12.6402 5.27742L12.6456 5.28665L13.5085 4.78125ZM12.4602 3.87784L12.0489 4.78935L12.0556 4.79235L12.0623 4.79526L12.4602 3.87784ZM8.20739 3.5625V2.5625H7.20739V3.5625H8.20739ZM8.20739 18V19H9.20739V18H8.20739ZM13.9432 10.0568L14.8208 9.5775L14.5365 9.05682H13.9432V10.0568ZM18.2812 18V19H19.9668L19.1589 17.5207L18.2812 18ZM14.2074 18L13.3254 18.4713L13.6079 19H14.2074V18ZM9.96307 10.0568V9.05682H8.29493L9.08108 10.5281L9.96307 10.0568ZM5.51705 18V0.545454H3.51705V18H5.51705ZM4.51705 1.54545H11.4034V-0.454546H4.51705V1.54545ZM11.4034 1.54545C12.6048 1.54545 13.5669 1.76046 14.3268 2.14508L15.23 0.3606C14.1263 -0.197958 12.8384 -0.454546 11.4034 -0.454546V1.54545ZM14.3334 2.14835C15.1042 2.53143 15.6644 3.05892 16.0487 3.73353L17.7866 2.74374C17.1935 1.70244 16.3276 0.906069 15.2235 0.35733L14.3334 2.14835ZM16.0526 3.74036C16.4444 4.41594 16.6591 5.23961 16.6591 6.24716H18.6591C18.6591 4.94789 18.3794 3.76588 17.7826 2.73692L16.0526 3.74036ZM16.6591 6.24716C16.6591 7.26007 16.4418 8.0723 16.0511 8.725L17.7671 9.75227C18.3764 8.73452 18.6591 7.55243 18.6591 6.24716H16.6591ZM16.0526 8.72242C15.6635 9.36796 15.0969 9.87539 14.3126 10.2417L15.159 12.0538C16.2725 11.5337 17.1546 10.7684 17.7655 9.75486L16.0526 8.72242ZM14.3105 10.2427C13.5328 10.6081 12.5442 10.8125 11.3097 10.8125V12.8125C12.757 12.8125 14.0524 12.5737 15.1611 12.0528L14.3105 10.2427ZM11.3097 10.8125H6.69886V12.8125H11.3097V10.8125ZM7.69886 11.8125V8.84659H5.69886V11.8125H7.69886ZM6.69886 9.84659H10.7131V7.84659H6.69886V9.84659ZM10.7131 9.84659C11.5006 9.84659 12.2265 9.73982 12.8518 9.48056L12.0857 7.63308C11.7792 7.76018 11.3347 7.84659 10.7131 7.84659V9.84659ZM12.8518 9.48056C13.492 9.21511 14.0194 8.79131 14.3705 8.19452L12.6466 7.18048C12.5431 7.35642 12.3773 7.51217 12.0857 7.63308L12.8518 9.48056ZM14.3649 8.20385C14.7142 7.62456 14.858 6.95419 14.858 6.24716H12.858C12.858 6.68786 12.7688 6.97771 12.6521 7.17115L14.3649 8.20385ZM14.858 6.24716C14.858 5.5351 14.7145 4.86162 14.3714 4.27585L12.6456 5.28665C12.7685 5.49633 12.858 5.80013 12.858 6.24716H14.858ZM14.3768 4.28511C14.0294 3.67716 13.5025 3.2399 12.8581 2.96042L12.0623 4.79526C12.3611 4.92487 12.5331 5.08989 12.6403 5.27739L14.3768 4.28511ZM12.8715 2.96634C12.2363 2.67972 11.4964 2.5625 10.696 2.5625V4.5625C11.3161 4.5625 11.7523 4.65551 12.0489 4.78935L12.8715 2.96634ZM10.696 2.5625H8.20739V4.5625H10.696V2.5625ZM7.20739 3.5625V18H9.20739V3.5625H7.20739ZM8.20739 17H4.51705V19H8.20739V17ZM13.0655 10.5361L17.4036 18.4793L19.1589 17.5207L14.8208 9.5775L13.0655 10.5361ZM18.2812 17H14.2074V19H18.2812V17ZM15.0894 17.5287L10.8451 9.58554L9.08108 10.5281L13.3254 18.4713L15.0894 17.5287ZM9.96307 11.0568H13.9432V9.05682H9.96307V11.0568ZM20.267 18H19.267V19H20.267V18ZM20.267 0.545454V-0.454546H19.267V0.545454H20.267ZM32.0284 0.545454H33.0284V-0.454546H32.0284V0.545454ZM32.0284 3.58807V4.58807H33.0284V3.58807H32.0284ZM23.9574 3.58807V2.58807H22.9574V3.58807H23.9574ZM23.9574 7.74716H22.9574V8.74716H23.9574V7.74716ZM31.4233 7.74716H32.4233V6.74716H31.4233V7.74716ZM31.4233 10.7898V11.7898H32.4233V10.7898H31.4233ZM23.9574 10.7898V9.78977H22.9574V10.7898H23.9574ZM23.9574 14.9574H22.9574V15.9574H23.9574V14.9574ZM32.0625 14.9574H33.0625V13.9574H32.0625V14.9574ZM32.0625 18V19H33.0625V18H32.0625ZM21.267 18V0.545454H19.267V18H21.267ZM20.267 1.54545H32.0284V-0.454546H20.267V1.54545ZM31.0284 0.545454V3.58807H33.0284V0.545454H31.0284ZM32.0284 2.58807H23.9574V4.58807H32.0284V2.58807ZM22.9574 3.58807V7.74716H24.9574V3.58807H22.9574ZM23.9574 8.74716H31.4233V6.74716H23.9574V8.74716ZM30.4233 7.74716V10.7898H32.4233V7.74716H30.4233ZM31.4233 9.78977H23.9574V11.7898H31.4233V9.78977ZM22.9574 10.7898V14.9574H24.9574V10.7898H22.9574ZM23.9574 15.9574H32.0625V13.9574H23.9574V15.9574ZM31.0625 14.9574V18H33.0625V14.9574H31.0625ZM32.0625 17H20.267V19H32.0625V17ZM34.9624 18H33.9624V19H34.9624V18ZM34.9624 0.545454V-0.454546H33.9624V0.545454H34.9624ZM38.6527 0.545454H39.6527V-0.454546H38.6527V0.545454ZM38.6527 14.9574H37.6527V15.9574H38.6527V14.9574ZM46.1357 14.9574H47.1357V13.9574H46.1357V14.9574ZM46.1357 18V19H47.1357V18H46.1357ZM35.9624 18V0.545454H33.9624V18H35.9624ZM34.9624 1.54545H38.6527V-0.454546H34.9624V1.54545ZM37.6527 0.545454V14.9574H39.6527V0.545454H37.6527ZM38.6527 15.9574H46.1357V13.9574H38.6527V15.9574ZM45.1357 14.9574V18H47.1357V14.9574H45.1357ZM46.1357 17H34.9624V19H46.1357V17ZM52.2699 0.545454H53.2699V-0.454546H52.2699V0.545454ZM52.2699 18V19H53.2699V18H52.2699ZM48.5795 18H47.5795V19H48.5795V18ZM48.5795 0.545454V-0.454546H47.5795V0.545454H48.5795ZM51.2699 0.545454V18H53.2699V0.545454H51.2699ZM52.2699 17H48.5795V19H52.2699V17ZM49.5795 18V0.545454H47.5795V18H49.5795ZM48.5795 1.54545H52.2699V-0.454546H48.5795V1.54545ZM58.3146 18V19H59.0409L59.2656 18.3094L58.3146 18ZM54.3601 18L53.4148 17.6737L52.957 19H54.3601V18ZM60.3857 0.545454V-0.454546H59.673L59.4404 0.219136L60.3857 0.545454ZM65.1413 0.545454L66.0867 0.219549L65.8544 -0.454546H65.1413V0.545454ZM71.1584 18V19H72.5609L72.1038 17.6741L71.1584 18ZM67.2038 18L66.2527 18.3088L66.4771 19H67.2038V18ZM62.8317 4.53409L63.7828 4.22528L63.5584 3.53409H62.8317V4.53409ZM62.6953 4.53409V3.53409H61.969L61.7444 4.22473L62.6953 4.53409ZM58.0675 11.1392V10.1392H57.0675V11.1392H58.0675ZM67.4084 11.1392H68.4084V10.1392H67.4084V11.1392ZM67.4084 14.0199V15.0199H68.4084V14.0199H67.4084ZM58.0675 14.0199H57.0675V15.0199H58.0675V14.0199ZM58.3146 17H54.3601V19H58.3146V17ZM55.3053 18.3263L61.3309 0.871772L59.4404 0.219136L53.4148 17.6737L55.3053 18.3263ZM60.3857 1.54545H65.1413V-0.454546H60.3857V1.54545ZM64.1959 0.871359L70.213 18.3259L72.1038 17.6741L66.0867 0.219549L64.1959 0.871359ZM71.1584 17H67.2038V19H71.1584V17ZM68.155 17.6912L63.7828 4.22528L61.8806 4.8429L66.2527 18.3088L68.155 17.6912ZM62.8317 3.53409H62.6953V5.53409H62.8317V3.53409ZM61.7444 4.22473L57.3637 17.6906L59.2656 18.3094L63.6463 4.84345L61.7444 4.22473ZM58.0675 12.1392H67.4084V10.1392H58.0675V12.1392ZM66.4084 11.1392V14.0199H68.4084V11.1392H66.4084ZM67.4084 13.0199H58.0675V15.0199H67.4084V13.0199ZM59.0675 14.0199V11.1392H57.0675V14.0199H59.0675ZM73.2592 18H72.2592V19H73.2592V18ZM73.2592 0.545454V-0.454546H72.2592V0.545454H73.2592ZM83.4609 1.11648L83.0554 2.03054L83.4609 1.11648ZM85.3956 2.7017L84.5528 3.23996L84.5549 3.24318L85.3956 2.7017ZM85.6342 6.81818L86.5166 7.28877L86.5187 7.28473L85.6342 6.81818ZM84.5092 8.07955L85.0753 8.90388L85.0774 8.90244L84.5092 8.07955ZM82.8899 8.76989L82.6711 7.79413L81.8899 7.96934V8.76989H82.8899ZM82.8899 8.94034H81.8899V9.89852L82.8472 9.93943L82.8899 8.94034ZM84.7564 9.50284L84.2431 10.3611L84.2468 10.3633L84.7564 9.50284ZM86.1797 10.9602L85.3153 11.4631L85.3173 11.4666L86.1797 10.9602ZM86.0348 15.6562L85.1898 15.1215L85.1887 15.1233L86.0348 15.6562ZM84.0149 17.3693L83.5886 16.4648V16.4648L84.0149 17.3693ZM76.9496 14.983H75.9496V15.983H76.9496V14.983ZM82.2081 14.3949L82.8474 15.1639L82.8528 15.1593L82.2081 14.3949ZM82.5661 11.5312L81.7203 12.0648L82.5661 11.5312ZM81.5689 10.6619L81.1265 11.5588L81.1312 11.561L81.5689 10.6619ZM76.9496 10.3466V9.34659H75.9496V10.3466H76.9496ZM76.9496 7.84943H75.9496V8.84943H76.9496V7.84943ZM81.032 7.58523L81.4418 8.49741L81.4477 8.4947L81.032 7.58523ZM81.9695 6.81818L81.1528 6.24091L81.1462 6.25045L81.9695 6.81818ZM81.6456 4.10795L80.9884 4.86174L80.9932 4.86585L81.6456 4.10795ZM76.9496 3.52841V2.52841H75.9496V3.52841H76.9496ZM74.2592 18V0.545454H72.2592V18H74.2592ZM73.2592 1.54545H80.2479V-0.454546H73.2592V1.54545ZM80.2479 1.54545C81.4406 1.54545 82.3629 1.7233 83.0554 2.03054L83.8665 0.202416C82.843 -0.251711 81.6233 -0.454546 80.2479 -0.454546V1.54545ZM83.0554 2.03054C83.765 2.34542 84.2437 2.75587 84.5528 3.23995L86.2384 2.16345C85.6839 1.29526 84.8728 0.648897 83.8665 0.202416L83.0554 2.03054ZM84.5549 3.24318C84.8727 3.73662 85.0433 4.31754 85.0433 5.01989H87.0433C87.0433 3.97223 86.7821 3.0077 86.2363 2.16023L84.5549 3.24318ZM85.0433 5.01989C85.0433 5.56622 84.9349 6.00061 84.7497 6.35163L86.5187 7.28473C86.879 6.60166 87.0433 5.83718 87.0433 5.01989H85.0433ZM84.7519 6.34759C84.5543 6.71802 84.2871 7.01771 83.941 7.25665L85.0774 8.90244C85.6859 8.48229 86.1687 7.94107 86.5166 7.28877L84.7519 6.34759ZM83.9431 7.25521C83.5856 7.50075 83.1658 7.68316 82.6711 7.79413L83.1088 9.74564C83.8299 9.58389 84.4897 9.30607 85.0753 8.90388L83.9431 7.25521ZM81.8899 8.76989V8.94034H83.8899V8.76989H81.8899ZM82.8472 9.93943C83.3433 9.96063 83.8041 10.0985 84.2431 10.3611L85.2697 8.64461C84.5496 8.214 83.7661 7.97687 82.9326 7.94125L82.8472 9.93943ZM84.2468 10.3633C84.6759 10.6174 85.0319 10.976 85.3153 11.4631L87.044 10.4573C86.6002 9.69446 86.0073 9.08146 85.266 8.64241L84.2468 10.3633ZM85.3173 11.4666C85.5747 11.9049 85.7251 12.4614 85.7251 13.1761H87.7251C87.7251 12.1749 87.5119 11.2542 87.042 10.4539L85.3173 11.4666ZM85.7251 13.1761C85.7251 13.928 85.541 14.5665 85.1898 15.1215L86.8798 16.191C87.449 15.2915 87.7251 14.2766 87.7251 13.1761H85.7251ZM85.1887 15.1233C84.8509 15.6595 84.3357 16.1126 83.5886 16.4648L84.4413 18.2739C85.4782 17.7851 86.3096 17.0962 86.8809 16.1892L85.1887 15.1233ZM83.5886 16.4648C82.8658 16.8054 81.9218 17 80.7166 17V19C82.1251 19 83.3799 18.7741 84.4413 18.2739L83.5886 16.4648ZM80.7166 17H73.2592V19H80.7166V17ZM76.9496 15.983H79.9581V13.983H76.9496V15.983ZM79.9581 15.983C81.0747 15.983 82.1095 15.7773 82.8474 15.1639L81.5688 13.6259C81.3635 13.7966 80.8983 13.983 79.9581 13.983V15.983ZM82.8528 15.1593C83.5667 14.5573 83.9155 13.7405 83.9155 12.8097H81.9155C81.9155 13.197 81.7927 13.437 81.5634 13.6305L82.8528 15.1593ZM83.9155 12.8097C83.9155 12.1586 83.7561 11.5434 83.4118 10.9977L81.7203 12.0648C81.842 12.2577 81.9155 12.4948 81.9155 12.8097H83.9155ZM83.4118 10.9977C83.0698 10.4554 82.5886 10.0461 82.0066 9.76282L81.1312 11.561C81.4129 11.6982 81.5964 11.8684 81.7203 12.0648L83.4118 10.9977ZM82.0113 9.76513C81.4182 9.47251 80.7511 9.34659 80.0433 9.34659V11.3466C80.5173 11.3466 80.8673 11.4309 81.1265 11.5587L82.0113 9.76513ZM80.0433 9.34659H76.9496V11.3466H80.0433V9.34659ZM75.9496 10.3466V14.983H77.9496V10.3466H75.9496ZM76.9496 8.84943H79.6854V6.84943H76.9496V8.84943ZM79.6854 8.84943C80.3077 8.84943 80.9001 8.74075 81.4418 8.4974L80.6221 6.67306C80.3797 6.78198 80.0744 6.84943 79.6854 6.84943V8.84943ZM81.4477 8.4947C81.994 8.24499 82.4536 7.87763 82.7927 7.38591L81.1462 6.25045C81.0308 6.41783 80.8654 6.56182 80.6162 6.67575L81.4477 8.4947ZM82.786 7.39542C83.1546 6.87402 83.3189 6.27039 83.3189 5.63352H81.3189C81.3189 5.91711 81.2502 6.10325 81.1529 6.24095L82.786 7.39542ZM83.3189 5.63352C83.3189 4.73312 82.9833 3.93996 82.298 3.35005L80.9932 4.86585C81.2056 5.04867 81.3189 5.27256 81.3189 5.63352H83.3189ZM82.3027 3.35418C81.6171 2.75645 80.719 2.52841 79.7536 2.52841V4.52841C80.4245 4.52841 80.7877 4.68673 80.9885 4.86173L82.3027 3.35418ZM79.7536 2.52841H76.9496V4.52841H79.7536V2.52841ZM75.9496 3.52841V7.84943H77.9496V3.52841H75.9496ZM92.8168 0.545454H93.8168V-0.454546H92.8168V0.545454ZM92.8168 18V19H93.8168V18H92.8168ZM89.1264 18H88.1264V19H89.1264V18ZM89.1264 0.545454V-0.454546H88.1264V0.545454H89.1264ZM91.8168 0.545454V18H93.8168V0.545454H91.8168ZM92.8168 17H89.1264V19H92.8168V17ZM90.1264 18V0.545454H88.1264V18H90.1264ZM89.1264 1.54545H92.8168V-0.454546H89.1264V1.54545ZM95.853 18H94.853V19H95.853V18ZM95.853 0.545454V-0.454546H94.853V0.545454H95.853ZM99.5433 0.545454H100.543V-0.454546H99.5433V0.545454ZM99.5433 14.9574H98.5433V15.9574H99.5433V14.9574ZM107.026 14.9574H108.026V13.9574H107.026V14.9574ZM107.026 18V19H108.026V18H107.026ZM96.853 18V0.545454H94.853V18H96.853ZM95.853 1.54545H99.5433V-0.454546H95.853V1.54545ZM98.5433 0.545454V14.9574H100.543V0.545454H98.5433ZM99.5433 15.9574H107.026V13.9574H99.5433V15.9574ZM106.026 14.9574V18H108.026V14.9574H106.026ZM107.026 17H95.853V19H107.026V17ZM113.161 0.545454H114.161V-0.454546H113.161V0.545454ZM113.161 18V19H114.161V18H113.161ZM109.47 18H108.47V19H109.47V18ZM109.47 0.545454V-0.454546H108.47V0.545454H109.47ZM112.161 0.545454V18H114.161V0.545454H112.161ZM113.161 17H109.47V19H113.161V17ZM110.47 18V0.545454H108.47V18H110.47ZM109.47 1.54545H113.161V-0.454546H109.47V1.54545ZM115.532 3.58807H114.532V4.58807H115.532V3.58807ZM115.532 0.545454V-0.454546H114.532V0.545454H115.532ZM129.867 0.545454H130.867V-0.454546H129.867V0.545454ZM129.867 3.58807V4.58807H130.867V3.58807H129.867ZM124.523 3.58807V2.58807H123.523V3.58807H124.523ZM124.523 18V19H125.523V18H124.523ZM120.876 18H119.876V19H120.876V18ZM120.876 3.58807H121.876V2.58807H120.876V3.58807ZM116.532 3.58807V0.545454H114.532V3.58807H116.532ZM115.532 1.54545H129.867V-0.454546H115.532V1.54545ZM128.867 0.545454V3.58807H130.867V0.545454H128.867ZM129.867 2.58807H124.523V4.58807H129.867V2.58807ZM123.523 3.58807V18H125.523V3.58807H123.523ZM124.523 17H120.876V19H124.523V17ZM121.876 18V3.58807H119.876V18H121.876ZM120.876 2.58807H115.532V4.58807H120.876V2.58807ZM131.205 0.545454V-0.454546H129.493L130.334 1.03684L131.205 0.545454ZM135.339 0.545454L136.223 0.0775204L135.941 -0.454546H135.339V0.545454ZM139.319 8.0625L138.435 8.53043L138.717 9.0625H139.319V8.0625ZM139.489 8.0625V9.0625H140.091L140.373 8.53043L139.489 8.0625ZM143.469 0.545454V-0.454546H142.867L142.586 0.0775204L143.469 0.545454ZM147.603 0.545454L148.474 1.03684L149.315 -0.454546H147.603V0.545454ZM141.237 11.8295L140.366 11.3382L140.237 11.5669V11.8295H141.237ZM141.237 18V19H142.237V18H141.237ZM137.572 18H136.572V19H137.572V18ZM137.572 11.8295H138.572V11.5669L138.443 11.3382L137.572 11.8295ZM131.205 1.54545H135.339V-0.454546H131.205V1.54545ZM134.455 1.01339L138.435 8.53043L140.203 7.59457L136.223 0.0775204L134.455 1.01339ZM139.319 9.0625H139.489V7.0625H139.319V9.0625ZM140.373 8.53043L144.353 1.01339L142.586 0.0775204L138.606 7.59457L140.373 8.53043ZM143.469 1.54545H147.603V-0.454546H143.469V1.54545ZM146.732 0.054069L140.366 11.3382L142.107 12.3209L148.474 1.03684L146.732 0.054069ZM140.237 11.8295V18H142.237V11.8295H140.237ZM141.237 17H137.572V19H141.237V17ZM138.572 18V11.8295H136.572V18H138.572ZM138.443 11.3382L132.076 0.054069L130.334 1.03684L136.701 12.3209L138.443 11.3382Z" fill="black" mask="url(#path-1-outside-1_92_10)"/>
</g>
<defs>
<filter id="filter0_d_92_10" x="0.51709" y="0.54541" width="151.086" height="25.4546" filterUnits="userSpaceOnUse" color-interpolation-filters="sRGB">
<feFlood flood-opacity="0" result="BackgroundImageFix"/>
<feColorMatrix in="SourceAlpha" type="matrix" values="0 0 0 0 0 0 0 0 0 0 0 0 0 0 0 0 0 0 127 0" result="hardAlpha"/>
<feOffset dy="4"/>
<feGaussianBlur stdDeviation="2"/>
<feComposite in2="hardAlpha" operator="out"/>
<feColorMatrix type="matrix" values="0 0 0 0 0 0 0 0 0 0 0 0 0 0 0 0 0 0 0.25 0"/>
<feBlend mode="normal" in2="BackgroundImageFix" result="effect1_dropShadow_92_10"/>
<feBlend mode="normal" in="SourceGraphic" in2="effect1_dropShadow_92_10" result="shape"/>
</filter>
</defs>
</svg>
